<svg id="Layer_1" data-name="Layer 1" xmlns="http://www.w3.org/2000/svg" width="776" height="188" viewBox="0 0 776 188"><defs><style>.cls-1{fill:#fff;}.cls-2,.cls-3{fill:none;stroke:#000;stroke-miterlimit:10;stroke-width:13px;}.cls-3{opacity:0.26;}</style></defs><title>forlad</title><path class="cls-1" d="M178.59,79.61h-7V71.48h23.26v8.13h-7v39.9h-9.28Z"/><path class="cls-1" d="M201.55,81.56h9.29v38h-9.29Zm.07-12.24h9.22v8.42h-9.22Z"/><path class="cls-1" d="M219.77,119.51V69.32h9.29v50.19Z"/><path class="cls-1" d="M238,69.32h9.29V84.73A7.25,7.25,0,0,1,254,81c5.69,0,7.92,4.32,7.92,11.31V106c0,8.21-1.37,14-8.79,14a6.32,6.32,0,0,1-6.26-3.81,32.19,32.19,0,0,1-.22,3.24h-8.71c.15-2.31.07-6.41.07-9.44ZM252.67,93.8c0-2.81-.36-4.75-2.59-4.75s-2.81,1.65-2.81,5v13.24c0,3.53.87,4.83,2.74,4.83,1.58,0,2.66-1.22,2.66-5Z"/><path class="cls-1" d="M292.34,110.87c0,3.38.08,7,.22,8.64H284a22.6,22.6,0,0,1-.57-2.81,7,7,0,0,1-6.48,3.38c-5.77,0-8.07-5.33-8.07-11.16v-.72c0-9.65,6.55-12,13.61-12h.65v-4.4c0-2.59-.36-3.74-2.09-3.74S279,89.34,279,91.57v.86H270v-.57c0-6.63,3-10.88,11.38-10.88,7.49,0,10.94,3.6,10.94,10.23Zm-9.14-8.21h-.86c-2.74,0-4.54,1.22-4.54,5.18v.5c0,2.6.86,4,2.66,4s2.74-1.29,2.74-5.18Z"/><path class="cls-1" d="M324.53,116.41c0,9.07-.87,16-12.53,16-8.86,0-11.31-5.11-11.31-10.15V122h9.22v.14c0,.94.29,2.88,2.59,2.88,2.52,0,2.88-1.87,2.88-6v-4.24c-1.08,2.44-3.38,3.67-6.41,3.67-6.84,0-8.35-5.33-8.35-11.67V92.36c0-5.18,1.73-11.38,8.93-11.38,3.74,0,5.62,1.66,6.34,3.89a25.58,25.58,0,0,1,.36-3.31h8.42c-.07,2.45-.14,6-.14,10.51Zm-14.69-10.3c0,3,.72,4.47,2.59,4.47,2.23,0,2.81-1.59,2.81-5.26V93.51c0-2.3-.22-4.46-2.52-4.46-1.8,0-2.88,1.15-2.88,4Z"/><path class="cls-1" d="M341.88,102.94v5.48c0,2.45.57,4.25,2.66,4.25s2.59-2,2.59-4.33v-.86h9v.5c0,5.12-1.59,12.1-11.6,12.1-9.72,0-11.81-5.54-11.81-13.32V93.94c0-6.26,2.88-13,11.88-13,8,0,11.67,4.83,11.67,12.89v9.07Zm5.47-6.62V92.65c0-3-.65-4.32-2.74-4.32-1.72,0-2.73,1.29-2.73,4.32v3.67Z"/><path class="cls-1" d="M374.2,81.56H378V73h9.15v8.57h4.32v8.21h-4.32V109.5c0,1.72.21,2.73,2.37,2.73a6.09,6.09,0,0,0,1.66-.14v7.13a15.68,15.68,0,0,1-5.33.79c-5.54,0-8-2-8-8.64V89.77H374.2Z"/><path class="cls-1" d="M398.54,81.56h9.29v38h-9.29Zm.07-12.24h9.22v8.42h-9.22Z"/><path class="cls-1" d="M416.76,119.51V69.32H426v50.19Z"/><path class="cls-1" d="M455.13,107.19V109c0,2.09.43,3.82,2.38,3.82,1.37,0,2.09-.86,2.09-2.88s-.51-3.53-5-6.41c-5.69-3.53-7.92-6.26-7.92-11.81,0-6.91,3.81-10.73,10.8-10.73,8.49,0,10.8,4.68,10.8,11.09v1.59h-8.5V91.42c0-2.45-.65-3.24-2.09-3.24s-1.94,1-1.94,2.74.72,2.66,4,4.68c7,4.32,9.07,7.34,9.07,13,0,7.42-3.24,11.45-11.44,11.45-9.73,0-11.17-6-11.17-11.45v-1.44Z"/><path class="cls-1" d="M474.35,81.56h3.82V73h9.14v8.57h4.32v8.21h-4.32V109.5c0,1.72.22,2.73,2.38,2.73a6.12,6.12,0,0,0,1.66-.14v7.13A15.68,15.68,0,0,1,486,120c-5.55,0-8-2-8-8.64V89.77h-3.67Z"/><path class="cls-1" d="M521.15,110.87c0,3.38.08,7,.22,8.64H512.8a22.6,22.6,0,0,1-.57-2.81,7,7,0,0,1-6.48,3.38c-5.77,0-8.07-5.33-8.07-11.16v-.72c0-9.65,6.55-12,13.61-12h.65v-4.4c0-2.59-.36-3.74-2.09-3.74s-2.09,1.3-2.09,3.53v.86h-8.93v-.57c0-6.63,3-10.88,11.38-10.88,7.49,0,10.94,3.6,10.94,10.23ZM512,102.66h-.86c-2.74,0-4.54,1.22-4.54,5.18v.5c0,2.6.86,4,2.66,4S512,111,512,107.12Z"/><path class="cls-1" d="M547.07,92.14c-4.46,0-7.63.8-7.63,7.28v20.09h-9.29V94.45c0-6.48,0-9.58-.07-12.89h8.78a54,54,0,0,1,.29,5.69c1.37-4.4,4.39-6.2,7.92-6.27Z"/><path class="cls-1" d="M553.26,81.56h3.82V73h9.14v8.57h4.32v8.21h-4.32V109.5c0,1.72.22,2.73,2.38,2.73a6.12,6.12,0,0,0,1.66-.14v7.13a15.68,15.68,0,0,1-5.33.79c-5.55,0-8-2-8-8.64V89.77h-3.67Z"/><path class="cls-1" d="M585.45,107.19V109c0,2.09.43,3.82,2.37,3.82,1.37,0,2.09-.86,2.09-2.88s-.5-3.53-5-6.41C579.25,100,577,97.26,577,91.71,577,84.8,580.84,81,587.82,81c8.5,0,10.8,4.68,10.8,11.09v1.59h-8.49V91.42c0-2.45-.65-3.24-2.09-3.24s-1.94,1-1.94,2.74.72,2.66,4,4.68c7,4.32,9.07,7.34,9.07,13,0,7.42-3.24,11.45-11.45,11.45-9.72,0-11.16-6-11.16-11.45v-1.44Z"/><path class="cls-1" d="M615.69,97.33h.21c1.44-4.32,4-11.52,5.48-15.77H631c-2.16,5-4.53,9.94-6.41,14,.58,2.73,6.34,21.09,6.92,24h-9.94c-.22-1.52-3.31-13.9-3.46-15.2-.72,1.59-1.87,4-2.37,5v10.23h-9.15V69.32h9.15Z"/><path class="cls-1" d="M636.64,108.71v-.22c0-8.86,5.76-11.95,12.67-11.95h1.58v-5c0-2.31-.43-3.53-2.23-3.53s-2.09,1.66-2.09,3.46v1.65h-8.85v-.94c0-6.83,2.73-11.23,10.65-11.23,3.82,0,6.41.94,7.57,2.59A9.91,9.91,0,0,1,663.21,81c7.85,0,10.87,4.9,10.87,12.39v9.57H659.82v5.55c0,2.88.94,4.18,2.52,4.18,2.09,0,2.38-1.88,2.45-4.25v-1.08h9.15v.57c0,6.34-1.8,12.17-11.52,12.17-5.4,0-7.57-1.8-8.93-3.74a9.57,9.57,0,0,1-8.07,3.74C639.16,120.08,636.64,114.75,636.64,108.71ZM651,102.94h-1.08c-2.81,0-4.32,1.44-4.32,4.83v.36c0,2.88,1.08,4.1,2.8,4.1,2,0,2.6-1.87,2.6-5.4Zm14-6.4V93c0-3.39-.51-4.83-2.52-4.83s-2.67,1.16-2.67,4.9v3.46Z"/><path class="cls-1" d="M698.92,92.14c-4.47,0-7.63.8-7.63,7.28v20.09H682V94.45c0-6.48,0-9.58-.08-12.89h8.79a56.83,56.83,0,0,1,.29,5.69c1.37-4.4,4.39-6.2,7.92-6.27Z"/><path class="cls-1" d="M706,93.15c0-8.28,0-10.22-.07-11.59h8.78a21.53,21.53,0,0,1,.29,3.09,7.32,7.32,0,0,1,6.7-3.67c3.45,0,5.25,1.59,6.12,3.82A8.53,8.53,0,0,1,735.13,81c4.9,0,7.71,3.17,7.71,9.8v28.73h-9.15V92.36c0-2.16-.57-3.31-2.23-3.31-1.87,0-2.45,1.37-2.45,4.39v26.07H719.8V92.43c0-2.81-.87-3.38-2.24-3.38-1.94,0-2.44,1.37-2.44,4.24v26.22H706Z"/><line class="cls-2" x1="58.87" y1="50.4" x2="147.03" y2="137.22"/><line class="cls-2" x1="144.36" y1="53.07" x2="56.2" y2="139.89"/><line class="cls-3" x1="71.3" y1="53.51" x2="159.46" y2="140.33"/><line class="cls-3" x1="156.79" y1="56.18" x2="68.63" y2="143"/></svg>
