<svg id="Layer_1" data-name="Layer 1" xmlns="http://www.w3.org/2000/svg" width="634" height="188" viewBox="0 0 634 188"><defs><style>.cls-1{fill:#fff;}.cls-2,.cls-3{fill:none;stroke:#000;stroke-miterlimit:10;stroke-width:13px;}.cls-3{opacity:0.26;}</style></defs><title>forlad</title><path class="cls-1" d="M203.51,83.48h19.94v8.13H212.72v11H222.8v8.21H212.72v20.74h-9.21Z"/><path class="cls-1" d="M254.05,105.44V119.7c0,8.35-4.46,12.38-12.1,12.38s-11.8-4.1-11.8-12.38V105.08c0-8.43,5.11-12.1,11.95-12.1C249.3,93,254.05,96.87,254.05,105.44Zm-14.69-.79V120.2c0,2.52.72,4.18,2.74,4.18s2.66-1.59,2.66-4.25V104.58c0-2.31-.5-3.89-2.66-3.89C240.15,100.69,239.36,102.13,239.36,104.65Z"/><path class="cls-1" d="M279.11,104.14c-4.47,0-7.64.8-7.64,7.28v20.09h-9.29V106.45c0-6.48,0-9.58-.07-12.89h8.79a56.83,56.83,0,0,1,.29,5.69c1.36-4.4,4.39-6.2,7.92-6.27Z"/><path class="cls-1" d="M286.23,131.51V81.32h9.29v50.19Z"/><path class="cls-1" d="M326.19,122.87c0,3.38.08,7,.22,8.64h-8.57a22.6,22.6,0,0,1-.57-2.81,7,7,0,0,1-6.48,3.38c-5.77,0-8.07-5.33-8.07-11.16v-.72c0-9.65,6.55-12,13.61-12H317v-4.4c0-2.59-.36-3.74-2.09-3.74s-2.09,1.3-2.09,3.53v.86h-8.93v-.57c0-6.63,3-10.88,11.38-10.88,7.49,0,10.94,3.6,10.94,10.23Zm-9.14-8.21h-.86c-2.74,0-4.54,1.22-4.54,5.18v.5c0,2.6.86,4,2.66,4s2.74-1.29,2.74-5.18Z"/><path class="cls-1" d="M358.38,81.32v39.6c0,5.4,0,8.57.07,10.59h-8.78a30.6,30.6,0,0,1-.29-3.46c-1.44,2.66-3.39,4-6.92,4-6,0-8-4.61-8-12.1V104.36c0-6.27,2.23-11.38,8.64-11.38,2.45,0,5,.72,6,2.74V81.32ZM343.69,120c0,2.6.65,4.11,2.66,4.11,2.23,0,2.74-2,2.74-5.19V106.16c0-3.38-.36-5.11-2.67-5.11-2,0-2.73,1.37-2.73,4Z"/><path class="cls-1" d="M387.46,119.19V121c0,2.09.43,3.82,2.38,3.82,1.37,0,2.09-.86,2.09-2.88s-.51-3.53-5-6.41c-5.69-3.53-7.92-6.26-7.92-11.81C379,96.8,382.85,93,389.84,93c8.5,0,10.8,4.68,10.8,11.09v1.59h-8.5v-2.24c0-2.45-.64-3.24-2.08-3.24s-1.95,1-1.95,2.74.72,2.66,4,4.68c7,4.32,9.08,7.34,9.08,13,0,7.42-3.24,11.45-11.45,11.45-9.72,0-11.16-6-11.16-11.45v-1.44Z"/><path class="cls-1" d="M408.7,104.43c0-5,0-8.93-.07-10.87h8.86a35.87,35.87,0,0,1,.36,3.6,7.39,7.39,0,0,1,7-4.18c5.26,0,7.71,3.6,7.71,10.66v16.49c0,7.78-2.31,12-8.71,12A6.52,6.52,0,0,1,418,129v14.83H408.7ZM418,119.05c0,3.17.58,5,2.59,5s2.81-1.51,2.81-4.39V104.94c0-2.6-.79-4-2.52-4s-2.88,1.08-2.88,4.61Z"/><path class="cls-1" d="M440.81,93.56h9.29v37.95h-9.29Zm.08-12.24h9.21v8.42h-9.21Z"/><path class="cls-1" d="M459,131.51V81.32h9.29v50.19Z"/><path class="cls-1" d="M477.24,131.51V81.32h9.29v50.19Z"/><path class="cls-1" d="M503.88,114.94v5.48c0,2.45.58,4.25,2.67,4.25s2.59-2,2.59-4.33v-.86h9v.5c0,5.12-1.58,12.1-11.59,12.1-9.72,0-11.81-5.54-11.81-13.32V105.94c0-6.26,2.88-13,11.88-13,8,0,11.67,4.83,11.67,12.89v9.07Zm5.48-6.62v-3.67c0-3-.65-4.32-2.74-4.32-1.73,0-2.74,1.29-2.74,4.32v3.67Z"/><path class="cls-1" d="M524,93.56h3.82V85H537v8.57h4.32v8.21H537V121.5c0,1.72.22,2.73,2.38,2.73a6.16,6.16,0,0,0,1.66-.14v7.13a15.68,15.68,0,0,1-5.33.79c-5.55,0-8-2-8-8.64v-21.6H524Z"/><line class="cls-2" x1="58.87" y1="50.4" x2="147.03" y2="137.22"/><line class="cls-2" x1="144.36" y1="53.07" x2="56.2" y2="139.89"/><line class="cls-3" x1="71.3" y1="53.51" x2="159.46" y2="140.33"/><line class="cls-3" x1="156.79" y1="56.18" x2="68.63" y2="143"/></svg>
