<svg id="Layer_1" data-name="Layer 1" xmlns="http://www.w3.org/2000/svg" width="1354" height="907" viewBox="0 0 1354 907"><defs><style>.cls-1{opacity:0.2;}.cls-2{fill:#ffa0b2;opacity:0.84;}.cls-3{fill:#b22287;}</style></defs><title>game_over2</title><rect class="cls-1" x="83" y="101.67" width="1051.4" height="730.33" rx="147.83"/><rect class="cls-2" x="138.51" y="69" width="1051.4" height="730.33" rx="147.83"/><path class="cls-3" d="M435.16,168.05V155.23h-8.93c-.79,0-1.36-.43-1.36-1.15s.57-1.15,1.36-1.15h16.49c.8,0,1.37.43,1.37,1.15s-.57,1.15-1.37,1.15H438v12.82c0,9.65-9.21,16.63-20.23,16.63-15.12,0-29.38-6.12-29.38-28.29,0-19.73,15-28.38,29.38-28.38a23.24,23.24,0,0,1,15.05,5.48v-3.17a1.3,1.3,0,1,1,2.59,0v14.76a1.3,1.3,0,1,1-2.59,0v-6.84c0-2.3-7-7.92-14.55-7.92-6,0-10.44,4.68-10.44,25.92,0,22.47,5.33,25.56,13.4,25.56C427.17,181.8,435.16,176.55,435.16,168.05Z"/><path class="cls-3" d="M473.61,129.31l21.67,51.77h4.9a1.21,1.21,0,0,1,1.37,1.16c0,.72-.58,1.15-1.37,1.15H469.72c-.79,0-1.37-.43-1.37-1.15a1.21,1.21,0,0,1,1.37-1.16h7.56L474,172.73H453.52l-3.38,8.35h6.76c.8,0,1.37.44,1.37,1.16s-.57,1.15-1.37,1.15H442.36c-.79,0-1.37-.43-1.37-1.15a1.21,1.21,0,0,1,1.37-1.16h4.9l21.67-51.77a2.38,2.38,0,0,1,2.38-1.58A2.49,2.49,0,0,1,473.61,129.31Zm-19.15,41.12h18.72L464,148Z"/><path class="cls-3" d="M553,182.24a1.2,1.2,0,0,1,1.36-1.16h6.48V138.17l-20.09,44.5a1.48,1.48,0,0,1-1.22.72,1.52,1.52,0,0,1-1.37-.65l-21.46-44.07v42.41h6.7a1.21,1.21,0,0,1,1.37,1.16c0,.72-.58,1.15-1.37,1.15H507.23c-.79,0-1.37-.43-1.37-1.15a1.21,1.21,0,0,1,1.37-1.16h6.55V131.69h-6.55c-.79,0-1.37-.44-1.37-1.15a1.21,1.21,0,0,1,1.37-1.16h22.32c1,0,1.51.22,1.87.94l15.77,31.18,14-31.11a1.6,1.6,0,0,1,1.44-1h22a1.21,1.21,0,0,1,1.37,1.16c0,.71-.58,1.15-1.37,1.15h-6.56v49.39h6.56a1.21,1.21,0,0,1,1.37,1.16c0,.72-.58,1.15-1.37,1.15H554.32C553.53,183.39,553,183,553,182.24Z"/><path class="cls-3" d="M617,153.87v27.21h19.51V170.71a1.38,1.38,0,1,1,2.74,0V182a1.25,1.25,0,0,1-1.37,1.37H593.13c-.8,0-1.37-.43-1.37-1.15s.57-1.16,1.37-1.16h6.55V131.69h-6.55c-.8,0-1.37-.44-1.37-1.15s.57-1.16,1.37-1.16h44.35a1.25,1.25,0,0,1,1.37,1.37v12a1.38,1.38,0,1,1-2.74,0V131.69H617v19.73h13.9a1.23,1.23,0,0,1,0,2.45Z"/><path class="cls-3" d="M724.82,156.24c0,17.07-12,28.23-25.85,28.23-14.26,0-28.66-7.78-28.66-28.23,0-19.51,14.54-28.23,28.66-28.23C712.87,128,724.82,139.18,724.82,156.24Zm-2.88,0c0-15.19-10.08-25.92-22.47-25.92-5.4,0-9.57,4.68-9.57,25.92,0,22.47,4.17,25.92,9.57,25.92C711.86,182.16,721.94,171.43,721.94,156.24Z"/><path class="cls-3" d="M784.87,129.38a1.21,1.21,0,0,1,1.37,1.16c0,.79-.58,1.15-1.37,1.15H779.4l-21.1,50.83c-.65,1.52-1.51,1.95-2.52,1.95a2.91,2.91,0,0,1-2.59-1.95L730.5,131.69H725c-.79,0-1.37-.36-1.37-1.15a1.21,1.21,0,0,1,1.37-1.16h32a1.21,1.21,0,0,1,1.37,1.16c0,.79-.58,1.15-1.37,1.15h-7.71l14.19,32.11,13.1-32.11h-6.76c-.8,0-1.37-.36-1.37-1.15s.57-1.16,1.37-1.16Z"/><path class="cls-3" d="M815.75,153.87v27.21h19.52V170.71a1.37,1.37,0,1,1,2.73,0V182a1.25,1.25,0,0,1-1.37,1.37H791.92c-.79,0-1.37-.43-1.37-1.15a1.21,1.21,0,0,1,1.37-1.16h6.55V131.69h-6.55c-.79,0-1.37-.44-1.37-1.15a1.21,1.21,0,0,1,1.37-1.16h44.35a1.25,1.25,0,0,1,1.37,1.37v12a1.37,1.37,0,1,1-2.73,0V131.69H815.75v19.73h13.9a1.23,1.23,0,0,1,0,2.45Z"/><path class="cls-3" d="M845.85,183.39c-.8,0-1.37-.43-1.37-1.15s.57-1.16,1.37-1.16h6.55V131.69h-6.55c-.8,0-1.37-.36-1.37-1.15s.57-1.16,1.37-1.16h27c14.33,0,23.69,6.56,23.69,19.59,0,10.22-6.7,16.7-15.2,18.79a14,14,0,0,1,4.61,3.82l3.53,4.46c2.31,2.88,4.54,4.9,8.43,4.9,1.65,0,2.23.43,2.23,1.22s-.58,1.23-2.31,1.23c-4.75,0-7.63-1.66-10.51-5.33l-3.67-4.68c-2.31-2.88-4.82-4.68-8.71-4.68-.72,0-1.44-.29-1.44-1.23s.72-1.22,1.51-1.22c11,0,18.58-6.84,18.58-17.43,0-11.95-7.92-17.13-20.81-17.13h-3.1v49.39h6.55c.79,0,1.37.36,1.37,1.16s-.58,1.15-1.37,1.15Z"/><path class="cls-3" d="M913.31,164.16c-2.38-6.84-5.4-19.58-5.4-26.86,0-5.83,3.46-9.29,7.7-9.29s7.71,3.46,7.71,9.29c0,7.28-3,20-5.4,26.86-.51,1.44-1.15,1.87-2.31,1.87S913.81,165.6,913.31,164.16Zm-4,13.9a6.23,6.23,0,1,1,6.26,6.19A6.27,6.27,0,0,1,909.35,178.06Z"/><path class="cls-3" d="M343.23,207.8h5.95v13.92h.1c1-3,3.12-9.55,4.56-13.92h6.82l-5.38,12.39,5.57,19.63h-6.67L351,226.33l-1.83,4.08v9.41h-5.95Z"/><path class="cls-3" d="M379.19,231.81c0,4.22,0,6.62,0,8h-5.9a16.34,16.34,0,0,1-.19-2.21,4.88,4.88,0,0,1-4.8,2.6c-2.5,0-5-1.2-5-6.53V214.52h6.19v17.72c0,1.77.48,2.64,1.68,2.64S373,234,373,231.57v-17h6.15Z"/><path class="cls-3" d="M383.94,222.11c0-4.51,0-6.63-.05-7.59h5.9a16.62,16.62,0,0,1,.19,2.16,5.22,5.22,0,0,1,4.76-2.54c3.36,0,5.13,2.21,5.13,6.58v19.1h-6.14V222c0-1.73-.53-2.49-1.68-2.49-1.39,0-1.92.76-1.92,3.26v17h-6.19Z"/><path class="cls-3" d="M420.08,206.36v26.41c0,3.6,0,5.71.05,7h-5.86a22.67,22.67,0,0,1-.19-2.3,4.67,4.67,0,0,1-4.61,2.69c-4,0-5.33-3.08-5.33-8.07V221.72c0-4.17,1.49-7.58,5.76-7.58,1.64,0,3.32.48,4,1.82v-9.6Zm-9.79,25.78c0,1.73.43,2.74,1.77,2.74,1.49,0,1.83-1.3,1.83-3.46v-8.5c0-2.25-.24-3.4-1.78-3.4-1.34,0-1.82.91-1.82,2.68Z"/><path class="cls-3" d="M430.45,228.78v3.65c0,1.63.38,2.83,1.77,2.83S434,234,434,232.38v-.57h6v.33c0,3.41-1.05,8.07-7.73,8.07-6.48,0-7.87-3.7-7.87-8.88v-8.55c0-4.18,1.92-8.64,7.92-8.64,5.33,0,7.78,3.22,7.78,8.59v6.05Zm3.65-4.42v-2.44c0-2-.44-2.88-1.83-2.88-1.15,0-1.82.86-1.82,2.88v2.44Z"/><path class="cls-3" d="M444.08,222.11c0-4.51,0-6.63-.05-7.59h5.91a18.58,18.58,0,0,1,.19,2.16,5.19,5.19,0,0,1,4.75-2.54c3.36,0,5.14,2.21,5.14,6.58v19.1h-6.15V222c0-1.73-.53-2.49-1.68-2.49-1.39,0-1.92.76-1.92,3.26v17h-6.19Z"/><path class="cls-3" d="M472.11,206.36h6.19v10.28a4.84,4.84,0,0,1,4.47-2.5c3.79,0,5.28,2.88,5.28,7.54v9.17c0,5.47-.92,9.36-5.86,9.36a4.23,4.23,0,0,1-4.18-2.55c0,.87-.09,1.59-.14,2.16h-5.81c.1-1.53.05-4.27.05-6.29Zm9.79,16.32c0-1.87-.24-3.16-1.73-3.16s-1.87,1.1-1.87,3.31v8.83c0,2.35.58,3.22,1.83,3.22,1.05,0,1.77-.82,1.77-3.31Z"/><path class="cls-3" d="M492.32,239.82V206.36h6.19v33.46Z"/><path class="cls-3" d="M508.88,228.78v3.65c0,1.63.38,2.83,1.77,2.83s1.73-1.29,1.73-2.88v-.57h6v.33c0,3.41-1,8.07-7.73,8.07-6.48,0-7.87-3.7-7.87-8.88v-8.55c0-4.18,1.92-8.64,7.92-8.64,5.33,0,7.78,3.22,7.78,8.59v6.05Zm3.65-4.42v-2.44c0-2-.44-2.88-1.83-2.88-1.15,0-1.82.86-1.82,2.88v2.44Z"/><path class="cls-3" d="M527.45,214.52c.72,5.33,1.68,13.88,2.16,18.73h.15c.38-5,1.63-13,2.35-18.73h6.14l-4.89,25.3h-7.63l-4.9-25.3Z"/><path class="cls-3" d="M548.67,214.52h6.19v25.3h-6.19Zm.05-8.16h6.14V212h-6.14Z"/><path class="cls-3" d="M565.71,225h.14c1-2.88,2.69-7.68,3.65-10.52h6.38c-1.44,3.36-3,6.63-4.27,9.32.39,1.82,4.23,14.06,4.61,16H569.6c-.15-1-2.21-9.26-2.31-10.13-.48,1.06-1.25,2.64-1.58,3.32v6.81h-6.1V206.36h6.1Z"/><path class="cls-3" d="M585.1,225h.14c1-2.88,2.69-7.68,3.65-10.52h6.39c-1.45,3.36-3,6.63-4.28,9.32.39,1.82,4.23,14.06,4.61,16H589c-.15-1-2.21-9.26-2.31-10.13-.48,1.06-1.25,2.64-1.58,3.32v6.81H579V206.36h6.1Z"/><path class="cls-3" d="M604,228.78v3.65c0,1.63.39,2.83,1.78,2.83s1.73-1.29,1.73-2.88v-.57h6v.33c0,3.41-1.06,8.07-7.73,8.07-6.48,0-7.87-3.7-7.87-8.88v-8.55c0-4.18,1.92-8.64,7.92-8.64,5.32,0,7.77,3.22,7.77,8.59v6.05Zm3.65-4.42v-2.44c0-2-.43-2.88-1.82-2.88-1.16,0-1.83.86-1.83,2.88v2.44Z"/><path class="cls-3" d="M640.39,237.76c0,6.05-.57,10.66-8.35,10.66-5.9,0-7.54-3.41-7.54-6.77v-.15h6.15v.1a1.69,1.69,0,0,0,1.73,1.92c1.68,0,1.92-1.25,1.92-4V236.7a4.31,4.31,0,0,1-4.27,2.45c-4.57,0-5.57-3.55-5.57-7.78v-9.65c0-3.45,1.15-7.58,5.95-7.58,2.5,0,3.74,1.1,4.22,2.59a20.08,20.08,0,0,1,.24-2.21h5.62c0,1.64-.1,4-.1,7Zm-9.79-6.87c0,2,.48,3,1.73,3,1.49,0,1.87-1.06,1.87-3.5v-7.88c0-1.53-.14-3-1.68-3-1.2,0-1.92.76-1.92,2.68Z"/><path class="cls-3" d="M645.14,239.82V206.36h6.2v33.46Z"/><path class="cls-3" d="M670.59,234.06c0,2.26,0,4.66.14,5.76H665a13.88,13.88,0,0,1-.39-1.87,4.64,4.64,0,0,1-4.32,2.26c-3.84,0-5.37-3.56-5.37-7.44v-.48c0-6.44,4.36-8,9.07-8h.43v-2.93c0-1.73-.24-2.5-1.39-2.5s-1.39.87-1.39,2.36v.57h-5.95v-.38c0-4.42,2-7.25,7.58-7.25,5,0,7.3,2.4,7.3,6.82Zm-6.1-5.47h-.58c-1.82,0-3,.82-3,3.46v.33c0,1.73.57,2.64,1.78,2.64s1.82-.86,1.82-3.45Z"/><path class="cls-3" d="M690.84,206.36v26.41c0,3.6,0,5.71,0,7H685a22.67,22.67,0,0,1-.19-2.3,4.67,4.67,0,0,1-4.61,2.69c-4,0-5.33-3.08-5.33-8.07V221.72c0-4.17,1.49-7.58,5.77-7.58,1.63,0,3.31.48,4,1.82v-9.6Zm-9.79,25.78c0,1.73.43,2.74,1.78,2.74s1.82-1.3,1.82-3.46v-8.5c0-2.25-.24-3.4-1.78-3.4-1.34,0-1.82.91-1.82,2.68Z"/><path class="cls-3" d="M703.66,239.82V220h-2.31v-5.48h2.31v-1.63c0-3.69,1.29-6.81,6.33-6.81a10.78,10.78,0,0,1,2.4.24v5a4.91,4.91,0,0,0-.86-.05c-1.3,0-1.73.57-1.73,2v1.2h2.78V220H709.8v19.82Z"/><path class="cls-3" d="M731.3,222.44V232c0,5.57-3,8.26-8.06,8.26s-7.87-2.74-7.87-8.26V222.2c0-5.61,3.4-8.06,8-8.06C728.14,214.14,731.3,216.73,731.3,222.44Zm-9.79-.52v10.37c0,1.68.48,2.78,1.82,2.78s1.78-1.06,1.78-2.83V221.87c0-1.54-.33-2.59-1.78-2.59C722,219.28,721.51,220.24,721.51,221.92Z"/><path class="cls-3" d="M746.81,221.58c-3,0-5.09.53-5.09,4.85v13.39h-6.19v-16.7c0-4.32,0-6.39,0-8.6h5.85a35.77,35.77,0,0,1,.2,3.8,5.37,5.37,0,0,1,5.28-4.18Z"/><path class="cls-3" d="M773,206.36v26.41c0,3.6,0,5.71,0,7h-5.86a20.11,20.11,0,0,1-.19-2.3,4.67,4.67,0,0,1-4.61,2.69c-4,0-5.33-3.08-5.33-8.07V221.72c0-4.17,1.49-7.58,5.76-7.58,1.63,0,3.31.48,4,1.82v-9.6Zm-9.8,25.78c0,1.73.44,2.74,1.78,2.74s1.83-1.3,1.83-3.46v-8.5c0-2.25-.24-3.4-1.78-3.4-1.34,0-1.83.91-1.83,2.68Z"/><path class="cls-3" d="M777.72,214.52h6.19v25.3h-6.19Zm0-8.16h6.14V212h-6.14Z"/><path class="cls-3" d="M787.27,214.52h2.54v-5.71h6.1v5.71h2.88V220h-2.88v13.15c0,1.15.14,1.82,1.58,1.82a4.23,4.23,0,0,0,1.11-.09v4.75a10.58,10.58,0,0,1-3.56.53c-3.69,0-5.32-1.35-5.32-5.76V220h-2.45Z"/><path class="cls-3" d="M824.47,234.06c0,2.26,0,4.66.14,5.76H818.9a13.79,13.79,0,0,1-.38-1.87,4.64,4.64,0,0,1-4.32,2.26c-3.84,0-5.38-3.56-5.38-7.44v-.48c0-6.44,4.37-8,9.07-8h.43v-2.93c0-1.73-.24-2.5-1.39-2.5s-1.39.87-1.39,2.36v.57h-5.95v-.38c0-4.42,2-7.25,7.58-7.25,5,0,7.3,2.4,7.3,6.82Zm-6.1-5.47h-.57c-1.83,0-3,.82-3,3.46v.33c0,1.73.58,2.64,1.78,2.64s1.82-.86,1.82-3.45Z"/><path class="cls-3" d="M840.55,221.58c-3,0-5.09.53-5.09,4.85v13.39h-6.19v-16.7c0-4.32,0-6.39,0-8.6h5.86c.09.53.19,2.64.19,3.8a5.37,5.37,0,0,1,5.28-4.18Z"/><path class="cls-3" d="M844.1,206.36h6.19v10.28a4.84,4.84,0,0,1,4.47-2.5c3.79,0,5.28,2.88,5.28,7.54v9.17c0,5.47-.91,9.36-5.86,9.36a4.23,4.23,0,0,1-4.18-2.55c0,.87-.09,1.59-.14,2.16h-5.81c.1-1.53.05-4.27.05-6.29Zm9.79,16.32c0-1.87-.24-3.16-1.72-3.16s-1.88,1.1-1.88,3.31v8.83c0,2.35.58,3.22,1.83,3.22,1,0,1.77-.82,1.77-3.31Z"/><path class="cls-3" d="M870.07,228.78v3.65c0,1.63.38,2.83,1.77,2.83s1.73-1.29,1.73-2.88v-.57h6v.33c0,3.41-1.05,8.07-7.73,8.07-6.48,0-7.87-3.7-7.87-8.88v-8.55c0-4.18,1.92-8.64,7.92-8.64,5.33,0,7.78,3.22,7.78,8.59v6.05Zm3.65-4.42v-2.44c0-2-.44-2.88-1.83-2.88-1.15,0-1.82.86-1.82,2.88v2.44Z"/><path class="cls-3" d="M889.89,214.52v24.87c0,4.56-.14,8.93-6.38,8.93a18,18,0,0,1-2.45-.19v-5.28h1.1c1.16,0,1.59-.34,1.59-1.83v-26.5Zm-6.14-8.16h6.14V212h-6.14Z"/><path class="cls-3" d="M910.15,206.36v26.41c0,3.6,0,5.71.05,7h-5.86a20.11,20.11,0,0,1-.19-2.3,4.67,4.67,0,0,1-4.61,2.69c-4,0-5.33-3.08-5.33-8.07V221.72c0-4.17,1.49-7.58,5.76-7.58,1.63,0,3.31.48,4,1.82v-9.6Zm-9.79,25.78c0,1.73.43,2.74,1.77,2.74s1.83-1.3,1.83-3.46v-8.5c0-2.25-.24-3.4-1.78-3.4-1.34,0-1.82.91-1.82,2.68Z"/><path class="cls-3" d="M920.52,228.78v3.65c0,1.63.38,2.83,1.77,2.83S924,234,924,232.38v-.57h6v.33c0,3.41-1.06,8.07-7.73,8.07-6.48,0-7.87-3.7-7.87-8.88v-8.55c0-4.18,1.92-8.64,7.92-8.64,5.33,0,7.78,3.22,7.78,8.59v6.05Zm3.64-4.42v-2.44c0-2-.43-2.88-1.82-2.88-1.15,0-1.82.86-1.82,2.88v2.44Z"/><path class="cls-3" d="M935.88,228.11,935.3,213V207.8H942v5l-.58,15.27Zm-.24,11.71v-7.53h6.09v7.53Z"/><path class="cls-3" d="M946.58,239.82v-7.77h6.09v7.77Z"/><path class="cls-3" d="M957,239.82v-7.77h6.1v7.77Z"/></svg>
