<svg id="Layer_1" data-name="Layer 1" xmlns="http://www.w3.org/2000/svg" width="1430" height="926" viewBox="0 0 1430 926"><defs><style>.cls-1{opacity:0.2;}.cls-2{fill:#ffa0b2;opacity:0.84;}.cls-3{fill:#b22287;}</style></defs><title>game_over1</title><rect class="cls-1" x="137" y="136.67" width="1051.4" height="730.33" rx="147.83"/><rect class="cls-2" x="192.51" y="104" width="1051.4" height="730.33" rx="147.83"/><path class="cls-3" d="M489.16,203.05V190.23h-8.93c-.79,0-1.36-.43-1.36-1.15s.57-1.15,1.36-1.15h16.49c.8,0,1.37.43,1.37,1.15s-.57,1.15-1.37,1.15H492v12.82c0,9.65-9.21,16.63-20.23,16.63-15.12,0-29.38-6.12-29.38-28.29,0-19.73,15-28.38,29.38-28.38a23.24,23.24,0,0,1,15.05,5.48v-3.17a1.3,1.3,0,1,1,2.59,0v14.76a1.3,1.3,0,1,1-2.59,0v-6.84c0-2.3-7-7.92-14.55-7.92-6,0-10.44,4.68-10.44,25.92,0,22.47,5.33,25.56,13.4,25.56C481.17,216.8,489.16,211.55,489.16,203.05Z"/><path class="cls-3" d="M527.61,164.31l21.67,51.77h4.9a1.21,1.21,0,0,1,1.37,1.16c0,.72-.58,1.15-1.37,1.15H523.72c-.79,0-1.37-.43-1.37-1.15a1.21,1.21,0,0,1,1.37-1.16h7.56L528,207.73H507.52l-3.38,8.35h6.76c.8,0,1.37.44,1.37,1.16s-.57,1.15-1.37,1.15H496.36c-.79,0-1.37-.43-1.37-1.15a1.21,1.21,0,0,1,1.37-1.16h4.9l21.67-51.77a2.38,2.38,0,0,1,2.38-1.58A2.49,2.49,0,0,1,527.61,164.31Zm-19.15,41.12h18.72L518,183Z"/><path class="cls-3" d="M607,217.24a1.2,1.2,0,0,1,1.36-1.16h6.48V173.17l-20.09,44.5a1.48,1.48,0,0,1-1.22.72,1.52,1.52,0,0,1-1.37-.65l-21.46-44.07v42.41h6.7a1.21,1.21,0,0,1,1.37,1.16c0,.72-.58,1.15-1.37,1.15H561.23c-.79,0-1.37-.43-1.37-1.15a1.21,1.21,0,0,1,1.37-1.16h6.55V166.69h-6.55c-.79,0-1.37-.44-1.37-1.15a1.21,1.21,0,0,1,1.37-1.16h22.32c1,0,1.51.22,1.87.94l15.77,31.18,14-31.11a1.6,1.6,0,0,1,1.44-1h22a1.21,1.21,0,0,1,1.37,1.16c0,.71-.58,1.15-1.37,1.15h-6.56v49.39h6.56a1.21,1.21,0,0,1,1.37,1.16c0,.72-.58,1.15-1.37,1.15H608.32C607.53,218.39,607,218,607,217.24Z"/><path class="cls-3" d="M671,188.87v27.21h19.51V205.71a1.38,1.38,0,1,1,2.74,0V217a1.25,1.25,0,0,1-1.37,1.37H647.13c-.8,0-1.37-.43-1.37-1.15s.57-1.16,1.37-1.16h6.55V166.69h-6.55c-.8,0-1.37-.44-1.37-1.15s.57-1.16,1.37-1.16h44.35a1.25,1.25,0,0,1,1.37,1.37v12a1.38,1.38,0,1,1-2.74,0V166.69H671v19.73h13.9a1.23,1.23,0,0,1,0,2.45Z"/><path class="cls-3" d="M778.82,191.24c0,17.07-12,28.23-25.85,28.23-14.26,0-28.66-7.78-28.66-28.23,0-19.51,14.54-28.23,28.66-28.23C766.87,163,778.82,174.18,778.82,191.24Zm-2.88,0c0-15.19-10.08-25.92-22.47-25.92-5.4,0-9.57,4.68-9.57,25.92,0,22.47,4.17,25.92,9.57,25.92C765.86,217.16,775.94,206.43,775.94,191.24Z"/><path class="cls-3" d="M838.87,164.38a1.21,1.21,0,0,1,1.37,1.16c0,.79-.58,1.15-1.37,1.15H833.4l-21.1,50.83c-.65,1.52-1.51,1.95-2.52,1.95a2.91,2.91,0,0,1-2.59-1.95L784.5,166.69H779c-.79,0-1.37-.36-1.37-1.15a1.21,1.21,0,0,1,1.37-1.16h32a1.21,1.21,0,0,1,1.37,1.16c0,.79-.58,1.15-1.37,1.15h-7.71l14.19,32.11,13.1-32.11h-6.76c-.8,0-1.37-.36-1.37-1.15s.57-1.16,1.37-1.16Z"/><path class="cls-3" d="M869.75,188.87v27.21h19.52V205.71a1.37,1.37,0,1,1,2.73,0V217a1.25,1.25,0,0,1-1.37,1.37H845.92c-.79,0-1.37-.43-1.37-1.15a1.21,1.21,0,0,1,1.37-1.16h6.55V166.69h-6.55c-.79,0-1.37-.44-1.37-1.15a1.21,1.21,0,0,1,1.37-1.16h44.35a1.25,1.25,0,0,1,1.37,1.37v12a1.37,1.37,0,1,1-2.73,0V166.69H869.75v19.73h13.9a1.23,1.23,0,0,1,0,2.45Z"/><path class="cls-3" d="M899.85,218.39c-.8,0-1.37-.43-1.37-1.15s.57-1.16,1.37-1.16h6.55V166.69h-6.55c-.8,0-1.37-.36-1.37-1.15s.57-1.16,1.37-1.16h27c14.33,0,23.69,6.56,23.69,19.59,0,10.22-6.7,16.7-15.2,18.79a14,14,0,0,1,4.61,3.82l3.53,4.46c2.31,2.88,4.54,4.9,8.43,4.9,1.65,0,2.23.43,2.23,1.22s-.58,1.23-2.31,1.23c-4.75,0-7.63-1.66-10.51-5.33l-3.67-4.68c-2.31-2.88-4.82-4.68-8.71-4.68-.72,0-1.44-.29-1.44-1.23s.72-1.22,1.51-1.22c11,0,18.58-6.84,18.58-17.43,0-11.95-7.92-17.13-20.81-17.13h-3.1v49.39h6.55c.79,0,1.37.36,1.37,1.16s-.58,1.15-1.37,1.15Z"/><path class="cls-3" d="M967.31,199.16c-2.38-6.84-5.4-19.58-5.4-26.86,0-5.83,3.46-9.29,7.7-9.29s7.71,3.46,7.71,9.29c0,7.28-3,20-5.4,26.86-.51,1.44-1.15,1.87-2.31,1.87S967.81,200.6,967.31,199.16Zm-4,13.9a6.23,6.23,0,1,1,6.26,6.19A6.27,6.27,0,0,1,963.35,213.06Z"/><path class="cls-3" d="M446.62,238.8h6.15v12.34h4V238.8H463v32H456.8V256.56h-4v14.26h-6.15Z"/><path class="cls-3" d="M483.49,262.81c0,4.22,0,6.62.05,8h-5.91a18.13,18.13,0,0,1-.19-2.21,4.87,4.87,0,0,1-4.8,2.6c-2.5,0-5-1.2-5-6.53V245.52h6.19v17.72c0,1.77.48,2.64,1.68,2.64s1.87-.87,1.87-3.31v-17h6.15Z"/><path class="cls-3" d="M488.24,253.11c0-4.51,0-6.63-.05-7.59h5.9a16.69,16.69,0,0,1,.2,2.16,5.19,5.19,0,0,1,4.75-2.54c3.36,0,5.13,2.21,5.13,6.58v19.1H498V253c0-1.73-.53-2.49-1.68-2.49-1.39,0-1.92.76-1.92,3.26v17h-6.19Z"/><path class="cls-3" d="M524.38,237.36v26.41c0,3.6,0,5.71,0,7.05h-5.86a22.67,22.67,0,0,1-.19-2.3,4.67,4.67,0,0,1-4.61,2.69c-4,0-5.32-3.08-5.32-8.07V252.72c0-4.17,1.48-7.58,5.76-7.58,1.63,0,3.31.48,4,1.82v-9.6Zm-9.79,25.78c0,1.73.43,2.74,1.78,2.74s1.82-1.3,1.82-3.46v-8.5c0-2.25-.24-3.4-1.78-3.4-1.34,0-1.82.91-1.82,2.68Z"/><path class="cls-3" d="M534.75,259.78v3.65c0,1.63.38,2.83,1.78,2.83s1.72-1.29,1.72-2.88v-.57h6v.33c0,3.41-1,8.07-7.72,8.07-6.49,0-7.88-3.7-7.88-8.88v-8.55c0-4.18,1.92-8.64,7.92-8.64,5.33,0,7.78,3.22,7.78,8.59v6Zm3.65-4.42v-2.44c0-2-.44-2.88-1.83-2.88-1.15,0-1.82.86-1.82,2.88v2.44Z"/><path class="cls-3" d="M548.38,253.11c0-4.51,0-6.63,0-7.59h5.91a18.58,18.58,0,0,1,.19,2.16,5.19,5.19,0,0,1,4.75-2.54c3.36,0,5.14,2.21,5.14,6.58v19.1h-6.15V253c0-1.73-.52-2.49-1.68-2.49-1.39,0-1.92.76-1.92,3.26v17h-6.19Z"/><path class="cls-3" d="M576.41,237.36h6.19v10.28a4.84,4.84,0,0,1,4.47-2.5c3.79,0,5.28,2.88,5.28,7.54v9.17c0,5.47-.91,9.36-5.86,9.36a4.21,4.21,0,0,1-4.17-2.55c0,.87-.1,1.59-.15,2.16h-5.81c.1-1.53,0-4.27,0-6.29Zm9.79,16.32c0-1.87-.24-3.16-1.72-3.16s-1.88,1.1-1.88,3.31v8.83c0,2.35.58,3.22,1.83,3.22,1.05,0,1.77-.82,1.77-3.31Z"/><path class="cls-3" d="M596.62,270.82V237.36h6.19v33.46Z"/><path class="cls-3" d="M613.18,259.78v3.65c0,1.63.38,2.83,1.78,2.83s1.72-1.29,1.72-2.88v-.57h6v.33c0,3.41-1,8.07-7.72,8.07-6.49,0-7.88-3.7-7.88-8.88v-8.55c0-4.18,1.92-8.64,7.92-8.64,5.33,0,7.78,3.22,7.78,8.59v6Zm3.65-4.42v-2.44c0-2-.44-2.88-1.83-2.88-1.15,0-1.82.86-1.82,2.88v2.44Z"/><path class="cls-3" d="M631.75,245.52c.72,5.33,1.69,13.88,2.17,18.73h.14c.38-5,1.63-13,2.35-18.73h6.15l-4.9,25.3H630l-4.9-25.3Z"/><path class="cls-3" d="M657.87,262.61v1.2c0,1.4.28,2.55,1.58,2.55.91,0,1.39-.58,1.39-1.92s-.33-2.35-3.31-4.27c-3.79-2.36-5.28-4.18-5.28-7.88,0-4.61,2.54-7.15,7.2-7.15,5.66,0,7.2,3.12,7.2,7.39v1.06H661V252.1c0-1.63-.44-2.16-1.4-2.16s-1.29.67-1.29,1.82.48,1.78,2.69,3.12c4.65,2.89,6,4.9,6,8.69,0,4.95-2.16,7.64-7.64,7.64-6.48,0-7.44-4-7.44-7.64v-1Z"/><path class="cls-3" d="M686.62,262.81c0,4.22,0,6.62,0,8h-5.91a18.13,18.13,0,0,1-.19-2.21,4.86,4.86,0,0,1-4.8,2.6c-2.5,0-5-1.2-5-6.53V245.52h6.19v17.72c0,1.77.48,2.64,1.68,2.64s1.87-.87,1.87-3.31v-17h6.15Z"/><path class="cls-3" d="M702.65,252.58c-3,0-5.09.53-5.09,4.85v13.39h-6.19v-16.7c0-4.32,0-6.39,0-8.6h5.86c.09.53.19,2.64.19,3.8a5.37,5.37,0,0,1,5.28-4.18Z"/><path class="cls-3" d="M728.81,253.44V263c0,5.57-3,8.26-8.06,8.26s-7.88-2.74-7.88-8.26V253.2c0-5.61,3.41-8.06,8-8.06C725.64,245.14,728.81,247.73,728.81,253.44Zm-9.79-.52v10.37c0,1.68.48,2.78,1.82,2.78s1.78-1.06,1.78-2.83V252.87c0-1.54-.34-2.59-1.78-2.59S719,251.24,719,252.92Z"/><path class="cls-3" d="M748.49,268.76c0,6.05-.58,10.66-8.35,10.66-5.91,0-7.54-3.41-7.54-6.77v-.15h6.14v.1a1.7,1.7,0,0,0,1.73,1.92c1.68,0,1.92-1.25,1.92-4V267.7a4.3,4.3,0,0,1-4.27,2.45c-4.56,0-5.57-3.55-5.57-7.78v-9.65c0-3.45,1.15-7.58,6-7.58,2.5,0,3.75,1.1,4.23,2.59a17.89,17.89,0,0,1,.24-2.21h5.61c0,1.64-.09,4-.09,7Zm-9.79-6.87c0,2,.48,3,1.72,3,1.49,0,1.88-1.06,1.88-3.5v-7.88c0-1.53-.15-3-1.68-3-1.2,0-1.92.76-1.92,2.68Z"/><path class="cls-3" d="M776,237.36v26.41c0,3.6,0,5.71.05,7.05h-5.86a22.67,22.67,0,0,1-.19-2.3,4.67,4.67,0,0,1-4.61,2.69c-4,0-5.33-3.08-5.33-8.07V252.72c0-4.17,1.49-7.58,5.76-7.58,1.64,0,3.32.48,4,1.82v-9.6Zm-9.79,25.78c0,1.73.43,2.74,1.77,2.74s1.83-1.3,1.83-3.46v-8.5c0-2.25-.24-3.4-1.78-3.4-1.34,0-1.82.91-1.82,2.68Z"/><path class="cls-3" d="M796.68,262.81c0,4.22,0,6.62.05,8h-5.91a18.13,18.13,0,0,1-.19-2.21,4.86,4.86,0,0,1-4.8,2.6c-2.5,0-5-1.2-5-6.53V245.52H787v17.72c0,1.77.48,2.64,1.68,2.64,1.35,0,1.88-.87,1.88-3.31v-17h6.14Z"/><path class="cls-3" d="M808.78,237.36H815v10.28a4.83,4.83,0,0,1,4.46-2.5c3.79,0,5.28,2.88,5.28,7.54v9.17c0,5.47-.91,9.36-5.85,9.36a4.23,4.23,0,0,1-4.18-2.55c0,.87-.1,1.59-.14,2.16h-5.81c.09-1.53,0-4.27,0-6.29Zm9.79,16.32c0-1.87-.24-3.16-1.73-3.16s-1.87,1.1-1.87,3.31v8.83c0,2.35.57,3.22,1.82,3.22,1.06,0,1.78-.82,1.78-3.31Z"/><path class="cls-3" d="M829,270.82V237.36h6.19v33.46Z"/><path class="cls-3" d="M845.54,259.78v3.65c0,1.63.39,2.83,1.78,2.83s1.73-1.29,1.73-2.88v-.57h6v.33c0,3.41-1.06,8.07-7.73,8.07-6.48,0-7.87-3.7-7.87-8.88v-8.55c0-4.18,1.92-8.64,7.92-8.64,5.32,0,7.77,3.22,7.77,8.59v6Zm3.65-4.42v-2.44c0-2-.43-2.88-1.82-2.88-1.16,0-1.83.86-1.83,2.88v2.44Z"/><path class="cls-3" d="M864.12,245.52c.72,5.33,1.68,13.88,2.16,18.73h.14c.39-5,1.63-13,2.35-18.73h6.15l-4.9,25.3h-7.63l-4.9-25.3Z"/><path class="cls-3" d="M885.33,237.36h6.2v10.28a4.82,4.82,0,0,1,4.46-2.5c3.79,0,5.28,2.88,5.28,7.54v9.17c0,5.47-.91,9.36-5.86,9.36a4.22,4.22,0,0,1-4.17-2.55c0,.87-.1,1.59-.15,2.16h-5.8c.09-1.53,0-4.27,0-6.29Zm9.8,16.32c0-1.87-.24-3.16-1.73-3.16s-1.87,1.1-1.87,3.31v8.83c0,2.35.57,3.22,1.82,3.22,1.06,0,1.78-.82,1.78-3.31Z"/><path class="cls-3" d="M905.54,245.52h6.19v25.3h-6.19Zm.05-8.16h6.14V243h-6.14Z"/><path class="cls-3" d="M931.94,237.36v26.41c0,3.6,0,5.71,0,7.05h-5.86a22.67,22.67,0,0,1-.19-2.3,4.67,4.67,0,0,1-4.61,2.69c-4,0-5.33-3.08-5.33-8.07V252.72c0-4.17,1.49-7.58,5.76-7.58,1.64,0,3.32.48,4,1.82v-9.6Zm-9.79,25.78c0,1.73.43,2.74,1.77,2.74,1.49,0,1.83-1.3,1.83-3.46v-8.5c0-2.25-.24-3.4-1.78-3.4-1.34,0-1.82.91-1.82,2.68Z"/><path class="cls-3" d="M935.3,245.52h2.54v-5.71h6.1v5.71h2.88V251h-2.88v13.15c0,1.15.14,1.82,1.58,1.82a4.23,4.23,0,0,0,1.11-.09v4.75a10.53,10.53,0,0,1-3.55.53c-3.7,0-5.33-1.35-5.33-5.76V251H935.3Z"/><path class="cls-3" d="M952.48,259.11,951.91,244V238.8h6.72v5l-.58,15.27Zm-.24,11.71v-7.53h6.1v7.53Z"/><path class="cls-3" d="M963.19,270.82v-7.77h6.09v7.77Z"/><path class="cls-3" d="M973.65,270.82v-7.77h6.1v7.77Z"/></svg>
