<svg id="Layer_1" data-name="Layer 1" xmlns="http://www.w3.org/2000/svg" width="157" height="131" viewBox="0 0 157 131"><defs><style>.cls-1{opacity:0.2;}.cls-2{fill:#b22287;}.cls-3{opacity:0.53;}.cls-4{fill:#fff;}</style></defs><title>hjerte</title><path class="cls-1" d="M138.5,43.5A30,30,0,0,0,83.75,26.55l-3.1,3.1L76.5,25.5a30,30,0,1,0-42,42l45.8,45.8.35-.35.2.2L126.5,67.5A29.93,29.93,0,0,0,138.5,43.5Z"/><path class="cls-2" d="M126.5,47.5A30,30,0,0,0,71.75,30.55l-3.1,3.1L64.5,29.5a30,30,0,1,0-42,42l45.8,45.8.35-.35.2.2L114.5,71.5A29.93,29.93,0,0,0,126.5,47.5Z"/><g class="cls-3"><path class="cls-4" d="M121.28,49.41c-1.29-5.55-2.84-11.48-8.14-15.34a36.08,36.08,0,0,0-6.85-3.58c-3.85-1.67-7.84-3.37-12.27-3.77a41,41,0,0,0-8.5.34c-2.3.26-4.91.72-6.06,2.28-1.7,2.31,1.27,5.09,4.53,5.86s6.89.47,10.05,1.43a19.31,19.31,0,0,1,3.77,1.72c5.13,2.85,10,6.47,11.58,11.18,1,3,1.16,6.82,4.77,8.24,2.86,1.12,6.77-.21,8.15-2.48s.45-5.09-1.76-6.86"/><path class="cls-4" d="M122.08,49.18c-.92-3.91-1.93-7.89-4.26-11.36s-6.15-5.78-10.33-7.63c-4.43-2-9-3.91-14-4.24a43.34,43.34,0,0,0-8.74.47A11.25,11.25,0,0,0,79.81,28c-2.75,1.95-1.62,4.92.82,6.58,4.15,2.82,10,1.38,14.59,3.33s9.6,5.38,12.13,9.36c1.93,3,1.6,7.2,4.34,9.83,2.58,2.49,7.1,2.32,9.92.12,3.41-2.64,2.35-6.76-.5-9.3-.75-.66-1.88.42-1.13,1.09,2.35,2.1,3.18,5.56,0,7.49-2.51,1.53-5.92,1.27-7.61-1-2.12-2.89-1.9-6.67-4.05-9.64-2.31-3.19-5.79-5.61-9.35-7.67a20.85,20.85,0,0,0-5.61-2.44,63.55,63.55,0,0,0-6.91-.82c-2.37-.29-6-1.12-6.56-3.56-.81-3.32,5.55-3.55,7.79-3.75a32.87,32.87,0,0,1,16.55,2.87c4.64,2,9.19,3.92,12,7.88,2.4,3.42,3.37,7.44,4.28,11.33.21.92,1.8.46,1.59-.46Z"/></g></svg>
