<svg id="Layer_1" data-name="Layer 1" xmlns="http://www.w3.org/2000/svg" width="72" height="68" viewBox="0 0 72 68"><defs><style>.cls-1{fill:#eaa663;}</style></defs><title>hor2</title><path class="cls-1" d="M34.43,9c.8-.26,6.42,14.36,2.68,26.62-.39,1.26-2.79,8.79-7.76,10.48-.64.22-4.24,1.45-6.15-1.61-1.81-2.89-1.37-8.44,0-12.1,2.69-7.19,8.25-5.15,10.7-12.1C35.82,14.84,33.94,9.17,34.43,9Z"/><path class="cls-1" d="M22.28,8.55c.71-.46,10,12.13,9.67,24.94,0,1.32-.35,9.22-4.69,12.17-.55.38-3.7,2.52-6.36.09-2.51-2.31-3.56-7.77-3.22-11.66.68-7.65,6.59-7.17,7.09-14.51C25.17,13.81,21.85,8.84,22.28,8.55Z"/><path class="cls-1" d="M44.48,17c.83.13-.79,15.7-9.69,24.93-.91,1-6.47,6.57-11.67,5.83-.66-.1-4.43-.64-4.75-4.23-.3-3.4,2.61-8.14,5.49-10.78,5.66-5.19,9.7-.85,15-5.93C43.07,22.8,44,16.89,44.48,17Z"/></svg>
