<svg id="Layer_1" data-name="Layer 1" xmlns="http://www.w3.org/2000/svg" width="375" height="362" viewBox="0 0 375 362"><defs><style>.cls-1{fill:#2b1906;}.cls-2{fill:#aa6811;}.cls-3{fill:#d39244;}.cls-4{fill:#ea9898;}.cls-5{fill:#efc3ab;}.cls-6{fill:#42210b;}.cls-7{fill:#fff;}</style></defs><title>hund</title><rect class="cls-1" x="84.88" y="164.36" width="10.75" height="49.19" rx="3.93" transform="translate(-102.16 106.34) rotate(-41.23)"/><path class="cls-1" d="M138.88,169.47A71.11,71.11,0,0,0,87.74,290h29.32c0-.09,0-.18,0-.26a14,14,0,0,0-13.33-14,35.41,35.41,0,0,1,69.7,0,14,14,0,0,0-13.91,14,2.35,2.35,0,0,0,0,.26H190a71.12,71.12,0,0,0-51.15-120.53Z"/><path class="cls-2" d="M144,290a46.81,46.81,0,1,1,91.2,0h22.39a94,94,0,1,0-135.19,0Z"/><path class="cls-3" d="M147.5,269.11a20.5,20.5,0,0,0-20.5,20.5c0,.13,0,.26,0,.39h41c0-.13,0-.26,0-.39A20.5,20.5,0,0,0,147.5,269.11Z"/><path class="cls-3" d="M250.5,269.11a20.5,20.5,0,0,0-20.5,20.5c0,.13,0,.26,0,.39h41c0-.13,0-.26,0-.39A20.5,20.5,0,0,0,250.5,269.11Z"/><ellipse class="cls-4" cx="191.48" cy="160.19" rx="27.48" ry="22.36"/><path class="cls-2" d="M247.58,141.55a60.09,60.09,0,1,0-110.34,0Z"/><path class="cls-5" d="M228.75,131.3l-.47,0v0H156.54v0l-.46,0a29.35,29.35,0,1,0,29.33,29.82h14a29.34,29.34,0,1,0,29.34-29.82Z"/><polygon class="cls-2" points="109.04 57.7 161.1 107.89 177.4 90.98 142.88 57.7 109.04 57.7"/><path class="cls-4" d="M108.71,57.7l-11,11.37a7.2,7.2,0,0,0,.19,10.19L105,86.07a7.2,7.2,0,0,0,10.19-.18L142.36,57.7Z"/><polygon class="cls-2" points="278.7 57.7 226.63 107.89 210.33 90.98 244.85 57.7 278.7 57.7"/><path class="cls-4" d="M279,57.7l11,11.37a7.21,7.21,0,0,1-.18,10.19l-7.07,6.81a7.2,7.2,0,0,1-10.19-.18L245.37,57.7Z"/><path class="cls-6" d="M179,134a13.2,13.2,0,0,0,26.39,0Z"/><path class="cls-7" d="M184.48,131V116.22h0c-.14-7.88-6-14.22-13.23-14.22s-13.09,6.34-13.23,14.22h0V131Z"/><circle cx="171.55" cy="119.97" r="6.62"/><path class="cls-7" d="M223.48,131V116.22h0c-.14-7.88-6-14.22-13.23-14.22s-13.09,6.34-13.23,14.22h0V131Z"/><circle cx="210.55" cy="119.97" r="6.62"/></svg>
