<svg id="Layer_1" data-name="Layer 1" xmlns="http://www.w3.org/2000/svg" width="162" height="146" viewBox="0 0 162 146"><defs><style>.cls-1,.cls-2{stroke:#000;stroke-miterlimit:10;stroke-width:0.5px;}.cls-1{opacity:0.27;}.cls-2{fill:#b3b3b3;}</style></defs><title>indstillinger</title><path class="cls-1" d="M113.55,84.48h12.83V73.8H113.52a33.1,33.1,0,0,0-2.36-7.92l9.11-5.5-5.76-9.55L105,56.55a36.06,36.06,0,0,0-4.84-4.39l5.69-9.81-9.65-5.59-5.8,10a36.06,36.06,0,0,0-6.91-2.13V33.34H72.36V44.25a33.05,33.05,0,0,0-7.85,2L57.72,35.05l-9.14,5.51,6.77,11.23-1.06.94a32.94,32.94,0,0,0-4.06,4.12L38.86,50.26,33.5,59.49l11.35,6.58c-.22.55-.4,1.11-.58,1.66a31.94,31.94,0,0,0-1.62,6.07H29.5V84.48H42.62a32.65,32.65,0,0,0,2.47,8.25L35.6,98.46,41.37,108l9.9-6a35.31,35.31,0,0,0,4.67,4.21L50,116.48l9.65,5.6L65.52,112a36.11,36.11,0,0,0,6.84,2.2V125.5H83.52V114.69A32.74,32.74,0,0,0,92,112.52l6.63,11,9.14-5.52-6.64-11a32.32,32.32,0,0,0,4-4.1c.36-.4.72-.8,1.06-1.22l11.09,6.43,5.36-9.23-11.12-6.45a33.12,33.12,0,0,0,1.62-5.94C113.31,85.81,113.44,85.15,113.55,84.48ZM88.23,73.38a12.48,12.48,0,0,1,1.34,9.9A12.24,12.24,0,0,1,78.08,91a12.81,12.81,0,0,1-4.44-.81,13.27,13.27,0,0,1-1.36-.68,12.66,12.66,0,0,1-3.45-2.94c-.24-.33-.47-.66-.69-1a12.16,12.16,0,0,1,1.39-14.67,12.48,12.48,0,0,1,8.55-3.34c.31,0,.61,0,.91,0a12.76,12.76,0,0,1,5.06,1.64c.29.17.56.35.83.54A12.86,12.86,0,0,1,88.23,73.38Z"/><path class="cls-2" d="M109.55,78.48h12.83V67.8H109.52a33.1,33.1,0,0,0-2.36-7.92l9.11-5.5-5.76-9.55L101,50.55a36.06,36.06,0,0,0-4.84-4.39l5.69-9.81-9.65-5.59-5.8,10a36.06,36.06,0,0,0-6.91-2.13V27.34H68.36V38.25a33.05,33.05,0,0,0-7.85,2L53.72,29.05l-9.14,5.51,6.77,11.23-1.06.94a32.94,32.94,0,0,0-4.06,4.12L34.86,44.26,29.5,53.49l11.35,6.58c-.22.55-.4,1.11-.58,1.66a31.94,31.94,0,0,0-1.62,6.07H25.5V78.48H38.62a32.65,32.65,0,0,0,2.47,8.25L31.6,92.46,37.37,102l9.9-6a35.31,35.31,0,0,0,4.67,4.21L46,110.48l9.65,5.6L61.52,106a36.11,36.11,0,0,0,6.84,2.2V119.5H79.52V108.69A32.74,32.74,0,0,0,88,106.52l6.63,11,9.14-5.52-6.64-11a32.32,32.32,0,0,0,4-4.1c.36-.4.72-.8,1.06-1.22l11.09,6.43,5.36-9.23-11.12-6.45a33.12,33.12,0,0,0,1.62-5.94C109.31,79.81,109.44,79.15,109.55,78.48ZM84.23,67.38a12.48,12.48,0,0,1,1.34,9.9A12.24,12.24,0,0,1,74.08,85a12.81,12.81,0,0,1-4.44-.81,13.27,13.27,0,0,1-1.36-.68,12.66,12.66,0,0,1-3.45-2.94c-.24-.33-.47-.66-.69-1a12.16,12.16,0,0,1,1.39-14.67,12.48,12.48,0,0,1,8.55-3.34c.31,0,.61,0,.91,0a12.76,12.76,0,0,1,5.06,1.64c.29.17.56.35.83.54A12.86,12.86,0,0,1,84.23,67.38Z"/></svg>
