<svg id="Layer_1" data-name="Layer 1" xmlns="http://www.w3.org/2000/svg" width="1144" height="747" viewBox="0 0 1144 747"><defs><style>.cls-1{opacity:0.2;}.cls-2{fill:#9ddff9;}.cls-3{fill:#b22287;}</style></defs><title>indstillinger_borad</title><rect class="cls-1" x="156.5" y="115.52" width="786" height="525.07" rx="147.83"/><rect class="cls-2" x="198" y="92.03" width="786" height="525.07" rx="147.83"/><path class="cls-3" d="M321.43,126.31v41.16h5.64c.66,0,1.14.36,1.14,1s-.48,1-1.14,1H301.39c-.66,0-1.14-.36-1.14-1s.48-1,1.14-1H307V126.31h-5.64c-.66,0-1.14-.36-1.14-1s.48-1,1.14-1h25.68c.66,0,1.14.36,1.14,1s-.48,1-1.14,1Z"/><path class="cls-3" d="M372.79,168.67,342,132.49v35h6.06c.66,0,1.14.36,1.14,1s-.48,1-1.14,1H334.15c-.66,0-1.14-.36-1.14-1s.48-1,1.14-1h5.46V126.31h-5.46c-.66,0-1.14-.36-1.14-1s.48-1,1.14-1h18.18a1.41,1.41,0,0,1,1.32.6l19.26,22.14V126.31h-5.58c-.66,0-1.14-.36-1.14-1s.48-1,1.14-1h13.43c.66,0,1.14.36,1.14,1s-.48,1-1.14,1H375.3v41.94a1,1,0,0,1-1.13,1.14A2.27,2.27,0,0,1,372.79,168.67Z"/><path class="cls-3" d="M387.25,167.47h5.46V126.31h-5.46c-.66,0-1.14-.3-1.14-1a1,1,0,0,1,1.14-1h25.26c12.53,0,21.65,8.34,21.65,22.2s-10.08,22.8-21.65,22.8H387.25a1,1,0,0,1-1.14-1C386.11,167.77,386.59,167.47,387.25,167.47Zm44.51-20.88c0-12.36-7.43-20.28-18.83-20.28h-5.82v41.16h5.82C423.37,167.47,431.76,158.83,431.76,146.59Z"/><path class="cls-3" d="M441.73,157.27c0,6.66,5.82,11.22,12.24,11.22,5.64,0,7.61-3.36,7.61-6.66,0-4.26-3.17-6.18-10.19-10.32-7.86-4.62-11.4-7.56-11.4-14.16,0-8.64,8-14.1,17.1-14.1,5.94,0,9.18,1.74,11.16,4.08v-2.22a1.08,1.08,0,0,1,2.16,0v11.64a1.08,1.08,0,1,1-2.16,0v-5.52c0-1.74-2.88-6.06-9.42-6.06-4,0-7.8,2-7.8,6.48,0,4.08,1.92,5.58,9.84,9.84,7.5,4,12.84,7.2,12.84,14.52,0,9.24-8.59,14.34-17.82,14.34-7.68,0-11.7-2.64-14.16-6.3v4.38a1.08,1.08,0,1,1-2.16,0V154.15a1.08,1.08,0,1,1,2.16,0Z"/><path class="cls-3" d="M521.1,125.53v10.8a1.08,1.08,0,1,1-2.16,0v-10H507.3v41.16h5.46c.66,0,1.14.36,1.14,1s-.48,1-1.14,1H487.45c-.66,0-1.14-.36-1.14-1s.48-1,1.14-1h5.46V126.31H481.27v10a1.08,1.08,0,1,1-2.16,0v-10.8a1.07,1.07,0,0,1,1.14-1.14H520A1.07,1.07,0,0,1,521.1,125.53Z"/><path class="cls-3" d="M547.08,126.31v41.16h5.64c.66,0,1.14.36,1.14,1s-.48,1-1.14,1H527.05c-.66,0-1.14-.36-1.14-1s.48-1,1.14-1h5.64V126.31h-5.64c-.66,0-1.14-.36-1.14-1s.48-1,1.14-1h25.67c.66,0,1.14.36,1.14,1s-.48,1-1.14,1Z"/><path class="cls-3" d="M579.67,126.31v41.16h15.65v-9.18a1.15,1.15,0,1,1,2.28,0v10a1,1,0,0,1-1.14,1.14H559.81c-.66,0-1.14-.36-1.14-1s.48-1,1.14-1h5.46V126.31h-5.46c-.66,0-1.14-.36-1.14-1s.48-1,1.14-1h25.31c.66,0,1.14.36,1.14,1s-.48,1-1.14,1Z"/><path class="cls-3" d="M622.8,126.31v41.16h15.66v-9.18a1.15,1.15,0,1,1,2.28,0v10a1,1,0,0,1-1.14,1.14H603c-.66,0-1.15-.36-1.15-1s.49-1,1.15-1h5.46V126.31H603c-.66,0-1.15-.36-1.15-1s.49-1,1.15-1h25.31c.66,0,1.14.36,1.14,1s-.48,1-1.14,1Z"/><path class="cls-3" d="M666.12,126.31v41.16h5.64c.66,0,1.14.36,1.14,1s-.48,1-1.14,1H646.08c-.66,0-1.13-.36-1.13-1s.47-1,1.13-1h5.64V126.31h-5.64c-.66,0-1.13-.36-1.13-1s.47-1,1.13-1h25.68c.66,0,1.14.36,1.14,1s-.48,1-1.14,1Z"/><path class="cls-3" d="M717.48,168.67,686.7,132.49v35h6.06c.66,0,1.14.36,1.14,1s-.48,1-1.14,1H678.84c-.66,0-1.13-.36-1.13-1s.47-1,1.13-1h5.46V126.31h-5.46c-.66,0-1.13-.36-1.13-1s.47-1,1.13-1H697a1.41,1.41,0,0,1,1.32.6l19.26,22.14V126.31H712c-.66,0-1.14-.36-1.14-1s.48-1,1.14-1h13.44c.66,0,1.14.36,1.14,1s-.48,1-1.14,1H720v41.94a1,1,0,0,1-1.14,1.14A2.27,2.27,0,0,1,717.48,168.67Z"/><path class="cls-3" d="M769.26,156.61V145.93h-7.44c-.66,0-1.14-.36-1.14-1s.48-1,1.14-1H775c.66,0,1.14.36,1.14,1s-.48,1-1.14,1h-3.3v10.68c0,8-7.68,13.86-16.86,13.86-12.6,0-24.48-5.1-24.48-23.58,0-16.44,12.48-23.64,24.48-23.64a19.38,19.38,0,0,1,12.54,4.56v-2.64a1.08,1.08,0,1,1,2.16,0v12.3a1.08,1.08,0,1,1-2.16,0v-5.7c0-1.92-5.82-6.6-12.12-6.6-5,0-8.7,3.9-8.7,21.6,0,18.72,4.44,21.3,11.16,21.3C762.6,168.07,769.26,163.69,769.26,156.61Z"/><path class="cls-3" d="M801,144.79v22.68h16.26v-8.64a1.15,1.15,0,1,1,2.28,0v9.42a1,1,0,0,1-1.14,1.14H781.14c-.66,0-1.14-.36-1.14-1s.48-1,1.14-1h5.46V126.31h-5.46c-.66,0-1.14-.36-1.14-1s.48-1,1.14-1h37a1,1,0,0,1,1.14,1.14v10a1.15,1.15,0,1,1-2.28,0v-9.24H801v16.44h11.58a1,1,0,0,1,0,2Z"/><path class="cls-3" d="M826.08,169.39c-.66,0-1.14-.36-1.14-1s.48-1,1.14-1h5.46V126.31h-5.46c-.66,0-1.14-.3-1.14-1s.48-1,1.14-1h22.5c11.94,0,19.74,5.46,19.74,16.32,0,8.52-5.58,13.92-12.66,15.66a11.73,11.73,0,0,1,3.84,3.18l2.94,3.72c1.92,2.4,3.78,4.08,7,4.08,1.38,0,1.86.36,1.86,1s-.48,1-1.92,1c-4,0-6.36-1.38-8.76-4.44l-3.06-3.9c-1.92-2.4-4-3.9-7.26-3.9-.6,0-1.2-.24-1.2-1s.6-1,1.26-1c9.18,0,15.48-5.7,15.48-14.52,0-10-6.6-14.28-17.34-14.28h-2.58v41.16h5.46c.66,0,1.14.3,1.14,1s-.48,1-1.14,1Z"/></svg>
