<svg id="Layer_1" data-name="Layer 1" xmlns="http://www.w3.org/2000/svg" width="860" height="610" viewBox="0 0 860 610"><defs><style>.cls-1{opacity:0.2;}.cls-2{fill:#56cacc;}.cls-3{fill:#ffdf31;stroke:#ff17b9;stroke-miterlimit:10;}</style></defs><title>info</title><rect class="cls-1" x="16.5" y="54.52" width="786" height="525.07" rx="147.83"/><rect class="cls-2" x="58" y="31.03" width="786" height="525.07" rx="147.83"/><path class="cls-3" d="M151.17,133.5h9.08v18.24h6V133.5h9.16v47.35h-9.16V159.77h-6v21.08h-9.08Z"/><path class="cls-3" d="M205.69,169c0,6.24,0,9.79.07,11.85H197a25.61,25.61,0,0,1-.28-3.26c-1.64,3-4.19,3.83-7.1,3.83-3.69,0-7.46-1.77-7.46-9.65V143.44h9.16v26.2c0,2.62.71,3.9,2.49,3.9,2,0,2.77-1.28,2.77-4.9v-25.2h9.08Z"/><path class="cls-3" d="M220,168.71v1.78c0,2.06.43,3.76,2.35,3.76,1.35,0,2.06-.85,2.06-2.84s-.5-3.48-4.9-6.32c-5.61-3.48-7.81-6.18-7.81-11.64,0-6.82,3.76-10.58,10.65-10.58,8.38,0,10.65,4.61,10.65,10.93v1.56h-8.38v-2.2c0-2.41-.64-3.19-2.06-3.19s-1.92,1-1.92,2.7.71,2.62,4,4.61c6.89,4.26,8.95,7.24,8.95,12.85,0,7.32-3.2,11.29-11.29,11.29-9.59,0-11-5.89-11-11.29v-1.42Z"/><path class="cls-3" d="M248,159h.21c1.42-4.26,4-11.36,5.4-15.55h9.44c-2.13,5-4.47,9.79-6.32,13.77.57,2.7,6.25,20.8,6.82,23.64h-9.8c-.21-1.49-3.27-13.7-3.41-15-.71,1.56-1.84,3.91-2.34,4.9v10.08h-9V131.37h9Z"/><path class="cls-3" d="M300.12,172.33c0,3.34.07,6.89.22,8.52h-8.45a20.08,20.08,0,0,1-.57-2.77,6.84,6.84,0,0,1-6.39,3.34c-5.68,0-7.95-5.25-7.95-11v-.71c0-9.52,6.46-11.86,13.42-11.86H291v-4.33c0-2.56-.36-3.69-2.06-3.69s-2.06,1.27-2.06,3.48v.85h-8.81v-.57c0-6.53,3-10.72,11.22-10.72,7.38,0,10.79,3.55,10.79,10.08Zm-9-8.09h-.86c-2.69,0-4.47,1.21-4.47,5.11v.5c0,2.55.85,3.9,2.63,3.9s2.7-1.27,2.7-5.11Z"/><path class="cls-3" d="M304.52,143.44h3.77V135h9v8.45h4.26v8.09H317.3V171c0,1.71.22,2.7,2.35,2.7a5.93,5.93,0,0,0,1.63-.14v7a15.43,15.43,0,0,1-5.25.78c-5.47,0-7.89-2-7.89-8.52v-21.3h-3.62Z"/><path class="cls-3" d="M360.47,131.37v39c0,5.32,0,8.45.07,10.43h-8.66a31.67,31.67,0,0,1-.28-3.4c-1.42,2.62-3.34,4-6.82,4-6,0-7.88-4.54-7.88-11.93v-15.4c0-6.18,2.2-11.22,8.52-11.22,2.41,0,4.9.71,5.89,2.7v-14.2ZM346,169.49c0,2.56.64,4,2.62,4,2.21,0,2.7-1.92,2.7-5.11V155.86c0-3.34-.35-5-2.62-5-2,0-2.7,1.35-2.7,4Z"/><path class="cls-3" d="M391,169c0,6.24,0,9.79.07,11.85h-8.73a25.63,25.63,0,0,1-.29-3.26c-1.63,3-4.18,3.83-7.09,3.83-3.7,0-7.46-1.77-7.46-9.65V143.44h9.16v26.2c0,2.62.71,3.9,2.48,3.9,2,0,2.77-1.28,2.77-4.9v-25.2H391Z"/><path class="cls-3" d="M417.91,159h.21c1.42-4.26,4-11.36,5.4-15.55H433c-2.13,5-4.47,9.79-6.32,13.77.57,2.7,6.25,20.8,6.82,23.64h-9.8c-.21-1.49-3.27-13.7-3.41-15-.71,1.56-1.84,3.91-2.34,4.9v10.08h-9V131.37h9Z"/><path class="cls-3" d="M460.72,169c0,6.24,0,9.79.07,11.85h-8.73a25.61,25.61,0,0,1-.28-3.26c-1.64,3-4.19,3.83-7.1,3.83-3.7,0-7.46-1.77-7.46-9.65V143.44h9.16v26.2c0,2.62.71,3.9,2.49,3.9,2,0,2.76-1.28,2.76-4.9v-25.2h9.09Z"/><path class="cls-3" d="M467.75,154.65c0-6.67,0-9.79-.07-11.21h8.73a25.71,25.71,0,0,1,.29,3.19,7.68,7.68,0,0,1,7-3.76c5,0,7.59,3.26,7.59,9.73v28.25h-9.09V154.51c0-2.55-.78-3.69-2.48-3.69-2.06,0-2.84,1.14-2.84,4.83v25.2h-9.16Z"/><path class="cls-3" d="M518.23,159h.21c1.42-4.26,4-11.36,5.4-15.55h9.44c-2.13,5-4.47,9.79-6.32,13.77.57,2.7,6.25,20.8,6.82,23.64H524c-.21-1.49-3.27-13.7-3.41-15-.71,1.56-1.84,3.91-2.34,4.9v10.08h-9V131.37h9Z"/><path class="cls-3" d="M560.26,172.33c0,3.34.07,6.89.21,8.52H552a20.08,20.08,0,0,1-.57-2.77,6.84,6.84,0,0,1-6.39,3.34c-5.68,0-8-5.25-8-11v-.71c0-9.52,6.46-11.86,13.41-11.86h.64v-4.33c0-2.56-.35-3.69-2.06-3.69s-2.06,1.27-2.06,3.48v.85h-8.8v-.57c0-6.53,3-10.72,11.22-10.72,7.38,0,10.79,3.55,10.79,10.08Zm-9-8.09h-.85c-2.7,0-4.47,1.21-4.47,5.11v.5c0,2.55.85,3.9,2.63,3.9s2.69-1.27,2.69-5.11Z"/><path class="cls-3" d="M567.36,154.65c0-6.67,0-9.79-.07-11.21H576a25.71,25.71,0,0,1,.29,3.19,7.68,7.68,0,0,1,7-3.76c5,0,7.6,3.26,7.6,9.73v28.25h-9.09V154.51c0-2.55-.78-3.69-2.48-3.69-2.06,0-2.84,1.14-2.84,4.83v25.2h-9.16Z"/><path class="cls-3" d="M617.84,159h.21c1.42-4.26,4-11.36,5.4-15.55h9.44c-2.13,5-4.47,9.79-6.32,13.77.57,2.7,6.25,20.8,6.82,23.64h-9.8c-.21-1.49-3.27-13.7-3.41-15-.71,1.56-1.85,3.91-2.34,4.9v10.08h-9V131.37h9Z"/><path class="cls-3" d="M637.5,180.85V131.37h9.16v49.48Z"/><path class="cls-3" d="M653.69,143.44h9.16v37.41h-9.16Zm.07-12.07h9.09v8.3h-9.09Z"/><path class="cls-3" d="M669.88,154.16c0-5,0-8.81-.07-10.72h8.73a35,35,0,0,1,.36,3.55,7.27,7.27,0,0,1,7-4.12c5.19,0,7.6,3.55,7.6,10.51v16.26c0,7.66-2.27,11.78-8.59,11.78a6.4,6.4,0,0,1-5.82-3V193h-9.16ZM679,168.57c0,3.12.57,5,2.55,5s2.77-1.49,2.77-4.33V154.65c0-2.55-.78-3.9-2.48-3.9s-2.84,1.06-2.84,4.54Z"/><path class="cls-3" d="M699.77,154.16c0-5,0-8.81-.07-10.72h8.73a35,35,0,0,1,.36,3.55,7.27,7.27,0,0,1,7-4.12c5.19,0,7.6,3.55,7.6,10.51v16.26c0,7.66-2.27,11.78-8.59,11.78a6.4,6.4,0,0,1-5.82-3V193h-9.16Zm9.16,14.41c0,3.12.57,5,2.55,5s2.77-1.49,2.77-4.33V154.65c0-2.55-.78-3.9-2.48-3.9s-2.84,1.06-2.84,4.54Z"/><path class="cls-3" d="M738.18,164.52v5.4c0,2.41.57,4.19,2.62,4.19,2.21,0,2.56-1.92,2.56-4.26V169h8.88v.49c0,5-1.57,11.93-11.44,11.93-9.58,0-11.64-5.47-11.64-13.13V155.65c0-6.18,2.84-12.78,11.72-12.78,7.88,0,11.5,4.76,11.5,12.71v8.94Zm5.39-6.53v-3.62c0-2.91-.64-4.26-2.69-4.26-1.71,0-2.7,1.28-2.7,4.26V158Z"/><path class="cls-3" d="M182.12,216.57h9.16v15c1.28-2.06,3.48-3.48,6.89-3.48,5.82,0,7.59,4.19,7.59,9.58v28.4H196.6V239.93c0-2.28-.42-3.91-2.55-3.91s-2.77,1.21-2.77,4.76v25.27h-9.16Z"/><path class="cls-3" d="M236.29,254.2c0,6.24,0,9.79.07,11.85h-8.73a25.61,25.61,0,0,1-.28-3.26c-1.64,3-4.19,3.83-7.1,3.83-3.7,0-7.46-1.77-7.46-9.65V228.64H222v26.2c0,2.62.71,3.9,2.49,3.9,2,0,2.77-1.28,2.77-4.9v-25.2h9.08Z"/><path class="cls-3" d="M243.32,239.85c0-6.67,0-9.79-.07-11.21H252a25.71,25.71,0,0,1,.29,3.19,7.68,7.68,0,0,1,7-3.76c5,0,7.59,3.26,7.59,9.73v28.25h-9.08V239.71c0-2.55-.79-3.69-2.49-3.69-2.06,0-2.84,1.14-2.84,4.83v25.2h-9.16Z"/><path class="cls-3" d="M296.78,216.57v39.05c0,5.32,0,8.45.08,10.43h-8.67a31.67,31.67,0,0,1-.28-3.4c-1.42,2.62-3.34,4-6.82,4-6,0-7.88-4.54-7.88-11.93v-15.4c0-6.18,2.2-11.22,8.52-11.22,2.42,0,4.9.71,5.89,2.7v-14.2ZM282.3,254.69c0,2.56.64,4.05,2.63,4.05,2.2,0,2.69-1.92,2.69-5.11V241.06c0-3.34-.35-5-2.62-5-2,0-2.7,1.35-2.7,4Z"/><path class="cls-3" d="M312.12,249.72v5.4c0,2.41.57,4.19,2.63,4.19s2.55-1.92,2.55-4.26v-.85h8.88v.49c0,5-1.56,11.93-11.43,11.93-9.59,0-11.65-5.47-11.65-13.13V240.85c0-6.18,2.84-12.78,11.72-12.78,7.88,0,11.5,4.76,11.5,12.71v8.94Zm5.4-6.53v-3.62c0-2.91-.64-4.26-2.7-4.26-1.71,0-2.7,1.28-2.7,4.26v3.62Z"/><path class="cls-3" d="M332.28,239.85c0-6.67,0-9.79-.07-11.21H341a25.65,25.65,0,0,1,.28,3.19,7.68,7.68,0,0,1,7-3.76c5,0,7.6,3.26,7.6,9.73v28.25h-9.09V239.71c0-2.55-.78-3.69-2.49-3.69-2.06,0-2.84,1.14-2.84,4.83v25.2h-9.16Z"/><path class="cls-3" d="M373.18,232.68v-2.06c0-5.53,1.91-11.28,10.86-11.28,7.67,0,10.79,4.33,10.79,11.07v1.71c0,5.32-2.06,7.81-4.75,8.87v.14c3,1.07,5.68,3.48,5.68,9.16V254c0,7.74-3,12.64-11.79,12.64-8.59,0-11.29-4.9-11.29-11.43v-1.77H381v1.91c0,2.2.57,4.12,2.91,4.12s2.84-2,2.84-4.4v-4.76c0-3.76-1.14-5.18-4.69-5.18h-2.48v-7.46h2.62c2.92,0,4-1.06,4-4.61v-2.7c0-2.2-.35-4-2.41-4s-2.56,1.64-2.56,3.77v2.55Z"/><path class="cls-3" d="M435.66,263c0,8.95-.86,15.76-12.36,15.76-8.73,0-11.14-5-11.14-10v-.21h9.08v.14a2.51,2.51,0,0,0,2.56,2.84c2.49,0,2.84-1.85,2.84-5.89v-4.19c-1.07,2.41-3.34,3.62-6.32,3.62-6.74,0-8.24-5.25-8.24-11.5V239.29c0-5.12,1.71-11.22,8.81-11.22,3.69,0,5.54,1.63,6.25,3.83a27,27,0,0,1,.35-3.26h8.31c-.07,2.41-.14,6-.14,10.36Zm-14.49-10.15c0,3,.71,4.4,2.56,4.4,2.2,0,2.77-1.56,2.77-5.18V240.42c0-2.27-.21-4.4-2.49-4.4-1.77,0-2.84,1.14-2.84,4Z"/><path class="cls-3" d="M464.41,257.53c0,3.34.07,6.89.21,8.52h-8.44a20.08,20.08,0,0,1-.57-2.77,6.84,6.84,0,0,1-6.39,3.34c-5.68,0-8-5.25-8-11v-.71c0-9.52,6.46-11.86,13.42-11.86h.63v-4.33c0-2.56-.35-3.69-2.05-3.69s-2.06,1.27-2.06,3.48v.85H442.4v-.57c0-6.53,3-10.72,11.22-10.72,7.38,0,10.79,3.55,10.79,10.08Zm-9-8.09h-.85c-2.69,0-4.47,1.21-4.47,5.11v.5c0,2.55.85,3.9,2.63,3.9s2.69-1.27,2.69-5.11Z"/><path class="cls-3" d="M471.51,239.85c0-6.67,0-9.79-.07-11.21h8.73a23.93,23.93,0,0,1,.29,3.19,7.68,7.68,0,0,1,7-3.76c5,0,7.59,3.26,7.59,9.73v28.25H486V239.71c0-2.55-.79-3.69-2.49-3.69-2.06,0-2.84,1.14-2.84,4.83v25.2h-9.16Z"/><path class="cls-3" d="M525,263c0,8.95-.85,15.76-12.35,15.76-8.73,0-11.15-5-11.15-10v-.21h9.09v.14a2.51,2.51,0,0,0,2.56,2.84c2.48,0,2.84-1.85,2.84-5.89v-4.19c-1.07,2.41-3.34,3.62-6.32,3.62-6.75,0-8.24-5.25-8.24-11.5V239.29c0-5.12,1.71-11.22,8.81-11.22,3.69,0,5.53,1.63,6.24,3.83a28.89,28.89,0,0,1,.36-3.26h8.31c-.08,2.41-.15,6-.15,10.36Zm-14.48-10.15c0,3,.71,4.4,2.56,4.4,2.2,0,2.77-1.56,2.77-5.18V240.42c0-2.27-.22-4.4-2.49-4.4-1.77,0-2.84,1.14-2.84,4Z"/><path class="cls-3" d="M540.31,249.72v5.4c0,2.41.57,4.19,2.63,4.19s2.55-1.92,2.55-4.26v-.85h8.88v.49c0,5-1.56,11.93-11.43,11.93-9.59,0-11.65-5.47-11.65-13.13V240.85c0-6.18,2.84-12.78,11.72-12.78,7.88,0,11.5,4.76,11.5,12.71v8.94Zm5.4-6.53v-3.62c0-2.91-.64-4.26-2.7-4.26-1.71,0-2.7,1.28-2.7,4.26v3.62Z"/><path class="cls-3" d="M571.34,228.64h9.16v37.41h-9.16Zm.07-12.07h9.09v8.3h-9.09Z"/><path class="cls-3" d="M595.69,228.64h3.76v-8.45h9v8.45h4.26v8.09h-4.26v19.45c0,1.71.21,2.7,2.34,2.7a5.86,5.86,0,0,0,1.63-.14v7a15.43,15.43,0,0,1-5.25.78c-5.47,0-7.88-2-7.88-8.52v-21.3h-3.62Z"/><path class="cls-3" d="M634.59,239.07c-4.4,0-7.52.78-7.52,7.17v19.81h-9.16v-24.7c0-6.39,0-9.45-.07-12.71h8.66a55.19,55.19,0,0,1,.29,5.61c1.34-4.34,4.33-6.11,7.8-6.18Z"/><path class="cls-3" d="M638.07,255.4v-.21c0-8.73,5.68-11.79,12.5-11.79h1.56v-4.89c0-2.28-.42-3.48-2.2-3.48s-2.06,1.63-2.06,3.4v1.64h-8.73v-.93c0-6.74,2.7-11.07,10.51-11.07,3.76,0,6.31.92,7.45,2.55a9.8,9.8,0,0,1,7.17-2.55c7.74,0,10.72,4.83,10.72,12.21v9.44H660.93v5.47c0,2.84.93,4.12,2.49,4.12,2.06,0,2.34-1.85,2.41-4.19v-1.07h9v.57c0,6.25-1.77,12-11.36,12-5.32,0-7.45-1.77-8.8-3.69a9.43,9.43,0,0,1-8,3.69C640.56,266.62,638.07,261.37,638.07,255.4Zm14.13-5.68h-1.06c-2.77,0-4.26,1.42-4.26,4.76v.36c0,2.84,1.06,4,2.77,4,1.91,0,2.55-1.84,2.55-5.32Zm13.85-6.32v-3.47c0-3.34-.5-4.76-2.49-4.76s-2.63,1.13-2.63,4.83v3.4Z"/><path class="cls-3" d="M690,244.19h.22c1.42-4.26,4-11.36,5.39-15.55h9.45c-2.13,5-4.48,9.79-6.32,13.77.56,2.7,6.25,20.8,6.81,23.64h-9.8c-.21-1.49-3.26-13.7-3.4-15-.71,1.56-1.85,3.91-2.35,4.9v10.08h-9V216.57h9Z"/><path class="cls-3" d="M708.72,272.51a57,57,0,0,0,3.69-18h8.45c-.21,6.18-2.7,13.92-5.47,18Z"/><path class="cls-3" d="M142.72,334.92v5.4c0,2.41.57,4.19,2.62,4.19s2.56-1.92,2.56-4.26v-.85h8.88v.49c0,5-1.57,11.93-11.44,11.93-9.58,0-11.64-5.47-11.64-13.13V326.05c0-6.18,2.84-12.78,11.72-12.78,7.88,0,11.5,4.76,11.5,12.71v8.94Zm5.39-6.53v-3.62c0-2.91-.64-4.26-2.69-4.26-1.71,0-2.7,1.28-2.7,4.26v3.62Z"/><path class="cls-3" d="M162.88,351.25V301.77H172v49.48Z"/><path class="cls-3" d="M179.07,351.25V301.77h9.16v49.48Z"/><path class="cls-3" d="M203.56,334.92v5.4c0,2.41.57,4.19,2.63,4.19s2.55-1.92,2.55-4.26v-.85h8.88v.49c0,5-1.56,11.93-11.43,11.93-9.59,0-11.65-5.47-11.65-13.13V326.05c0-6.18,2.84-12.78,11.72-12.78,7.88,0,11.5,4.76,11.5,12.71v8.94Zm5.4-6.53v-3.62c0-2.91-.64-4.26-2.7-4.26-1.7,0-2.7,1.28-2.7,4.26v3.62Z"/><path class="cls-3" d="M240.41,324.27c-4.4,0-7.53.78-7.53,7.17v19.81h-9.16v-24.7c0-6.39,0-9.45-.07-12.71h8.67a55.67,55.67,0,0,1,.28,5.61c1.35-4.34,4.33-6.11,7.81-6.18Z"/><path class="cls-3" d="M253.4,339.11v1.78c0,2.06.43,3.76,2.35,3.76,1.34,0,2.05-.85,2.05-2.84s-.49-3.48-4.89-6.32c-5.61-3.48-7.81-6.18-7.81-11.64,0-6.82,3.76-10.58,10.65-10.58,8.37,0,10.64,4.61,10.64,10.93v1.56H258v-2.2c0-2.41-.64-3.19-2.06-3.19s-1.92,1-1.92,2.7.71,2.62,4,4.61c6.88,4.26,8.94,7.24,8.94,12.85,0,7.31-3.19,11.29-11.29,11.29-9.58,0-11-5.89-11-11.29v-1.42Z"/><path class="cls-3" d="M283.65,301.77h9.15V317a7.17,7.17,0,0,1,6.61-3.69c5.61,0,7.81,4.26,7.81,11.15V338c0,8.09-1.35,13.84-8.66,13.84a6.26,6.26,0,0,1-6.18-3.76c0,1.28-.14,2.34-.21,3.19h-8.59c.14-2.27.07-6.32.07-9.3Zm14.48,24.14c0-2.77-.35-4.69-2.56-4.69s-2.77,1.63-2.77,4.9v13.06c0,3.48.86,4.76,2.7,4.76,1.57,0,2.63-1.21,2.63-4.9Z"/><path class="cls-3" d="M313.54,351.25V301.77h9.16v49.48Z"/><path class="cls-3" d="M329.72,313.84h9.16v37.41h-9.16Zm.07-12.07h9.09v8.3h-9.09Z"/><path class="cls-3" d="M353.44,313.84c1.06,7.88,2.48,20.51,3.19,27.69h.21c.57-7.46,2.42-19.24,3.48-27.69h9.09l-7.24,37.41H350.88l-7.24-37.41Z"/><path class="cls-3" d="M382.26,334.92v5.4c0,2.41.57,4.19,2.63,4.19s2.55-1.92,2.55-4.26v-.85h8.88v.49c0,5-1.56,11.93-11.43,11.93-9.59,0-11.65-5.47-11.65-13.13V326.05c0-6.18,2.84-12.78,11.72-12.78,7.88,0,11.5,4.76,11.5,12.71v8.94Zm5.4-6.53v-3.62c0-2.91-.64-4.26-2.7-4.26-1.7,0-2.7,1.28-2.7,4.26v3.62Z"/><path class="cls-3" d="M419.11,324.27c-4.4,0-7.53.78-7.53,7.17v19.81h-9.16v-24.7c0-6.39,0-9.45-.07-12.71H411a55.67,55.67,0,0,1,.28,5.61c1.35-4.34,4.33-6.11,7.81-6.18Z"/><path class="cls-3" d="M434.94,301.77h9.16v15c1.28-2.06,3.48-3.48,6.89-3.48,5.82,0,7.59,4.19,7.59,9.58v28.4h-9.15V325.12c0-2.27-.43-3.9-2.56-3.9s-2.77,1.21-2.77,4.76v25.27h-9.16Z"/><path class="cls-3" d="M489.12,339.4c0,6.24,0,9.79.07,11.85h-8.74a25.61,25.61,0,0,1-.28-3.26c-1.63,3.05-4.19,3.83-7.1,3.83-3.69,0-7.46-1.77-7.46-9.65V313.84h9.16V340c0,2.62.71,3.9,2.49,3.9,2,0,2.77-1.28,2.77-4.9v-25.2h9.09Z"/><path class="cls-3" d="M496.14,325.05c0-6.67,0-9.79-.07-11.21h8.74a25.65,25.65,0,0,1,.28,3.19,7.69,7.69,0,0,1,7-3.76c5,0,7.6,3.26,7.6,9.73v28.25h-9.09V324.91c0-2.55-.78-3.69-2.49-3.69-2.06,0-2.84,1.14-2.84,4.83v25.2h-9.16Z"/><path class="cls-3" d="M549.61,301.77v39.05c0,5.32,0,8.45.07,10.43H541a31.64,31.64,0,0,1-.28-3.41,6.89,6.89,0,0,1-6.81,4c-6,0-7.89-4.54-7.89-11.93v-15.4c0-6.18,2.21-11.22,8.52-11.22,2.42,0,4.9.71,5.9,2.7v-14.2Zm-14.49,38.12c0,2.56.64,4.05,2.63,4.05,2.2,0,2.7-1.92,2.7-5.11V326.26c0-3.34-.36-5-2.63-5-2,0-2.7,1.35-2.7,4Z"/><path class="cls-3" d="M564.94,334.92v5.4c0,2.41.57,4.19,2.63,4.19s2.56-1.92,2.56-4.26v-.85H579v.49c0,5-1.56,11.93-11.43,11.93-9.59,0-11.64-5.47-11.64-13.13V326.05c0-6.18,2.84-12.78,11.71-12.78,7.88,0,11.5,4.76,11.5,12.71v8.94Zm5.4-6.53v-3.62c0-2.91-.64-4.26-2.7-4.26-1.7,0-2.7,1.28-2.7,4.26v3.62Z"/><path class="cls-3" d="M585.11,325.05c0-6.67,0-9.79-.08-11.21h8.74a25.65,25.65,0,0,1,.28,3.19,7.71,7.71,0,0,1,7-3.76c5,0,7.6,3.26,7.6,9.73v28.25h-9.09V324.91c0-2.55-.78-3.69-2.49-3.69-2.06,0-2.84,1.14-2.84,4.83v25.2h-9.15Z"/><path class="cls-3" d="M633.81,339.11v1.78c0,2.06.43,3.76,2.34,3.76,1.35,0,2.06-.85,2.06-2.84s-.5-3.48-4.9-6.32c-5.61-3.48-7.81-6.18-7.81-11.64,0-6.82,3.77-10.58,10.65-10.58,8.38,0,10.65,4.61,10.65,10.93v1.56h-8.38v-2.2c0-2.41-.63-3.19-2-3.19s-1.92,1-1.92,2.7.71,2.62,4,4.61c6.89,4.26,9,7.24,9,12.85,0,7.31-3.19,11.29-11.29,11.29-9.58,0-11-5.89-11-11.29v-1.42Z"/><path class="cls-3" d="M676.34,339.4c0,6.24,0,9.79.07,11.85h-8.73a25.63,25.63,0,0,1-.29-3.26c-1.63,3.05-4.19,3.83-7.1,3.83-3.69,0-7.45-1.77-7.45-9.65V313.84H662V340c0,2.62.71,3.9,2.48,3.9,2,0,2.77-1.28,2.77-4.9v-25.2h9.09Z"/><path class="cls-3" d="M700.05,324.27c-4.4,0-7.52.78-7.52,7.17v19.81h-9.16v-24.7c0-6.39,0-9.45-.07-12.71H692a55.67,55.67,0,0,1,.28,5.61c1.35-4.34,4.33-6.11,7.81-6.18Z"/><path class="cls-3" d="M738.75,325.55v14.06c0,8.23-4.41,12.21-11.93,12.21s-11.65-4.05-11.65-12.21V325.2c0-8.31,5.05-11.93,11.79-11.93C734.06,313.27,738.75,317.1,738.75,325.55Zm-14.49-.78v15.34c0,2.48.71,4.11,2.7,4.11s2.63-1.56,2.63-4.18V324.7c0-2.27-.5-3.83-2.63-3.83C725,320.87,724.26,322.29,724.26,324.77Z"/><path class="cls-3" d="M767.86,348.2c0,8.95-.86,15.76-12.36,15.76-8.73,0-11.14-5-11.14-10v-.21h9.08v.14a2.51,2.51,0,0,0,2.56,2.84c2.49,0,2.84-1.85,2.84-5.89v-4.19c-1.06,2.41-3.34,3.62-6.32,3.62-6.74,0-8.23-5.26-8.23-11.5V324.49c0-5.12,1.7-11.22,8.8-11.22,3.69,0,5.54,1.63,6.25,3.83a27,27,0,0,1,.35-3.26H768c-.07,2.41-.14,6-.14,10.36Zm-14.49-10.15c0,3,.71,4.4,2.56,4.4,2.2,0,2.77-1.56,2.77-5.18V325.62c0-2.27-.21-4.4-2.49-4.4-1.77,0-2.84,1.14-2.84,4Z"/><path class="cls-3" d="M382.27,387h9.15v15.19a7.17,7.17,0,0,1,6.61-3.69c5.61,0,7.81,4.26,7.81,11.15v13.56c0,8.09-1.35,13.84-8.67,13.84a6.24,6.24,0,0,1-6.17-3.76c0,1.28-.14,2.34-.21,3.19h-8.6c.15-2.27.08-6.32.08-9.3Zm14.48,24.14c0-2.77-.36-4.69-2.56-4.69s-2.77,1.63-2.77,4.9v13.06c0,3.48.86,4.76,2.7,4.76,1.56,0,2.63-1.21,2.63-4.9Z"/><path class="cls-3" d="M412.16,399h9.15v37.41h-9.15Zm.07-12.07h9.08v8.3h-9.08Z"/><path class="cls-3" d="M451.21,387v39c0,5.32,0,8.45.07,10.43h-8.67a31.64,31.64,0,0,1-.28-3.41c-1.42,2.63-3.34,4-6.82,4-6,0-7.88-4.54-7.88-11.93v-15.4c0-6.18,2.2-11.22,8.52-11.22,2.42,0,4.9.71,5.89,2.7V387Zm-14.49,38.12c0,2.56.64,4.05,2.63,4.05,2.2,0,2.69-1.92,2.69-5.11V411.46c0-3.34-.35-5-2.62-5-2,0-2.7,1.35-2.7,4Z"/><path class="cls-3" d="M466.54,420.12v5.4c0,2.41.57,4.19,2.63,4.19s2.55-1.92,2.55-4.26v-.85h8.88v.49c0,5-1.56,11.93-11.43,11.93-9.59,0-11.65-5.47-11.65-13.13V411.25c0-6.18,2.84-12.78,11.72-12.78,7.88,0,11.5,4.76,11.5,12.71v8.94Zm5.4-6.53V410c0-2.91-.64-4.26-2.7-4.26-1.7,0-2.7,1.28-2.7,4.26v3.62Z"/><path class="cls-3" d="M503.39,409.47c-4.4,0-7.53.78-7.53,7.17v19.81H486.7v-24.7c0-6.39,0-9.45-.07-12.71h8.66a52.41,52.41,0,0,1,.29,5.61c1.35-4.34,4.33-6.11,7.81-6.18Z"/><path class="cls-3" d="M510.92,419.13l-.86-22.37V389.1H520v7.45l-.85,22.58Zm-.36,17.32V425.31h9v11.14Z"/></svg>
