<svg id="Layer_1" data-name="Layer 1" xmlns="http://www.w3.org/2000/svg" width="500" height="100" viewBox="0 0 500 100"><defs><style>.cls-1{stroke:#000;stroke-miterlimit:10;stroke-width:2px;}.cls-2{fill:none;}</style></defs><title>kam</title><line class="cls-1" x1="73.81" y1="60.02" x2="43.27" y2="69.6"/><line class="cls-1" x1="75.85" y1="65.61" x2="45.31" y2="75.18"/><line class="cls-1" x1="77.88" y1="71.19" x2="47.34" y2="80.77"/><line class="cls-1" x1="78.9" y1="73.99" x2="48.36" y2="83.56"/><line class="cls-1" x1="79.91" y1="76.78" x2="49.37" y2="86.35"/><line class="cls-1" x1="80.93" y1="79.57" x2="50.39" y2="89.15"/><line class="cls-1" x1="65.69" y1="37.68" x2="35.15" y2="47.26"/><line class="cls-1" x1="66.7" y1="40.48" x2="36.16" y2="50.05"/><line class="cls-1" x1="67.72" y1="43.27" x2="37.18" y2="52.84"/><line class="cls-1" x1="68.73" y1="46.06" x2="38.19" y2="55.64"/><line class="cls-1" x1="69.75" y1="48.85" x2="39.21" y2="58.43"/><line class="cls-1" x1="70.77" y1="51.65" x2="40.23" y2="61.22"/><line class="cls-1" x1="55.52" y1="9.76" x2="24.98" y2="19.33"/><line class="cls-1" x1="56.54" y1="12.55" x2="26" y2="22.13"/><line class="cls-1" x1="57.56" y1="15.34" x2="27.02" y2="24.92"/><line class="cls-1" x1="60.03" y1="23.33" x2="29.49" y2="32.91"/><line class="cls-1" x1="61.62" y1="26.51" x2="31.08" y2="36.09"/><line class="cls-1" x1="63.65" y1="32.1" x2="33.11" y2="41.67"/><path d="M40.55,86.45,19,27.26c-1.3-3.56,1.12-7.53,5.4-8.87h0L50.64,90.48h0C46.36,91.82,41.84,90,40.55,86.45Z"/><rect class="cls-2" x="-0.5" y="-0.5" width="100" height="100"/><line class="cls-1" x1="171.95" y1="65.35" x2="140.08" y2="68.34"/><line class="cls-1" x1="172.77" y1="71.24" x2="140.91" y2="74.23"/><line class="cls-1" x1="173.59" y1="77.12" x2="141.73" y2="80.11"/><line class="cls-1" x1="174" y1="80.07" x2="142.14" y2="83.06"/><line class="cls-1" x1="174.42" y1="83.01" x2="142.55" y2="86"/><line class="cls-1" x1="174.83" y1="85.95" x2="142.96" y2="88.94"/><line class="cls-1" x1="168.66" y1="41.81" x2="136.8" y2="44.8"/><line class="cls-1" x1="169.07" y1="44.75" x2="137.21" y2="47.74"/><line class="cls-1" x1="169.48" y1="47.69" x2="137.62" y2="50.68"/><line class="cls-1" x1="169.9" y1="50.63" x2="138.03" y2="53.63"/><line class="cls-1" x1="170.31" y1="53.58" x2="138.44" y2="56.57"/><line class="cls-1" x1="170.72" y1="56.52" x2="138.85" y2="59.51"/><line class="cls-1" x1="164.55" y1="12.37" x2="132.69" y2="15.37"/><line class="cls-1" x1="164.96" y1="15.32" x2="133.1" y2="18.31"/><line class="cls-1" x1="165.38" y1="18.26" x2="133.51" y2="21.25"/><line class="cls-1" x1="166.13" y1="26.59" x2="134.26" y2="29.58"/><line class="cls-1" x1="167.02" y1="30.03" x2="135.15" y2="33.02"/><line class="cls-1" x1="167.84" y1="35.92" x2="135.97" y2="38.91"/><path d="M133.9,84.25l-8.72-62.38c-.52-3.76,2.67-7.13,7.13-7.55h0l10.62,76h0C138.46,90.72,134.42,88,133.9,84.25Z"/><rect class="cls-2" x="100" width="100" height="100"/><line class="cls-1" x1="268.37" y1="69.77" x2="236.6" y2="65.89"/><line class="cls-1" x1="267.92" y1="75.7" x2="236.15" y2="71.82"/><line class="cls-1" x1="267.46" y1="81.62" x2="235.69" y2="77.74"/><line class="cls-1" x1="267.24" y1="84.59" x2="235.47" y2="80.71"/><line class="cls-1" x1="267.01" y1="87.55" x2="235.24" y2="83.67"/><line class="cls-1" x1="266.78" y1="90.51" x2="235.01" y2="86.63"/><line class="cls-1" x1="270.18" y1="46.07" x2="238.41" y2="42.19"/><line class="cls-1" x1="269.96" y1="49.03" x2="238.19" y2="45.15"/><line class="cls-1" x1="269.73" y1="51.99" x2="237.96" y2="48.11"/><line class="cls-1" x1="269.5" y1="54.96" x2="237.73" y2="51.08"/><line class="cls-1" x1="269.28" y1="57.92" x2="237.51" y2="54.04"/><line class="cls-1" x1="269.05" y1="60.88" x2="237.28" y2="57"/><line class="cls-1" x1="272.45" y1="16.44" x2="240.68" y2="12.56"/><line class="cls-1" x1="272.22" y1="19.4" x2="240.45" y2="15.52"/><line class="cls-1" x1="272" y1="22.36" x2="240.23" y2="18.48"/><line class="cls-1" x1="270.96" y1="30.66" x2="239.19" y2="26.78"/><line class="cls-1" x1="271.09" y1="34.22" x2="239.32" y2="30.34"/><line class="cls-1" x1="270.64" y1="40.14" x2="238.87" y2="36.26"/><path d="M227.16,80.12,232,17.31c.29-3.78,4.13-6.4,8.58-5.85h0L234.69,88h0C230.24,87.41,226.87,83.9,227.16,80.12Z"/><rect class="cls-2" x="200" width="100" height="100"/><line class="cls-1" x1="364.34" y1="73.08" x2="333.96" y2="63"/><line class="cls-1" x1="362.72" y1="78.8" x2="332.34" y2="68.72"/><line class="cls-1" x1="361.11" y1="84.52" x2="330.73" y2="74.44"/><line class="cls-1" x1="360.3" y1="87.38" x2="329.92" y2="77.3"/><line class="cls-1" x1="359.49" y1="90.24" x2="329.11" y2="80.16"/><line class="cls-1" x1="358.69" y1="93.1" x2="328.31" y2="83.02"/><line class="cls-1" x1="370.79" y1="50.2" x2="340.42" y2="40.12"/><line class="cls-1" x1="369.99" y1="53.06" x2="339.61" y2="42.98"/><line class="cls-1" x1="369.18" y1="55.92" x2="338.8" y2="45.84"/><line class="cls-1" x1="368.37" y1="58.78" x2="337.99" y2="48.7"/><line class="cls-1" x1="367.57" y1="61.64" x2="337.19" y2="51.56"/><line class="cls-1" x1="366.76" y1="64.5" x2="336.38" y2="54.42"/><line class="cls-1" x1="378.87" y1="21.6" x2="348.49" y2="11.53"/><line class="cls-1" x1="378.06" y1="24.46" x2="347.68" y2="14.38"/><line class="cls-1" x1="377.25" y1="27.32" x2="346.87" y2="17.24"/><line class="cls-1" x1="374.6" y1="35.25" x2="344.22" y2="25.17"/><line class="cls-1" x1="374.02" y1="38.76" x2="343.65" y2="28.68"/><line class="cls-1" x1="372.41" y1="44.48" x2="342.03" y2="34.4"/><path d="M321.89,75.08,339,14.46c1-3.65,5.31-5.46,9.56-4h0L327.73,84.25h0C323.48,82.84,320.87,78.73,321.89,75.08Z"/><rect class="cls-2" x="300" width="100" height="100"/><line class="cls-1" x1="457.25" y1="76.43" x2="431.2" y2="57.82"/><line class="cls-1" x1="454.01" y1="81.41" x2="427.97" y2="62.81"/><line class="cls-1" x1="450.78" y1="86.4" x2="424.74" y2="67.8"/><line class="cls-1" x1="449.17" y1="88.89" x2="423.12" y2="70.29"/><line class="cls-1" x1="447.55" y1="91.39" x2="421.51" y2="72.78"/><line class="cls-1" x1="445.93" y1="93.88" x2="419.89" y2="75.28"/><line class="cls-1" x1="470.18" y1="56.48" x2="444.14" y2="37.87"/><line class="cls-1" x1="468.56" y1="58.97" x2="442.52" y2="40.37"/><line class="cls-1" x1="466.95" y1="61.47" x2="440.9" y2="42.86"/><line class="cls-1" x1="465.33" y1="63.96" x2="439.29" y2="45.35"/><line class="cls-1" x1="463.71" y1="66.45" x2="437.67" y2="47.85"/><line class="cls-1" x1="462.1" y1="68.95" x2="436.05" y2="50.34"/><line class="cls-1" x1="486.34" y1="31.54" x2="460.3" y2="12.94"/><line class="cls-1" x1="484.73" y1="34.04" x2="458.68" y2="15.43"/><line class="cls-1" x1="483.11" y1="36.53" x2="457.07" y2="17.93"/><line class="cls-1" x1="478.23" y1="43.32" x2="452.18" y2="24.72"/><line class="cls-1" x1="476.65" y1="46.5" x2="450.6" y2="27.9"/><line class="cls-1" x1="473.41" y1="51.49" x2="447.37" y2="32.89"/><path d="M416.11,65.8l34.26-52.86c2.06-3.18,6.68-3.64,10.33-1h0L419,76.28h0C415.33,73.67,414.05,69,416.11,65.8Z"/><rect class="cls-2" x="400" width="100" height="100"/></svg>
