<svg id="Layer_1" data-name="Layer 1" xmlns="http://www.w3.org/2000/svg" width="225" height="117" viewBox="0 0 225 117"><defs><style>.cls-1{opacity:0.21;}.cls-2{fill:#fff9c9;}</style></defs><title>kodben</title><path class="cls-1" d="M179.76,68a19,19,0,1,0-29-19.81H66.55c0-.25,0-.5,0-.76a19.05,19.05,0,1,0-29.36,16,19,19,0,1,0,29.36,16,18.46,18.46,0,0,0-.43-3.81h86.22A19,19,0,1,0,179.76,68Z"/><path class="cls-2" d="M188.76,60a19,19,0,1,0-29-19.81H75.55c0-.25,0-.5,0-.76a19.05,19.05,0,1,0-29.36,16,19,19,0,1,0,29.36,16,18.46,18.46,0,0,0-.43-3.81h86.22A19,19,0,1,0,188.76,60Z"/></svg>
