<svg id="Layer_1" data-name="Layer 1" xmlns="http://www.w3.org/2000/svg" width="522" height="185" viewBox="0 0 522 185"><defs><style>.cls-1{fill:#fff;}</style></defs><title>lyd_til</title><path class="cls-1" d="M234,69.82h6.4V97.57h8.1l-.6,5.6H234Z"/><path class="cls-1" d="M256.47,76.82c1,7,2.1,15.15,2.25,18.55H259c.35-4.25,1-9.3,2.35-18.55h6.55c-.35,1.45-4.75,22.8-5.65,26.85-1.5,6.8-3.45,8.35-8,8.35a17.27,17.27,0,0,1-3-.25l.1-5.45c.2,0,.9.1,1.45.1,1.5,0,2.35-.4,2.65-2.25l-5.95-27.35Z"/><path class="cls-1" d="M288.27,68.32v27.5c0,3.75,0,6,.05,7.35h-6.1a22.13,22.13,0,0,1-.2-2.4,4.85,4.85,0,0,1-4.8,2.8c-4.2,0-5.55-3.2-5.55-8.4V84.32c0-4.35,1.55-7.9,6-7.9,1.7,0,3.45.5,4.15,1.9v-10Zm-10.2,26.85c0,1.8.45,2.85,1.85,2.85s1.9-1.35,1.9-3.6V85.57c0-2.35-.25-3.55-1.85-3.55-1.4,0-1.9,1-1.9,2.8Z"/></svg>
