<svg id="Layer_1" data-name="Layer 1" xmlns="http://www.w3.org/2000/svg" width="645" height="194" viewBox="0 0 645 194"><defs><style>.cls-1{opacity:0.24;}.cls-2{fill:none;stroke:#000;stroke-miterlimit:10;stroke-width:7px;}.cls-3{fill:#fff;}</style></defs><title>lyd_fra</title><g class="cls-1"><rect x="68" y="67.4" width="15" height="32.4"/><polygon points="115.4 125 83 99.8 83 67.4 115.4 44.6 115.4 125"/><line class="cls-2" x1="127.4" y1="67.4" x2="167" y2="106.4"/><line class="cls-2" x1="165.8" y1="68.6" x2="126.2" y2="107.6"/></g><rect x="64" y="61.4" width="15" height="32.4"/><polygon points="111.4 119 79 93.8 79 61.4 111.4 38.6 111.4 119"/><path class="cls-3" d="M189.21,83.42v2.11c0,1.94.5,2.88,1.8,2.88s1.67-1.35,1.67-2.79c0-2.83-.54-3.64-3.6-6.21-3.42-2.88-5.13-4.59-5.13-9s1.39-8.23,7.11-8.23c6,0,6.93,4.14,6.93,7.56v1.71h-5.45v-1.8c0-1.8-.31-2.7-1.44-2.7s-1.44.9-1.44,2.61.36,2.7,2.84,4.63c4.41,3.47,6,5.45,6,10.35,0,4.73-1.62,8.6-7.56,8.6-5.71,0-7.38-3.47-7.38-7.92v-1.8Z"/><path class="cls-3" d="M203.3,92.69V61.32h5.8V92.69Z"/><path class="cls-3" d="M228.27,87.29c0,2.11,0,4.36.14,5.4h-5.36a15.74,15.74,0,0,1-.36-1.76,4.33,4.33,0,0,1-4.05,2.12c-3.6,0-5-3.33-5-7v-.45c0-6,4.1-7.51,8.51-7.51h.4V75.36c0-1.62-.22-2.34-1.3-2.34s-1.31.81-1.31,2.21v.54h-5.58v-.36c0-4.14,1.89-6.8,7.11-6.8,4.68,0,6.84,2.25,6.84,6.39Zm-10.89-24a4,4,0,1,1,4,3.91A3.83,3.83,0,0,1,217.38,63.26Zm5.18,18.9H222c-1.71,0-2.84.76-2.84,3.24v.31c0,1.62.54,2.48,1.67,2.48s1.71-.81,1.71-3.24Zm.27-18.95a1.5,1.5,0,0,0-1.49-1.62,1.43,1.43,0,0,0-1.44,1.58,1.5,1.5,0,0,0,1.49,1.62A1.46,1.46,0,0,0,222.83,63.21Z"/><path class="cls-3" d="M241.91,92.69V61.32h5.8V92.69Z"/><path class="cls-3" d="M258.24,69c.9,6.26,1.89,13.64,2,16.7h.23c.31-3.83.94-8.37,2.11-16.7h5.9c-.32,1.31-4.28,20.52-5.09,24.17-1.35,6.12-3.1,7.51-7.15,7.51a16,16,0,0,1-2.7-.22l.09-4.91c.18,0,.81.09,1.3.09,1.35,0,2.12-.36,2.39-2L252,69Z"/><path class="cls-3" d="M286.86,61.32V86.07c0,3.38,0,5.36,0,6.62h-5.49a20,20,0,0,1-.18-2.16,4.37,4.37,0,0,1-4.32,2.52c-3.78,0-5-2.88-5-7.56V75.72c0-3.91,1.39-7.11,5.4-7.11,1.53,0,3.1.45,3.73,1.71v-9Zm-9.18,24.17c0,1.62.4,2.56,1.66,2.56s1.71-1.21,1.71-3.24v-8c0-2.12-.22-3.2-1.66-3.2-1.26,0-1.71.86-1.71,2.52Z"/><path class="cls-3" d="M301.12,92.69V74.1H299V69h2.16V67.44c0-3.46,1.22-6.39,5.94-6.39a10.19,10.19,0,0,1,2.25.23V66a5.43,5.43,0,0,0-.81,0c-1.21,0-1.62.54-1.62,1.89V69h2.61V74.1h-2.61V92.69Z"/><path class="cls-3" d="M324.25,75.59c-2.79,0-4.77.49-4.77,4.54V92.69h-5.8V77c0-4,0-6-.05-8.06h5.49a35,35,0,0,1,.18,3.56,5,5,0,0,1,4.95-3.92Z"/><path class="cls-3" d="M342.25,87.29c0,2.11.05,4.36.14,5.4H337a15.74,15.74,0,0,1-.36-1.76,4.33,4.33,0,0,1-4.05,2.12c-3.6,0-5-3.33-5-7v-.45c0-6,4.1-7.51,8.51-7.51h.4V75.36c0-1.62-.22-2.34-1.3-2.34s-1.31.81-1.31,2.21v.54H328.3v-.36c0-4.14,1.89-6.8,7.11-6.8,4.68,0,6.84,2.25,6.84,6.39Zm-5.71-5.13H336c-1.71,0-2.84.76-2.84,3.24v.31c0,1.62.54,2.48,1.67,2.48s1.71-.81,1.71-3.24Z"/><line class="cls-2" x1="124.66" y1="65.29" x2="164.26" y2="104.29"/><line class="cls-2" x1="163.06" y1="66.49" x2="123.46" y2="105.49"/></svg>
