<svg id="Layer_1" data-name="Layer 1" xmlns="http://www.w3.org/2000/svg" width="522" height="185" viewBox="0 0 522 185"><defs><style>.cls-1{opacity:0.24;}.cls-2{fill:none;stroke:#000;stroke-miterlimit:10;stroke-width:7px;}</style></defs><title>lyd_til</title><path d="M204,104.42v2.11c0,1.94.5,2.88,1.8,2.88s1.67-1.35,1.67-2.79c0-2.83-.54-3.64-3.6-6.21-3.42-2.88-5.13-4.59-5.13-9s1.39-8.23,7.11-8.23c6,0,6.93,4.14,6.93,7.56v1.71h-5.45v-1.8c0-1.8-.31-2.7-1.44-2.7s-1.44.9-1.44,2.61.36,2.7,2.84,4.63c4.41,3.47,6,5.45,6,10.35,0,4.73-1.62,8.6-7.56,8.6-5.71,0-7.38-3.47-7.38-7.92v-1.8Z"/><path d="M218.13,113.69V82.32h5.8v31.37Z"/><path d="M243.1,108.29c0,2.11.05,4.36.14,5.4h-5.36a15.74,15.74,0,0,1-.36-1.76,4.33,4.33,0,0,1-4.05,2.12c-3.6,0-5-3.33-5-7v-.45c0-6,4.1-7.51,8.51-7.51h.4V96.36c0-1.62-.22-2.34-1.3-2.34s-1.31.81-1.31,2.21v.54h-5.58v-.36c0-4.14,1.89-6.8,7.11-6.8,4.68,0,6.84,2.25,6.84,6.39Zm-10.89-24a4,4,0,1,1,4,3.91A3.83,3.83,0,0,1,232.21,84.26Zm5.18,18.9h-.54c-1.71,0-2.84.76-2.84,3.24v.31c0,1.62.54,2.48,1.67,2.48s1.71-.81,1.71-3.24Zm.27-19a1.5,1.5,0,0,0-1.49-1.62,1.43,1.43,0,0,0-1.44,1.58,1.5,1.5,0,0,0,1.49,1.62A1.46,1.46,0,0,0,237.66,84.21Z"/><path d="M256.74,113.69V82.32h5.8v31.37Z"/><path d="M273.07,90c.9,6.26,1.89,13.64,2,16.7h.23c.31-3.83.94-8.37,2.11-16.7h5.9c-.32,1.31-4.28,20.52-5.09,24.17-1.35,6.12-3.1,7.51-7.15,7.51a16,16,0,0,1-2.7-.22l.09-4.91c.18,0,.81.09,1.3.09,1.35,0,2.12-.36,2.39-2L266.81,90Z"/><path d="M301.69,82.32v24.75c0,3.38,0,5.36,0,6.62h-5.49a20,20,0,0,1-.18-2.16,4.37,4.37,0,0,1-4.32,2.52c-3.78,0-5-2.88-5-7.56V96.72c0-3.91,1.39-7.11,5.4-7.11,1.53,0,3.1.45,3.73,1.71v-9Zm-9.18,24.17c0,1.62.4,2.56,1.66,2.56s1.71-1.21,1.71-3.24v-8c0-2.12-.22-3.2-1.66-3.2-1.26,0-1.71.86-1.71,2.52Z"/><path d="M313.57,90H316V84.62h5.72V90h2.7V95.1h-2.7v12.33c0,1.08.13,1.71,1.48,1.71a3.73,3.73,0,0,0,1-.09v4.46a9.93,9.93,0,0,1-3.33.49c-3.47,0-5-1.26-5-5.4V95.1h-2.29Z"/><path d="M328.78,90h5.8v23.72h-5.8Zm0-7.65h5.76v5.27h-5.76Z"/><path d="M340.16,113.69V82.32H346v31.37Z"/><g class="cls-1"><rect x="46" y="82.4" width="15" height="32.4"/><polygon points="93.4 140 61 114.8 61 82.4 93.4 59.6 93.4 140"/><line class="cls-2" x1="105.4" y1="82.4" x2="145" y2="121.4"/><line class="cls-2" x1="143.8" y1="83.6" x2="104.2" y2="122.6"/></g><rect x="42" y="76.4" width="15" height="32.4"/><polygon points="89.4 134 57 108.8 57 76.4 89.4 53.6 89.4 134"/><line class="cls-2" x1="102.66" y1="80.29" x2="142.26" y2="119.29"/><line class="cls-2" x1="141.06" y1="81.49" x2="101.46" y2="120.49"/></svg>
