<svg id="Layer_1" data-name="Layer 1" xmlns="http://www.w3.org/2000/svg" width="613" height="227" viewBox="0 0 613 227"><defs><style>.cls-1{opacity:0.24;}.cls-2{fill:none;stroke:#000;stroke-miterlimit:10;stroke-width:7px;}.cls-3{fill:#fff;}</style></defs><title>lyd_til</title><g class="cls-1"><rect x="78.5" y="93.9" width="15" height="32.4"/><polygon points="125.9 151.5 93.5 126.3 93.5 93.9 125.9 71.1 125.9 151.5"/><line class="cls-2" x1="137.9" y1="93.9" x2="177.5" y2="132.9"/><line class="cls-2" x1="176.3" y1="95.1" x2="136.7" y2="134.1"/></g><rect x="74.5" y="87.9" width="15" height="32.4"/><polygon points="121.9 145.5 89.5 120.3 89.5 87.9 121.9 65.1 121.9 145.5"/><path class="cls-3" d="M205.29,109.92V112c0,1.94.5,2.88,1.8,2.88s1.67-1.35,1.67-2.79c0-2.83-.54-3.64-3.6-6.21-3.42-2.88-5.13-4.59-5.13-9s1.39-8.23,7.11-8.23c6,0,6.93,4.14,6.93,7.56V98h-5.45v-1.8c0-1.8-.31-2.7-1.44-2.7s-1.44.9-1.44,2.61.36,2.7,2.84,4.63c4.41,3.47,6,5.45,6,10.35,0,4.73-1.62,8.6-7.56,8.6-5.71,0-7.38-3.47-7.38-7.92v-1.8Z"/><path class="cls-3" d="M219.38,119.19V87.82h5.8v31.37Z"/><path class="cls-3" d="M244.35,113.79c0,2.11.05,4.36.14,5.4h-5.36a15.74,15.74,0,0,1-.36-1.76,4.33,4.33,0,0,1-4.05,2.12c-3.6,0-5-3.33-5-7v-.45c0-6,4.1-7.51,8.51-7.51h.4v-2.75c0-1.62-.22-2.34-1.3-2.34s-1.31.81-1.31,2.21v.54H230.4v-.36c0-4.14,1.89-6.8,7.11-6.8,4.68,0,6.84,2.25,6.84,6.39Zm-10.89-24a4,4,0,1,1,4,3.91A3.83,3.83,0,0,1,233.46,89.76Zm5.18,18.9h-.54c-1.71,0-2.84.76-2.84,3.24v.31c0,1.62.54,2.48,1.67,2.48s1.71-.81,1.71-3.24Zm.27-19a1.5,1.5,0,0,0-1.49-1.62A1.43,1.43,0,0,0,236,89.67a1.5,1.5,0,0,0,1.49,1.62A1.46,1.46,0,0,0,238.91,89.71Z"/><path class="cls-3" d="M258,119.19V87.82h5.8v31.37Z"/><path class="cls-3" d="M274.32,95.47c.9,6.26,1.89,13.64,2,16.7h.23c.31-3.83.94-8.37,2.11-16.7h5.9c-.32,1.31-4.28,20.52-5.09,24.17-1.35,6.12-3.1,7.51-7.15,7.51a16,16,0,0,1-2.7-.22l.09-4.91c.18,0,.81.09,1.3.09,1.35,0,2.12-.36,2.39-2l-5.36-24.62Z"/><path class="cls-3" d="M302.94,87.82v24.75c0,3.38,0,5.36,0,6.62h-5.49a20,20,0,0,1-.18-2.16,4.37,4.37,0,0,1-4.32,2.52c-3.78,0-5-2.88-5-7.56v-9.77c0-3.91,1.39-7.11,5.4-7.11,1.53,0,3.1.45,3.73,1.71v-9ZM293.76,112c0,1.62.4,2.56,1.66,2.56s1.71-1.21,1.71-3.24v-8c0-2.12-.22-3.2-1.66-3.2-1.26,0-1.71.86-1.71,2.52Z"/><path class="cls-3" d="M314.82,95.47h2.38V90.12h5.72v5.35h2.7v5.13h-2.7v12.33c0,1.08.13,1.71,1.48,1.71a3.73,3.73,0,0,0,1-.09V119a9.93,9.93,0,0,1-3.33.49c-3.47,0-5-1.26-5-5.4V100.6h-2.29Z"/><path class="cls-3" d="M330,95.47h5.8v23.72H330Zm0-7.65h5.76v5.27h-5.76Z"/><path class="cls-3" d="M341.41,119.19V87.82h5.81v31.37Z"/><line class="cls-2" x1="135.16" y1="91.79" x2="174.76" y2="130.79"/><line class="cls-2" x1="173.56" y1="92.99" x2="133.96" y2="131.99"/></svg>
