<svg id="Layer_1" data-name="Layer 1" xmlns="http://www.w3.org/2000/svg" width="1920" height="1080" viewBox="0 0 1920 1080"><defs><style>.cls-1{fill:#ffa0b2;}.cls-2{fill:#fff9c9;}.cls-3{fill:#faff9f;}.cls-4{fill:#d39244;}.cls-5{fill:#ffdf31;}.cls-6{fill:#efc3ab;}.cls-7{fill:#b22287;}.cls-8{fill:#ff17b9;}.cls-9{fill:#8d173a;}.cls-10{fill:#de9388;}.cls-11{fill:#e0aa91;}.cls-12{fill:#fff;}.cls-13,.cls-19{stroke:#000;stroke-miterlimit:10;}.cls-13{stroke-width:0.75px;}.cls-14{fill:#ed3aa1;}.cls-15{fill:#2b1906;}.cls-16{fill:#aa6811;}.cls-17{fill:#ea9898;}.cls-18{fill:#42210b;}</style></defs><title>menu_baggrund</title><path class="cls-1" d="M0,0V1080H1920V0Z"/><path class="cls-2" d="M197.53,151.87A22.43,22.43,0,1,0,180,114.45L94.47,64.09c.16-.25.35-.48.5-.74A22.43,22.43,0,1,0,55.61,62,22.43,22.43,0,1,0,75.85,95.82a23.15,23.15,0,0,0,1.85-4.11l87.49,51.53a22.19,22.19,0,0,0-7,7.32,22.43,22.43,0,1,0,39.36,1.31Z"/><path class="cls-2" d="M198.75,352a22.43,22.43,0,1,0-41.32-1.28L73.82,404.16c-.15-.26-.27-.53-.44-.78a22.43,22.43,0,1,0-19,34.49,22.43,22.43,0,1,0,39.28-2.73,22.72,22.72,0,0,0-2.83-3.52L176.41,377A22.42,22.42,0,1,0,198.75,352Z"/><path class="cls-2" d="M195.53,711.87A22.43,22.43,0,1,0,178,674.45L92.47,624.09c.16-.25.35-.48.5-.74A22.43,22.43,0,1,0,53.61,622a22.43,22.43,0,1,0,20.24,33.78,23.15,23.15,0,0,0,1.85-4.11l87.49,51.53a22.19,22.19,0,0,0-7,7.32,22.43,22.43,0,1,0,39.36,1.31Z"/><path class="cls-2" d="M196.75,912a22.43,22.43,0,1,0-41.32-1.28L71.82,964.16c-.15-.26-.27-.53-.44-.78a22.43,22.43,0,1,0-19,34.49,22.43,22.43,0,1,0,39.28-2.73,22.72,22.72,0,0,0-2.83-3.52L174.41,937A22.42,22.42,0,1,0,196.75,912Z"/><path class="cls-2" d="M556.53,151.87A22.43,22.43,0,1,0,539,114.45L453.47,64.09c.16-.25.35-.48.5-.74A22.43,22.43,0,1,0,414.61,62a22.43,22.43,0,1,0,20.24,33.78,23.15,23.15,0,0,0,1.85-4.11l87.49,51.53a22.19,22.19,0,0,0-7,7.32,22.43,22.43,0,1,0,39.36,1.31Z"/><path class="cls-2" d="M557.75,352a22.43,22.43,0,1,0-41.32-1.28l-83.61,53.41c-.15-.26-.27-.53-.44-.78a22.43,22.43,0,1,0-19,34.49,22.43,22.43,0,1,0,39.28-2.73,22.72,22.72,0,0,0-2.83-3.52L535.41,377A22.42,22.42,0,1,0,557.75,352Z"/><path class="cls-2" d="M554.53,711.87A22.43,22.43,0,1,0,537,674.45l-85.49-50.36c.16-.25.35-.48.5-.74A22.43,22.43,0,1,0,412.61,622a22.43,22.43,0,1,0,20.24,33.78,23.15,23.15,0,0,0,1.85-4.11l87.49,51.53a22.19,22.19,0,0,0-7,7.32,22.43,22.43,0,1,0,39.36,1.31Z"/><path class="cls-2" d="M555.75,912a22.43,22.43,0,1,0-41.32-1.28l-83.61,53.41c-.15-.26-.27-.53-.44-.78a22.43,22.43,0,1,0-19,34.49,22.43,22.43,0,1,0,39.28-2.73,22.72,22.72,0,0,0-2.83-3.52L533.41,937A22.42,22.42,0,1,0,555.75,912Z"/><path class="cls-2" d="M852.53,151.87A22.43,22.43,0,1,0,835,114.45L749.47,64.09c.16-.25.35-.48.5-.74A22.43,22.43,0,1,0,710.61,62a22.43,22.43,0,1,0,20.24,33.78,23.15,23.15,0,0,0,1.85-4.11l87.49,51.53a22.19,22.19,0,0,0-7,7.32,22.43,22.43,0,1,0,39.36,1.31Z"/><path class="cls-2" d="M853.75,352a22.43,22.43,0,1,0-41.32-1.28l-83.61,53.41c-.15-.26-.27-.53-.44-.78a22.43,22.43,0,1,0-19,34.49,22.43,22.43,0,1,0,39.28-2.73,22.72,22.72,0,0,0-2.83-3.52L831.41,377A22.42,22.42,0,1,0,853.75,352Z"/><path class="cls-2" d="M850.53,711.87A22.43,22.43,0,1,0,833,674.45l-85.49-50.36c.16-.25.35-.48.5-.74A22.43,22.43,0,1,0,708.61,622a22.43,22.43,0,1,0,20.24,33.78,23.15,23.15,0,0,0,1.85-4.11l87.49,51.53a22.19,22.19,0,0,0-7,7.32,22.43,22.43,0,1,0,39.36,1.31Z"/><path class="cls-2" d="M851.75,912a22.43,22.43,0,1,0-41.32-1.28l-83.61,53.41c-.15-.26-.27-.53-.44-.78a22.43,22.43,0,1,0-19,34.49,22.43,22.43,0,1,0,39.28-2.73,22.72,22.72,0,0,0-2.83-3.52L829.41,937A22.42,22.42,0,1,0,851.75,912Z"/><path class="cls-2" d="M1211.53,151.87A22.43,22.43,0,1,0,1194,114.45l-85.49-50.36c.16-.25.35-.48.5-.74A22.43,22.43,0,1,0,1069.61,62a22.43,22.43,0,1,0,20.24,33.78,23.15,23.15,0,0,0,1.85-4.11l87.49,51.53a22.19,22.19,0,0,0-7,7.32,22.43,22.43,0,1,0,39.36,1.31Z"/><path class="cls-2" d="M1212.75,352a22.43,22.43,0,1,0-41.32-1.28l-83.61,53.41c-.15-.26-.27-.53-.44-.78a22.43,22.43,0,1,0-19,34.49,22.43,22.43,0,1,0,39.28-2.73,22.72,22.72,0,0,0-2.83-3.52L1190.41,377A22.42,22.42,0,1,0,1212.75,352Z"/><path class="cls-2" d="M1209.53,711.87A22.43,22.43,0,1,0,1192,674.45l-85.49-50.36c.16-.25.35-.48.5-.74a22.43,22.43,0,1,0-39.36-1.31,22.43,22.43,0,1,0,20.24,33.78,23.15,23.15,0,0,0,1.85-4.11l87.49,51.53a22.19,22.19,0,0,0-7,7.32,22.43,22.43,0,1,0,39.36,1.31Z"/><path class="cls-2" d="M1210.75,912a22.43,22.43,0,1,0-41.32-1.28l-83.61,53.41c-.15-.26-.27-.53-.44-.78a22.43,22.43,0,1,0-19,34.49,22.43,22.43,0,1,0,39.28-2.73,22.72,22.72,0,0,0-2.83-3.52L1188.41,937A22.42,22.42,0,1,0,1210.75,912Z"/><path class="cls-2" d="M1497.53,161.87A22.43,22.43,0,1,0,1480,124.45l-85.49-50.36c.16-.25.35-.48.5-.74A22.43,22.43,0,1,0,1355.61,72a22.43,22.43,0,1,0,20.24,33.78,23.15,23.15,0,0,0,1.85-4.11l87.49,51.53a22.19,22.19,0,0,0-7,7.32,22.43,22.43,0,1,0,39.36,1.31Z"/><path class="cls-2" d="M1498.75,362a22.43,22.43,0,1,0-41.32-1.28l-83.61,53.41c-.15-.26-.27-.53-.44-.78a22.43,22.43,0,1,0-19,34.49,22.43,22.43,0,1,0,39.28-2.73,22.72,22.72,0,0,0-2.83-3.52L1476.41,387A22.42,22.42,0,1,0,1498.75,362Z"/><path class="cls-2" d="M1495.53,721.87A22.43,22.43,0,1,0,1478,684.45l-85.49-50.36c.16-.25.35-.48.5-.74a22.43,22.43,0,1,0-39.36-1.31,22.43,22.43,0,1,0,20.24,33.78,23.15,23.15,0,0,0,1.85-4.11l87.49,51.53a22.19,22.19,0,0,0-7,7.32,22.43,22.43,0,1,0,39.36,1.31Z"/><path class="cls-2" d="M1496.75,922a22.43,22.43,0,1,0-41.32-1.28l-83.61,53.41c-.15-.26-.27-.53-.44-.78a22.43,22.43,0,1,0-19,34.49,22.43,22.43,0,1,0,39.28-2.73,22.72,22.72,0,0,0-2.83-3.52L1474.41,947A22.42,22.42,0,1,0,1496.75,922Z"/><path class="cls-2" d="M1856.53,161.87A22.43,22.43,0,1,0,1839,124.45l-85.49-50.36c.16-.25.35-.48.5-.74A22.43,22.43,0,1,0,1714.61,72a22.43,22.43,0,1,0,20.24,33.78,23.15,23.15,0,0,0,1.85-4.11l87.49,51.53a22.19,22.19,0,0,0-7,7.32,22.43,22.43,0,1,0,39.36,1.31Z"/><path class="cls-2" d="M1857.75,362a22.43,22.43,0,1,0-41.32-1.28l-83.61,53.41c-.15-.26-.27-.53-.44-.78a22.43,22.43,0,1,0-19,34.49,22.43,22.43,0,1,0,39.28-2.73,22.72,22.72,0,0,0-2.83-3.52L1835.41,387A22.42,22.42,0,1,0,1857.75,362Z"/><path class="cls-2" d="M1854.53,721.87A22.43,22.43,0,1,0,1837,684.45l-85.49-50.36c.16-.25.35-.48.5-.74a22.43,22.43,0,1,0-39.36-1.31,22.43,22.43,0,1,0,20.24,33.78,23.15,23.15,0,0,0,1.85-4.11l87.49,51.53a22.19,22.19,0,0,0-7,7.32,22.43,22.43,0,1,0,39.36,1.31Z"/><path class="cls-2" d="M1855.75,922a22.43,22.43,0,1,0-41.32-1.28l-83.61,53.41c-.15-.26-.27-.53-.44-.78a22.43,22.43,0,1,0-19,34.49,22.43,22.43,0,1,0,39.28-2.73,22.72,22.72,0,0,0-2.83-3.52L1833.41,947A22.42,22.42,0,1,0,1855.75,922Z"/><rect class="cls-3" x="1095" y="269" width="660" height="421"/><rect class="cls-4" x="1024" y="186" width="525" height="118" transform="translate(-20.87 168.25) rotate(-7.42)"/><rect class="cls-5" x="276.38" y="159.09" width="495.2" height="866.11" rx="187.39" transform="matrix(0.99, -0.16, 0.16, 0.99, -86.24, 89.33)"/><path class="cls-6" d="M654.17,1080,615.35,835.09l88.17-14a80.73,80.73,0,0,1,92.37,67.1L826.29,1080"/><path class="cls-7" d="M579.47,755.3H705.91a98.24,98.24,0,0,1,98.24,98.24V917.3a0,0,0,0,1,0,0H579.47a0,0,0,0,1,0,0v-162A0,0,0,0,1,579.47,755.3Z" transform="translate(-102.24 96.38) rotate(-7.42)"/><rect class="cls-8" x="561" y="907" width="271" height="21" transform="translate(-112.69 97.66) rotate(-7.42)"/><path class="cls-6" d="M311.33,1080H481.24L460.43,860.28l-88.87,8.42a80.73,80.73,0,0,0-72.76,88L310.48,1080Z"/><path class="cls-7" d="M274.34,799.49H499a0,0,0,0,1,0,0v63.76a98.24,98.24,0,0,1-98.24,98.24H274.34a0,0,0,0,1,0,0v-162A0,0,0,0,1,274.34,799.49Z" transform="translate(877.71 1707.34) rotate(173.01)"/><rect class="cls-8" x="266.86" y="949.8" width="271" height="21" transform="translate(918.65 1864.45) rotate(173.01)"/><path class="cls-9" d="M396.85,1080,377.63,958.75A157,157,0,0,1,508.08,779.17L587.4,766.6A131.23,131.23,0,0,1,737.56,875.66L770,1080"/><path class="cls-6" d="M472.1,702.43l11.28,71.21h.07c6.64,32.94,37.32,55.19,69.79,50S608,787.88,604.15,754.5h.06l-11.29-71.21Z"/><rect class="cls-10" x="631.69" y="408.67" width="71.44" height="45.02" rx="17.7" transform="translate(-59.27 109.8) rotate(-9.01)"/><rect class="cls-10" x="294.04" y="460.21" width="71.44" height="45.02" rx="17.7" transform="translate(-71.5 57.57) rotate(-9.01)"/><path class="cls-11" d="M292.67,351.85l33.86,213.62.19,0c20.06,98.8,114.42,165.18,214.7,149.28s169.5-108.19,158-208.36l.19,0L665.78,292.72Z"/><path class="cls-6" d="M299.47,326l33.86,213.62.19,0c19.93,98.82,112,165.57,209.39,150.12S707.22,582.34,695.62,482.2l.18,0L662,268.55Z"/><path class="cls-5" d="M727.08,373.17,712,277.84c-11.2-70.67-90.76-116.78-177.71-103l-153.94,24.4C293.38,213,232,281.48,243.17,352.14l15.11,95.33Z"/><polyline class="cls-6" points="336.84 361.7 349.1 439.02 426.42 426.77"/><polyline class="cls-6" points="416.52 376.81 424.49 427.08 474.75 419.11"/><path class="cls-12" d="M552.48,650.05c45.64-7.23,77.67-44.47,71.53-83.18l-165.28,26.2C464.86,631.77,506.84,657.29,552.48,650.05Z"/><ellipse class="cls-12" cx="612.04" cy="460.27" rx="44.99" ry="54.32" transform="translate(-64.51 101.49) rotate(-9.01)"/><circle cx="607.63" cy="470.97" r="29.08"/><ellipse class="cls-12" cx="424.52" cy="489.99" rx="44.99" ry="54.32" transform="translate(-71.47 72.5) rotate(-9.01)"/><circle cx="420.11" cy="500.69" r="29.08"/><ellipse class="cls-1" cx="536" cy="538.5" rx="12" ry="8.5" transform="translate(-112.33 142.34) rotate(-13.71)"/><path class="cls-13" d="M1047.86,297.72c1.73,13.29,14.53,20.87,27.34,19.21,11.25-1.47,14.33-8.69,13.47-15.27-1.1-8.5-8-11.51-23-17.94-16.88-7.18-24.71-12.12-26.43-25.29-2.24-17.24,12.38-30.22,30.46-32.58,11.85-1.54,18.77,1.09,23.32,5.24l-.57-4.43a2.17,2.17,0,0,1,4.31-.56l3,23.22a2.18,2.18,0,1,1-4.31.57l-1.43-11c-.45-3.47-7.32-11.34-20.37-9.64-8,1-15.05,6-13.88,15,1.06,8.14,5.28,10.63,22.19,17.07,16,6.07,27.49,11,29.39,25.63,2.41,18.44-13.39,30.85-31.83,33.25-15.32,2-24-2.23-29.89-8.89l1.14,8.74a2.18,2.18,0,1,1-4.31.56l-3.71-28.49a2.18,2.18,0,1,1,4.31-.56Z"/><path class="cls-13" d="M1212.72,254.94c3.7,28.37-13.87,49.53-36.86,52.52-23.7,3.09-49.33-6.72-53.76-40.72-4.23-32.44,18.07-50.07,41.53-53.13C1186.74,210.6,1209,226.57,1212.72,254.94Zm-4.78.62c-3.29-25.26-22.38-40.91-43-38.23-9,1.17-14.91,9.86-10.31,45.17,4.87,37.35,12.56,42.19,21.54,41C1196.79,300.84,1211.23,280.82,1207.94,255.56Z"/><path class="cls-13" d="M1259.37,244.84l5.89,45.26,10.9-1.42c1.31-.17,2.35.3,2.51,1.5a2,2,0,0,1-2,2.33l-50.52,6.58a2,2,0,0,1-2.53-1.62c-.15-1.2.71-2,2-2.21l10.89-1.42-10.7-82.13-10.89,1.42a2,2,0,0,1-2.53-1.61c-.15-1.2.71-2.05,2-2.22L1293,199.07a2.09,2.09,0,0,1,2.57,2l2.72,20.83a2.29,2.29,0,1,1-4.55.59l-2.51-19.27L1254.56,208l4.28,32.8,21.91-2.85a2.05,2.05,0,0,1,.53,4.07Z"/><path class="cls-13" d="M1347.57,195.85l10.7,82.13,11.26-1.47a2,2,0,0,1,2.52,1.62c.16,1.2-.71,2-2,2.21L1318.79,287a2,2,0,0,1-2.53-1.62c-.15-1.2.71-2,2-2.21l11.25-1.47-10.7-82.12-11.25,1.46a2,2,0,0,1-2.53-1.61c-.15-1.2.71-2,2-2.22l51.24-6.67a2,2,0,0,1,2.52,1.62c.16,1.19-.71,2-2,2.21Z"/><path class="cls-13" d="M1473.88,242.22c1.73,13.29,14.53,20.88,27.34,19.21,11.26-1.47,14.33-8.69,13.47-15.27-1.1-8.5-8-11.51-23-17.94-16.88-7.18-24.71-12.12-26.43-25.29-2.24-17.24,12.38-30.22,30.46-32.58,11.85-1.54,18.77,1.09,23.33,5.24l-.58-4.43a2.17,2.17,0,0,1,4.31-.56l3,23.22a2.18,2.18,0,1,1-4.31.57l-1.43-11c-.45-3.47-7.32-11.34-20.37-9.64-8,1-15.05,6-13.88,15,1.06,8.14,5.28,10.63,22.19,17.07,16,6.07,27.49,11,29.39,25.63,2.41,18.44-13.39,30.85-31.82,33.25-15.33,2-24-2.23-29.89-8.89l1.13,8.74a2.17,2.17,0,1,1-4.3.56l-3.72-28.49a2.18,2.18,0,1,1,4.31-.56Z"/><path class="cls-14" d="M1106,395.6a131.9,131.9,0,0,1,37.39-65.79c-13.2,32.33-20.35,73-21.79,114.38,7-.51,15.75-1,26-1.47a288.21,288.21,0,0,1,13.8-63.9c12-21,27.37-40.14,46-53.59-49.16,58.5-46.56,219.07,9,271q-16-.64-31.8-1.33c-18.64-23-30.3-58.63-35-97.37-11.2-.84-20.74-1.78-28.31-2.8a473.84,473.84,0,0,0,14.84,97.87q-15.27-.78-30.17-1.62Z"/><path class="cls-14" d="M1197.37,526.56c-6.44-49,.52-112.06,20.49-158.46,12.11-21.72,27-39.77,44.29-49.8-37.12,30.61-47.33,134-31.19,208.48,8,35.77,21,44,39.11,45.62,18.91.5,21.09-6.27,14.88-43-3-58.29,7.57-138,27.25-183.38,6.22-12.84,13.11-22.88,20.48-28.74-20.72,26.28-21.6,139-8.17,215.64,8.64,73.42,5.58,66.43-32.26,68.7C1255.61,600.09,1214.88,596,1197.37,526.56Z"/><path class="cls-14" d="M1366,315.28a106.75,106.75,0,0,1,10.74,11.26c17.73,35.84,58.58,133.2,85.68,202.81,7.66-67.42,10.84-160.63,5.15-200.33-3.35-8.86-6.88-15-10.52-17.67,31.7,21.67,59.46,263.37,35.52,292.67l-19.38-.14c-10.13-19.35-65.57-148-98.68-227.48,4.47,79.42,20.75,207.25,32.13,226.25q-15.66-.28-31.3-.61C1352.46,575,1345.62,347.21,1366,315.28Z"/><path class="cls-14" d="M1490.46,318.69c3.47.35,7,.73,10.45,1.11,20.78.46,54.83,5.1,85.79,23.89,30.7,18.27,58.31,50.7,60.19,94.88,1.62,30.09-.54,61.14-6.49,88.69-15.92,39.72-30.27,57-43.33,66.36-13.43,9.06-25.58,10.28-45.57,10.4-14.32.28-28.62.44-42.8.53C1540.45,576.56,1525.77,367.43,1490.46,318.69Zm92.67,254.08c-.63-.44,22.86-19.46,29.29-70a395.12,395.12,0,0,0,2-64.69c-2.2-53.56-42.83-93.61-67.67-93.07l-9.34-.25c28.44,59.48,40.45,172.17,26,228.79Q1573.41,573.17,1583.13,572.77Z"/><path class="cls-14" d="M1610,319.63c49.69,5.32,96.61,13.73,126.59,25.08q.42,24.69.65,49.55c-11.31-14.63-37.14-29.64-70.24-42.55,19.75,28.23,32.59,62.71,39.86,95.66,12.78.32,22.35.67,27.95,1.06.13,16.88-.09,33.78-.64,50.56-6.49,1.57-16.67,3-29.87,4.23-2.66,21.8-7.29,42.69-13.88,61.33,18.92-2.25,35-4.87,47.56-7.86v49.58c-32.9,0-66.42-.18-100.36-.41,22.14-27.62,32.3-80.68,28-138C1661.45,411.13,1642.8,350.15,1610,319.63Z"/><rect class="cls-15" x="1352.88" y="796.99" width="18.89" height="86.43" rx="3.93" transform="translate(-237.92 873.19) rotate(-32.84)"/><path class="cls-15" d="M1451.85,818.79a124.94,124.94,0,0,0-119.78,196.42l2.18.32,26.24,3.87,22.54,3.32c0-.15.06-.31.08-.46a24.64,24.64,0,0,0-19.58-27.76,62.22,62.22,0,0,1,121.17,17.81,24.67,24.67,0,0,0-27.78,20.83l-.06.46,23.57,3.48,25.22,3.72,4.22.62a125,125,0,0,0-58-222.63Z"/><path class="cls-16" d="M1429.9,1029.63A82.25,82.25,0,1,1,1588.42,1053l38.91,5.74a165.18,165.18,0,1,0-235-34.65Z"/><path class="cls-4" d="M1441.29,994.21a36,36,0,0,0-40.88,30.38c0,.23-.06.45-.08.68l71.23,10.5.12-.67A36,36,0,0,0,1441.29,994.21Z"/><path class="cls-4" d="M1620.33,1020.61a36,36,0,0,0-40.88,30.38c0,.22-.06.45-.09.67l71.24,10.51c0-.23.08-.45.11-.67A36,36,0,0,0,1620.33,1020.61Z"/><ellipse class="cls-17" cx="1545.66" cy="816.14" rx="39.29" ry="48.29" transform="translate(512.8 2226.23) rotate(-81.61)"/><path class="cls-16" d="M1648,798.13a105.59,105.59,0,1,0-191.8-28.28Z"/><path class="cls-6" d="M1617.84,775.49l-.82-.1v0L1492.33,757v0l-.8-.14a51.57,51.57,0,1,0,43.35,59.35l24.33,3.58a51.56,51.56,0,1,0,58.64-44.3Z"/><polygon class="cls-16" points="1428.61 616.87 1506.26 717.45 1538.92 692.24 1487.44 625.54 1428.61 616.87"/><path class="cls-17" d="M1428.05,616.79l-22,17a12.67,12.67,0,0,0-2.29,17.76l10.54,13.64a12.66,12.66,0,0,0,17.76,2.29l54.45-42Z"/><polygon class="cls-16" points="1723.52 660.35 1620.16 734.25 1596.16 700.67 1664.69 651.67 1723.52 660.35"/><path class="cls-17" d="M1724.08,660.43,1740.23,683a12.66,12.66,0,0,1-2.94,17.66l-14,10a12.67,12.67,0,0,1-17.67-2.94l-40-56Z"/><path class="cls-18" d="M1530.7,767.43a23.18,23.18,0,0,0,45.86,6.76Z"/><path class="cls-12" d="M1541,763.61l3.79-25.69h0c1.78-13.72-6.8-26.25-19.35-28.1s-24.39,7.67-26.65,21.32h0l-3.79,25.7Z"/><circle cx="1521.33" cy="741.13" r="11.63"/><path class="cls-12" d="M1608.76,773.61l3.79-25.7h0c1.77-13.73-6.8-26.25-19.36-28.1s-24.39,7.66-26.65,21.32h0l-3.79,25.69Z"/><circle cx="1589.12" cy="751.12" r="11.63"/><path class="cls-7" d="M1113.44,660.3v3.81c0,3.48.89,5.18,3.24,5.18s3-2.43,3-5c0-5.1-1-6.56-6.48-11.18-6.15-5.18-9.23-8.26-9.23-16.19,0-7.7,2.51-14.83,12.8-14.83,10.85,0,12.47,7.46,12.47,13.61v3.08h-9.8v-3.24c0-3.24-.57-4.86-2.59-4.86s-2.59,1.62-2.59,4.7c0,3.24.65,4.86,5.1,8.34,7.94,6.24,10.77,9.8,10.77,18.63,0,8.5-2.91,15.47-13.6,15.47-10.29,0-13.29-6.24-13.29-14.26V660.3Z"/><path class="cls-7" d="M1146.65,664.11l-1.3,12.88h-10.61l7.61-54h15.47l7.86,54h-10.77l-1.54-12.88Zm5.83-9.15c-.73-6.89-1.78-17.42-2.35-22.6h-.41c-.16,3.73-1.45,15.87-2.18,22.6Z"/><path class="cls-7" d="M1171.51,623h10.37v45H1195l-1,9.07h-22.52Z"/><path class="cls-7" d="M1227.72,637.38v25.11c0,10.69-5,15.31-14.49,15.31-9,0-13.61-4.7-13.61-15.23V637.14c0-10.45,5.75-15,14.09-15S1227.72,626.61,1227.72,637.38Zm-17.57-1.13v27.62c0,3.32,1.13,5.1,3.48,5.1s3.48-1.62,3.48-5.18V636.17c0-3.41-.89-5.11-3.48-5.11C1211.36,631.06,1210.15,632.6,1210.15,636.25Z"/><path class="cls-7" d="M1235.26,677V623h11.5l5.59,23.74c.81,3.24,1.54,7.29,1.94,9.72h.25c-.57-7.21-.9-17-.9-24.63V623h9.64v54h-11.66l-5.83-26.89c-.57-2.68-1.14-6.24-1.54-7.94H1244c.4,6.32.73,17.09.73,25.59V677Z"/><line class="cls-19" x1="1443.9" y1="243.32" x2="1406.05" y2="247.66"/><line class="cls-19" x1="1445.07" y1="250.53" x2="1407.22" y2="254.87"/><line class="cls-19" x1="1446.24" y1="257.74" x2="1408.39" y2="262.08"/><line class="cls-19" x1="1446.83" y1="261.34" x2="1408.98" y2="265.68"/><line class="cls-19" x1="1447.41" y1="264.95" x2="1409.56" y2="269.29"/><line class="cls-19" x1="1448" y1="268.55" x2="1410.15" y2="272.89"/><line class="cls-19" x1="1439.22" y1="214.47" x2="1401.37" y2="218.81"/><line class="cls-19" x1="1439.81" y1="218.08" x2="1401.95" y2="222.42"/><line class="cls-19" x1="1440.39" y1="221.68" x2="1402.54" y2="226.02"/><line class="cls-19" x1="1440.98" y1="225.29" x2="1403.13" y2="229.63"/><line class="cls-19" x1="1441.56" y1="228.9" x2="1403.71" y2="233.23"/><line class="cls-19" x1="1442.15" y1="232.5" x2="1404.3" y2="236.84"/><line class="cls-19" x1="1433.37" y1="178.42" x2="1395.52" y2="182.76"/><line class="cls-19" x1="1433.95" y1="182.03" x2="1396.1" y2="186.37"/><line class="cls-19" x1="1434.54" y1="185.63" x2="1396.69" y2="189.97"/><line class="cls-19" x1="1435.71" y1="195.84" x2="1397.86" y2="200.18"/><line class="cls-19" x1="1436.88" y1="200.05" x2="1399.03" y2="204.39"/><line class="cls-19" x1="1438.05" y1="207.26" x2="1400.2" y2="211.6"/><path class="cls-19" d="M1399,266l-12-74c-.72-4.45,3-8.55,8.29-9.16h0l14.63,90.13h0C1404.58,273.53,1399.7,270.41,1399,266Z"/></svg>
