<svg id="Layer_1" data-name="Layer 1" xmlns="http://www.w3.org/2000/svg" width="522" height="164" viewBox="0 0 522 164"><defs><style>.cls-1{fill:#ccc;}</style></defs><title>musik_fra</title><path d="M169.45,88.42v2.11c0,1.94.49,2.88,1.8,2.88s1.66-1.35,1.66-2.79c0-2.83-.54-3.64-3.6-6.21-3.42-2.88-5.13-4.59-5.13-9s1.4-8.23,7.11-8.23c6,0,6.93,4.14,6.93,7.56v1.71h-5.44v-1.8c0-1.8-.32-2.7-1.44-2.7s-1.44.9-1.44,2.61.36,2.7,2.83,4.63c4.41,3.47,6,5.45,6,10.35,0,4.73-1.62,8.6-7.56,8.6-5.72,0-7.38-3.47-7.38-7.92v-1.8Z"/><path d="M183.53,97.69V66.32h5.81V97.69Z"/><path d="M208.51,92.29c0,2.11,0,4.36.13,5.4h-5.35a12.24,12.24,0,0,1-.36-1.76,4.33,4.33,0,0,1-4.05,2.12c-3.6,0-5-3.33-5-7v-.45c0-6,4.09-7.51,8.5-7.51h.41V80.36c0-1.62-.23-2.34-1.31-2.34s-1.3.81-1.3,2.21v.54h-5.58v-.36c0-4.14,1.89-6.8,7.11-6.8,4.68,0,6.84,2.25,6.84,6.39Zm-10.89-24a4,4,0,1,1,4,3.91A3.83,3.83,0,0,1,197.62,68.26Zm5.17,18.9h-.54c-1.71,0-2.83.76-2.83,3.24v.31c0,1.62.54,2.48,1.66,2.48s1.71-.81,1.71-3.24Zm.27-19a1.5,1.5,0,0,0-1.48-1.62,1.43,1.43,0,0,0-1.44,1.58,1.5,1.5,0,0,0,1.48,1.62A1.45,1.45,0,0,0,203.06,68.21Z"/><path d="M222.14,81.22c0-5.18,0-6.39,0-7.25h5.49a15.9,15.9,0,0,1,.18,1.94,4.57,4.57,0,0,1,4.18-2.3A3.68,3.68,0,0,1,235.78,76a5.32,5.32,0,0,1,4.59-2.39c3.06,0,4.81,2,4.81,6.12v18h-5.71v-17c0-1.35-.36-2.07-1.4-2.07s-1.53.86-1.53,2.75V97.69h-5.76V80.77c0-1.76-.54-2.12-1.39-2.12-1.22,0-1.53.86-1.53,2.66V97.69h-5.72Z"/><path d="M265.66,90.17c0,4,0,6.21,0,7.52h-5.53a16.07,16.07,0,0,1-.18-2.07,4.58,4.58,0,0,1-4.5,2.43c-2.34,0-4.73-1.13-4.73-6.12V74h5.81V90.58c0,1.66.45,2.47,1.57,2.47s1.76-.81,1.76-3.1V74h5.76Z"/><path d="M275.83,90v1.13c0,1.3.27,2.38,1.48,2.38.86,0,1.31-.54,1.31-1.8s-.32-2.2-3.11-4c-3.55-2.21-4.95-3.92-4.95-7.38,0-4.32,2.39-6.71,6.75-6.71,5.31,0,6.75,2.93,6.75,6.93v1h-5.31V80.14c0-1.53-.4-2-1.3-2s-1.22.63-1.22,1.71.45,1.67,2.52,2.93c4.37,2.7,5.67,4.59,5.67,8.14,0,4.64-2,7.16-7.15,7.16-6.08,0-7-3.74-7-7.16V90Z"/><path d="M289.24,74H295V97.69h-5.8Zm0-7.65H295v5.27h-5.76Z"/><path d="M306.34,83.83h.13c.9-2.7,2.52-7.2,3.42-9.86h6c-1.35,3.15-2.84,6.21-4,8.73.36,1.71,4,13.19,4.32,15H310c-.13-1-2.07-8.69-2.16-9.5-.45,1-1.17,2.48-1.48,3.11v6.39h-5.72V66.32h5.72Z"/><path d="M328.39,97.69V79.1h-2.16V74h2.16V72.44c0-3.46,1.21-6.39,5.94-6.39a10.19,10.19,0,0,1,2.25.23V71a5.56,5.56,0,0,0-.81,0c-1.22,0-1.62.54-1.62,1.89V74h2.61V79.1h-2.61V97.69Z"/><path d="M351.51,80.59c-2.78,0-4.76.49-4.76,4.54V97.69h-5.81V82c0-4,0-6,0-8.06h5.49a35.51,35.51,0,0,1,.17,3.56,5,5,0,0,1,4.95-3.92Z"/><path d="M369.51,92.29c0,2.11.05,4.36.14,5.4h-5.36a15.74,15.74,0,0,1-.36-1.76,4.31,4.31,0,0,1-4,2.12c-3.6,0-5-3.33-5-7v-.45c0-6,4.09-7.51,8.5-7.51h.4V80.36c0-1.62-.22-2.34-1.3-2.34s-1.3.81-1.3,2.21v.54h-5.58v-.36c0-4.14,1.89-6.8,7.1-6.8,4.68,0,6.84,2.25,6.84,6.39Zm-5.71-5.13h-.54c-1.71,0-2.84.76-2.84,3.24v.31c0,1.62.54,2.48,1.67,2.48s1.71-.81,1.71-3.24Z"/><rect class="cls-1" x="38.5" y="79.4" width="15" height="32.4"/><polygon class="cls-1" points="85.9 137 53.5 111.8 53.5 79.4 85.9 56.6 85.9 137"/><rect x="34.5" y="73.4" width="15" height="32.4"/><polygon points="81.97 130.97 49.53 105.83 49.47 73.43 81.83 50.57 81.97 130.97"/></svg>
