<svg id="Layer_1" data-name="Layer 1" xmlns="http://www.w3.org/2000/svg" width="521" height="185" viewBox="0 0 521 185"><defs><style>.cls-1{fill:#fff;}</style></defs><title>musik_til</title><path class="cls-1" d="M234.25,97c0-5.15,0-12.45.15-16.55h-.2c-.7,6.65-2.16,20.15-3,27.2h-5.46c-.75-7.3-2.2-21-2.9-27.3h-.2c.1,3.9.25,11.15.25,16.9v10.4H217V74.32h9.2c.85,6.35,1.85,14.65,2.25,19.2h.1c.56-4.85,1.66-11.85,2.66-19.2h9.2v33.35h-6.2Z"/><path class="cls-1" d="M263.15,99.32c0,4.4,0,6.9.05,8.35H257a17.85,17.85,0,0,1-.2-2.3c-1.15,2.15-2.95,2.7-5,2.7-2.6,0-5.25-1.25-5.25-6.8v-20H253V99.77c0,1.85.5,2.75,1.75,2.75,1.4,0,2-.9,2-3.45V81.32h6.4Z"/><path class="cls-1" d="M274.44,99.12v1.25c0,1.45.3,2.65,1.65,2.65,1,0,1.45-.6,1.45-2s-.35-2.45-3.45-4.45c-3.95-2.45-5.5-4.35-5.5-8.2,0-4.8,2.65-7.45,7.5-7.45,5.91,0,7.51,3.25,7.51,7.7v1.1h-5.91V88.17c0-1.7-.45-2.25-1.45-2.25s-1.35.7-1.35,1.9.5,1.85,2.8,3.25c4.85,3,6.31,5.1,6.31,9.05,0,5.15-2.25,7.95-8,7.95-6.75,0-7.75-4.15-7.75-7.95v-1Z"/><path class="cls-1" d="M289.34,81.32h6.45v26.35h-6.45Zm.05-8.5h6.4v5.85h-6.4Z"/><path class="cls-1" d="M308.34,92.27h.15c1-3,2.8-8,3.8-11h6.65c-1.5,3.5-3.15,6.9-4.45,9.7.4,1.9,4.4,14.65,4.8,16.65h-6.9c-.15-1-2.3-9.65-2.4-10.55-.5,1.1-1.3,2.75-1.65,3.45v7.1H302V72.82h6.35Z"/></svg>
