<svg id="Layer_1" data-name="Layer 1" xmlns="http://www.w3.org/2000/svg" width="521" height="185" viewBox="0 0 521 185"><defs><style>.cls-1{opacity:0.24;}.cls-2{fill:none;stroke:#000;stroke-miterlimit:10;stroke-width:7px;}</style></defs><title>musik_til</title><path d="M179.53,111.92V114c0,1.94.49,2.88,1.8,2.88s1.66-1.35,1.66-2.79c0-2.83-.54-3.64-3.6-6.21-3.42-2.88-5.13-4.59-5.13-9s1.4-8.23,7.11-8.23c6,0,6.93,4.14,6.93,7.56V100h-5.44v-1.8c0-1.8-.32-2.7-1.44-2.7s-1.44.9-1.44,2.61.36,2.7,2.83,4.63c4.41,3.47,6,5.45,6,10.35,0,4.73-1.62,8.6-7.56,8.6-5.72,0-7.38-3.47-7.38-7.92v-1.8Z"/><path d="M193.61,121.19V89.82h5.81v31.37Z"/><path d="M218.59,115.79c0,2.11,0,4.36.13,5.4h-5.35a12.24,12.24,0,0,1-.36-1.76,4.33,4.33,0,0,1-4,2.12c-3.6,0-5-3.33-5-7v-.45c0-6,4.09-7.51,8.5-7.51h.41v-2.75c0-1.62-.23-2.34-1.31-2.34s-1.3.81-1.3,2.21v.54h-5.58v-.36c0-4.14,1.89-6.8,7.11-6.8,4.68,0,6.84,2.25,6.84,6.39Zm-10.89-24a4,4,0,1,1,4,3.91A3.83,3.83,0,0,1,207.7,91.76Zm5.17,18.9h-.54c-1.71,0-2.83.76-2.83,3.24v.31c0,1.62.54,2.48,1.66,2.48s1.71-.81,1.71-3.24Zm.27-19a1.5,1.5,0,0,0-1.48-1.62,1.43,1.43,0,0,0-1.44,1.58,1.5,1.5,0,0,0,1.48,1.62A1.45,1.45,0,0,0,213.14,91.71Z"/><path d="M232.22,104.72c0-5.18,0-6.39,0-7.25h5.49a15.9,15.9,0,0,1,.18,1.94,4.57,4.57,0,0,1,4.18-2.3,3.68,3.68,0,0,1,3.83,2.39,5.32,5.32,0,0,1,4.59-2.39c3.06,0,4.81,2,4.81,6.12v18h-5.71v-17c0-1.35-.36-2.07-1.4-2.07s-1.53.86-1.53,2.75v16.29h-5.76V104.27c0-1.76-.54-2.12-1.39-2.12-1.22,0-1.53.86-1.53,2.66v16.38h-5.72Z"/><path d="M275.74,113.67c0,4,0,6.21,0,7.52h-5.53a16.07,16.07,0,0,1-.18-2.07,4.58,4.58,0,0,1-4.5,2.43c-2.34,0-4.73-1.13-4.73-6.12v-18h5.81v16.61c0,1.66.45,2.47,1.57,2.47s1.76-.81,1.76-3.1v-16h5.76Z"/><path d="M285.91,113.49v1.13c0,1.3.27,2.38,1.48,2.38.86,0,1.31-.54,1.31-1.8s-.32-2.2-3.11-4c-3.55-2.21-4.95-3.92-4.95-7.38,0-4.32,2.39-6.71,6.75-6.71,5.31,0,6.75,2.93,6.75,6.93v1h-5.31v-1.39c0-1.53-.4-2-1.3-2s-1.22.63-1.22,1.71.45,1.67,2.52,2.93c4.37,2.7,5.67,4.59,5.67,8.14,0,4.64-2,7.16-7.15,7.16-6.08,0-7-3.74-7-7.16v-.9Z"/><path d="M299.32,97.47h5.8v23.72h-5.8Zm0-7.65h5.76v5.27h-5.76Z"/><path d="M316.42,107.33h.13c.9-2.7,2.52-7.2,3.42-9.86h6c-1.35,3.15-2.84,6.21-4,8.73.36,1.71,4,13.19,4.32,15h-6.21c-.13-1-2.07-8.69-2.16-9.5-.45,1-1.17,2.48-1.48,3.11v6.39H310.7V89.82h5.72Z"/><path d="M336.08,97.47h2.39V92.12h5.71v5.35h2.7v5.13h-2.7v12.33c0,1.08.14,1.71,1.49,1.71a3.66,3.66,0,0,0,1-.09V121a9.93,9.93,0,0,1-3.33.49c-3.46,0-5-1.26-5-5.4V102.6h-2.3Z"/><path d="M351.29,97.47h5.81v23.72h-5.81Zm0-7.65h5.76v5.27h-5.76Z"/><path d="M362.68,121.19V89.82h5.8v31.37Z"/><g class="cls-1"><rect x="41" y="89.9" width="15" height="32.4"/><polygon points="88.4 147.5 56 122.3 56 89.9 88.4 67.1 88.4 147.5"/><line class="cls-2" x1="100.4" y1="89.9" x2="140" y2="128.9"/><line class="cls-2" x1="138.8" y1="91.1" x2="99.2" y2="130.1"/></g><rect x="37" y="83.9" width="15" height="32.4"/><polygon points="84.4 141.5 52 116.3 52 83.9 84.4 61.1 84.4 141.5"/><line class="cls-2" x1="97.66" y1="87.79" x2="137.26" y2="126.79"/><line class="cls-2" x1="136.06" y1="88.99" x2="96.46" y2="127.99"/></svg>
