<svg id="Layer_1" data-name="Layer 1" xmlns="http://www.w3.org/2000/svg" width="634" height="184" viewBox="0 0 634 184"><defs><style>.cls-1{fill:none;stroke-width:16px;}.cls-1,.cls-2{stroke:#000;stroke-miterlimit:10;}.cls-3{opacity:0.25;}.cls-4{fill:#fff;}</style></defs><title>spil_igen</title><path class="cls-1" d="M73.35,114.26A37.65,37.65,0,0,0,111,76.61C111,55.82,94.12,38,73.35,39"/><path class="cls-1" d="M82.05,39.76A37.67,37.67,0,0,0,37.35,68.7"/><polyline class="cls-2" points="73.71 137.34 48.54 112.4 73.48 87.23"/><g class="cls-3"><path class="cls-1" d="M78.36,120.28a32.3,32.3,0,0,0,32.43-32.16c0-17.77-14.54-32.95-32.43-32.17"/><path class="cls-1" d="M85.85,56.64a32.43,32.43,0,0,0-38.5,24.72"/><polyline class="cls-2" points="78.67 140 56.99 118.69 78.47 97.19"/></g><path class="cls-4" d="M189.43,91.67v3.39c0,3.09.79,4.61,2.88,4.61S195,97.5,195,95.2c0-4.54-.86-5.83-5.76-9.94-5.47-4.6-8.2-7.34-8.2-14.4,0-6.84,2.23-13.17,11.37-13.17,9.65,0,11.09,6.62,11.09,12.09v2.74h-8.71V69.64c0-2.88-.51-4.32-2.31-4.32s-2.3,1.44-2.3,4.17c0,2.89.58,4.32,4.54,7.42,7.05,5.55,9.57,8.71,9.57,16.56,0,7.56-2.59,13.76-12.09,13.76-9.15,0-11.81-5.55-11.81-12.68V91.67Z"/><path class="cls-4" d="M209.8,68.56h3.82V60h9.15v8.57h4.32v8.21h-4.32V96.5c0,1.72.21,2.73,2.37,2.73a6.09,6.09,0,0,0,1.66-.14v7.13a15.68,15.68,0,0,1-5.33.79c-5.55,0-8-2-8-8.64V76.77H209.8Z"/><path class="cls-4" d="M256.61,97.87c0,3.38.07,7,.21,8.64h-8.57a22.6,22.6,0,0,1-.57-2.81,7,7,0,0,1-6.48,3.38c-5.76,0-8.07-5.33-8.07-11.16V95.2c0-9.65,6.55-12,13.61-12h.65v-4.4c0-2.59-.36-3.74-2.09-3.74s-2.09,1.3-2.09,3.53v.86h-8.93v-.57c0-6.63,3-10.88,11.38-10.88,7.49,0,11,3.6,11,10.23Zm-9.15-8.21h-.86c-2.74,0-4.54,1.22-4.54,5.18v.5c0,2.6.86,4,2.66,4s2.74-1.29,2.74-5.18Z"/><path class="cls-4" d="M282.52,79.14c-4.46,0-7.63.8-7.63,7.28v20.09H265.6V81.45c0-6.48,0-9.58-.07-12.89h8.79c.14.79.28,4,.28,5.69,1.37-4.4,4.4-6.2,7.92-6.27Z"/><path class="cls-4" d="M288.71,68.56h3.82V60h9.15v8.57H306v8.21h-4.32V96.5c0,1.72.21,2.73,2.37,2.73a6.09,6.09,0,0,0,1.66-.14v7.13a15.68,15.68,0,0,1-5.33.79c-5.54,0-8-2-8-8.64V76.77h-3.68Z"/><path class="cls-4" d="M327,106.51V76.77h-3.46V68.56H327V66.11c0-5.54,1.94-10.23,9.5-10.23a16.47,16.47,0,0,1,3.6.37v7.56a7,7,0,0,0-1.3-.08c-1.94,0-2.59.87-2.59,3v1.8h4.18v8.21h-4.18v29.74Z"/><path class="cls-4" d="M370.22,80.44V94.7c0,8.35-4.47,12.38-12.1,12.38S346.31,103,346.31,94.7V80.08c0-8.43,5.11-12.1,12-12.1C365.47,68,370.22,71.87,370.22,80.44Zm-14.69-.79V95.2c0,2.52.72,4.18,2.74,4.18s2.66-1.59,2.66-4.25V79.58c0-2.31-.5-3.89-2.66-3.89C356.32,75.69,355.53,77.13,355.53,79.65Z"/><path class="cls-4" d="M395.27,79.14c-4.46,0-7.63.8-7.63,7.28v20.09h-9.29V81.45c0-6.48,0-9.58-.07-12.89h8.79c.14.79.28,4,.28,5.69,1.37-4.4,4.4-6.2,7.92-6.27Z"/><path class="cls-4" d="M405.06,106.51V76.77h-3.45V68.56h3.45V66.11c0-5.54,1.95-10.23,9.51-10.23a16.61,16.61,0,0,1,3.6.37v7.56a7,7,0,0,0-1.3-.08c-1.94,0-2.59.87-2.59,3v1.8h4.18v8.21h-4.18v29.74Z"/><path class="cls-4" d="M442.07,79.14c-4.46,0-7.63.8-7.63,7.28v20.09h-9.29V81.45c0-6.48,0-9.58-.07-12.89h8.78a54,54,0,0,1,.29,5.69c1.37-4.4,4.39-6.2,7.92-6.27Z"/><path class="cls-4" d="M470.87,97.87c0,3.38.08,7,.22,8.64h-8.57a22.7,22.7,0,0,1-.58-2.81,7,7,0,0,1-6.48,3.38c-5.76,0-8.06-5.33-8.06-11.16V95.2c0-9.65,6.55-12,13.61-12h.65v-4.4c0-2.59-.36-3.74-2.09-3.74s-2.09,1.3-2.09,3.53v.86h-8.93v-.57c0-6.63,3-10.88,11.38-10.88,7.49,0,10.94,3.6,10.94,10.23Zm-9.14-8.21h-.87c-2.73,0-4.53,1.22-4.53,5.18v.5c0,2.6.86,4,2.66,4s2.74-1.29,2.74-5.18Z"/></svg>
