<svg id="Layer_1" data-name="Layer 1" xmlns="http://www.w3.org/2000/svg" width="568" height="358" viewBox="0 0 568 358"><defs><style>.cls-1{fill:#07afb2;}.cls-2{fill:#56cacc;}.cls-3{fill:#ffdf31;stroke:#ff17b9;stroke-miterlimit:10;stroke-width:3px;}.cls-4{opacity:0.53;}.cls-5{fill:#fff;}</style></defs><title>spil</title><rect class="cls-1" x="52" y="64.5" width="397" height="254" rx="85.55"/><rect class="cls-2" x="76" y="52.5" width="409" height="234" rx="85.55"/><polygon class="cls-3" points="117.5 122.15 117.74 231.27 210.14 180.79 117.5 122.15"/><path class="cls-3" d="M226.32,199.35c10.79,3.93,18.27,5.47,26.83,5.47,2.16,0,3.31-1.71,3.31-5.13,0-2.91-.79-3.94-3.38-3.94h-4a50.35,50.35,0,0,1-9.06-1.37c-6-1.54-9.71-5.48-12.16-13-1.87-5.65-2.8-13.19-2.8-21.92,0-13,1.94-23.46,5.68-30.14,4.24-7.53,12.73-11.81,23.88-11.81a60.39,60.39,0,0,1,25.32,5.65v33.56c-3.67-1.54-13.52-3.6-19.35-3.94h-5.39c-3.31,0-4.61,1.54-4.61,5.14,0,2.91,1,4.62,2.66,4.62l8.64.17c5,.18,9.56,1.72,12.37,4.28,4.53,4.11,7.55,15.41,7.55,28.43,0,12.5-2.8,24.14-7.48,31.16-5,7.53-10.36,9.93-21.36,9.93-9.71,0-16.33-1.37-26.62-5.82Z"/><path class="cls-3" d="M290.42,234.1V119.9h45.1c11.8,0,18.56,14.55,18.56,39.89,0,15.58-2.73,29.28-7.55,37.33-4.68,7.7-10.36,11-19.57,11H315.09v26Zm32.65-57.36q6.92,0,6.91-12.84c0-7.19-1.87-11.13-5.11-11.13h-9.78v24Z"/><path class="cls-3" d="M362.35,234.1V119.9H387V234.1Z"/><path class="cls-3" d="M398.32,234.1V119.9H423v73.8h21v40.4Z"/><g class="cls-4"><path class="cls-5" d="M465.23,126.3c-2.21-14.09-4.84-29.16-13.08-39.15-3.13-3.78-6.89-6.59-10.61-9.34-6-4.4-12.11-8.86-18.88-10.08-4.3-.78-8.65-.21-12.94.48-3.49.57-7.46,1.61-9.14,5.51-2.49,5.78,2.16,12.93,7.16,15s10.52,1.48,15.39,4.06A27.91,27.91,0,0,1,429,97.29c7.94,7.44,15.46,16.8,18.16,28.79,1.72,7.66,2.06,17.28,7.62,21,4.41,3,10.33-.22,12.33-5.91s.46-12.84-3-17.43"/><path class="cls-5" d="M466.43,125.76c-1.57-9.93-3.28-20.05-7-28.92-3.86-9.23-9.62-14.88-16.09-19.73-6.84-5.14-13.89-10.28-21.58-11.34a39.51,39.51,0,0,0-13.31.8c-2.59.53-5.34,1.28-7.41,3.68-4.12,4.8-2.26,12.37,1.53,16.66C409,94.22,417.91,90.84,425,96a57.89,57.89,0,0,1,18.9,24.18c3.08,7.78,2.75,18.27,7,25,4.05,6.4,10.93,6.17,15.14.74,5.08-6.55,3.28-17-1.17-23.53-1.17-1.73-2.85,1-1.68,2.69,3.68,5.41,5.1,14.19.33,18.95-3.76,3.75-9,3-11.65-2.94-3.36-7.38-3.18-16.93-6.6-24.54-3.66-8.16-9.07-14.44-14.59-19.79-2.72-2.64-5.51-5.1-8.66-6.42C418.6,88.93,415,88.83,411.48,88s-9.16-3.11-10.17-9.31c-1.38-8.42,8.32-8.71,11.72-9.13,9.22-1.13,17,2,25.37,8C445.55,82.69,452.58,87.88,457,98c3.81,8.73,5.47,19,7,28.83.36,2.32,2.77,1.23,2.4-1.09Z"/></g></svg>
