<svg id="Layer_1" data-name="Layer 1" xmlns="http://www.w3.org/2000/svg" width="1601" height="900" viewBox="0 0 1601 900"><defs><style>.cls-1{fill:#b7f1f9;}.cls-2{fill:#8fe8ef;}.cls-22,.cls-3,.cls-5,.cls-6,.cls-7{fill:#fff;}.cls-3{stroke:#fff;stroke-linecap:round;stroke-linejoin:round;opacity:0.59;}.cls-4{fill:#999;}.cls-5{opacity:0.34;}.cls-6{opacity:0.3;}.cls-8{fill:#fbb03b;}.cls-9{fill:#c69c6d;}.cls-10{fill:#c7b299;}.cls-10,.cls-11{stroke:#603813;}.cls-10,.cls-11,.cls-22,.cls-24,.cls-25,.cls-27{stroke-miterlimit:10;}.cls-11,.cls-24,.cls-25,.cls-27{fill:none;}.cls-12{fill:red;}.cls-13{fill:#e8d460;}.cls-14{fill:#f15a24;}.cls-15{fill:#ff0;}.cls-16{fill:#006837;}.cls-17{fill:#0071bc;}.cls-18{fill:#c1272d;}.cls-19{fill:#ccc;}.cls-20{fill:#b22287;}.cls-21{fill:#a67c52;}.cls-22,.cls-24{stroke:#000;}.cls-22{stroke-width:0.25px;}.cls-23{opacity:0.86;}.cls-24{stroke-width:2px;}.cls-25{stroke:gray;}.cls-26{fill:#e6e6e6;}.cls-27{stroke:#999;}.cls-28{fill:#724e2a;}</style></defs><title>spille_baggrund</title><rect class="cls-1" x="0.5" width="1600" height="900"/><rect class="cls-2" x="100.27" y="168.12" width="250.46" height="426.02"/><path d="M350.23,168.62v425H100.77v-425H350.23m1-1H99.77v427H351.23v-427Z"/><path class="cls-3" d="M338.12,248.7c.05-.56.09-1.14.09-1.71,0-10.56-10-19.12-22.43-19.12l-.56,0c-1.88-8.94-11-15.73-22.07-15.73-8.14,0-15.27,3.69-19.2,9.22a25.67,25.67,0,0,0-9.3-1.72c-12.39,0-22.43,8.56-22.43,19.11a16.71,16.71,0,0,0,2.36,8.53c-10.47,2-18.29,10-18.29,19.51h0c0,11.05,10.51,20,23.48,20h78.38c13,0,23.47-9,23.47-20h0C351.62,258.8,346.1,251.89,338.12,248.7Z"/><polygon class="cls-4" points="330.82 351.63 330.82 438.55 290 438.55 290 375 226.74 375 226.74 517.06 195.11 517.06 195.11 305.83 151.74 305.83 151.74 438.55 127.76 438.55 127.76 375 81.33 375 81.33 594.64 127.76 594.64 151.74 594.64 195.11 594.64 226.74 594.64 290 594.64 330.82 594.64 351.23 594.64 351.23 351.63 330.82 351.63"/><polygon class="cls-5" points="398.97 423.48 54.62 330.68 70.41 260.1 397.6 411.5 398.97 423.48"/><polygon class="cls-6" points="39.19 406.84 370.57 566.35 403.57 483.79 47.99 395.8 39.19 406.84"/><path class="cls-7" d="M336.71,184.41V584H117.47V184.41H336.71m36-36H81.47V620H372.71V148.41Z"/><rect class="cls-1" x="372.71" y="370.21" width="64.46" height="205.21"/><rect class="cls-1" x="16.88" y="239.38" width="64.46" height="205.21"/><polygon class="cls-8" points="383.56 609.09 73.13 609.09 55.91 630.83 399.45 630.83 383.56 609.09"/><rect class="cls-7" x="216.51" y="173.55" width="21.15" height="421.95"/><polygon class="cls-8" points="381.45 148.41 71.01 148.41 53.8 126.67 397.34 126.67 381.45 148.41"/><polygon class="cls-8" points="1535.02 127.17 1118.56 127.17 1095.47 98.92 1556.33 98.92 1535.02 127.17"/><rect class="cls-9" x="496.56" y="76" width="445.84" height="347"/><rect class="cls-10" x="521.51" y="97.96" width="397.6" height="296.93"/><rect class="cls-7" x="541.06" y="120.36" width="111.53" height="170.15"/><line class="cls-11" x1="553.45" y1="145.35" x2="635.7" y2="145.35"/><line class="cls-11" x1="552.89" y1="159.63" x2="635.13" y2="159.63"/><line class="cls-11" x1="554.02" y1="152.49" x2="636.26" y2="152.49"/><line class="cls-11" x1="552.33" y1="165.58" x2="634.57" y2="165.58"/><line class="cls-11" x1="551.76" y1="179.85" x2="634.01" y2="179.85"/><line class="cls-11" x1="552.89" y1="172.72" x2="635.13" y2="172.72"/><line class="cls-11" x1="552.33" y1="206.03" x2="634.57" y2="206.03"/><line class="cls-11" x1="551.76" y1="220.31" x2="634.01" y2="220.31"/><line class="cls-11" x1="552.89" y1="213.17" x2="635.13" y2="213.17"/><line class="cls-11" x1="551.2" y1="226.26" x2="633.44" y2="226.26"/><line class="cls-11" x1="551.76" y1="233.4" x2="634.01" y2="233.4"/><line class="cls-11" x1="552.33" y1="184.61" x2="634.57" y2="184.61"/><line class="cls-11" x1="551.76" y1="198.89" x2="634.01" y2="198.89"/><line class="cls-11" x1="552.89" y1="191.75" x2="635.13" y2="191.75"/><ellipse class="cls-12" cx="564.16" cy="256.6" rx="12.96" ry="13.68"/><line class="cls-11" x1="582.18" y1="239.35" x2="633.44" y2="239.35"/><line class="cls-11" x1="582.18" y1="245.3" x2="633.44" y2="245.3"/><line class="cls-11" x1="582.18" y1="251.24" x2="633.44" y2="251.24"/><line class="cls-11" x1="582.18" y1="257.19" x2="633.44" y2="257.19"/><line class="cls-11" x1="582.18" y1="261.95" x2="633.44" y2="261.95"/><line class="cls-11" x1="582.18" y1="267.9" x2="633.44" y2="267.9"/><rect class="cls-13" x="823.8" y="132.53" width="42.49" height="38.15"/><line class="cls-11" x1="827.52" y1="139.26" x2="860.98" y2="139.26"/><line class="cls-11" x1="827.52" y1="144.87" x2="860.98" y2="144.87"/><line class="cls-11" x1="827.52" y1="151.6" x2="860.98" y2="151.6"/><line class="cls-11" x1="827.52" y1="158.34" x2="860.98" y2="158.34"/><line class="cls-11" x1="827.52" y1="165.07" x2="860.98" y2="165.07"/><polygon class="cls-13" points="802.13 156.22 760.75 145.99 768.99 108.84 810.36 119.08 802.13 156.22"/><line class="cls-11" x1="771.15" y1="116.29" x2="803.74" y2="124.35"/><line class="cls-11" x1="769.94" y1="121.76" x2="802.52" y2="129.81"/><line class="cls-11" x1="767.04" y1="134.87" x2="799.62" y2="142.92"/><polygon class="cls-13" points="807.48 209.15 765.63 216.9 759.38 179.33 801.24 171.57 807.48 209.15"/><line class="cls-11" x1="764.15" y1="185.28" x2="797.11" y2="179.17"/><line class="cls-11" x1="765.07" y1="190.81" x2="798.03" y2="184.7"/><line class="cls-11" x1="767.27" y1="204.07" x2="800.23" y2="197.96"/><line class="cls-11" x1="768.37" y1="210.7" x2="801.33" y2="204.59"/><circle class="cls-14" cx="546.51" cy="125.95" r="2.1"/><circle class="cls-14" cx="645.88" cy="128.58" r="2.1"/><circle class="cls-15" cx="548.08" cy="275.79" r="2.1"/><circle class="cls-16" cx="642.72" cy="284.2" r="2.1"/><circle class="cls-16" cx="779.42" cy="174.84" r="2.1"/><circle class="cls-17" cx="844.61" cy="132.78" r="2.1"/><circle class="cls-18" cx="789.93" cy="113.85" r="2.1"/><rect class="cls-7" x="724.74" y="280.78" width="173.5" height="98.84"/><rect class="cls-19" x="738.41" y="291.82" width="146.16" height="76.76"/><polygon class="cls-20" points="878.37 310.55 878.37 331.45 865.96 331.45 865.96 316.17 846.74 316.17 846.74 350.34 837.13 350.34 837.13 299.54 823.95 299.54 823.95 331.45 816.66 331.45 816.66 316.17 803.32 316.17 803.32 310.55 798.41 310.55 798.41 331.45 788.59 331.45 788.59 316.17 773.38 316.17 773.38 350.34 765.77 350.34 765.77 299.54 755.34 299.54 755.34 331.45 749.57 331.45 749.57 316.17 738.41 316.17 738.41 368.99 749.57 368.99 755.34 368.99 765.77 368.99 773.38 368.99 788.59 368.99 798.41 368.99 802.55 368.99 803.32 368.99 816.66 368.99 823.95 368.99 837.13 368.99 846.74 368.99 865.96 368.99 878.37 368.99 884.57 368.99 884.57 310.55 878.37 310.55"/><rect class="cls-21" x="292.92" y="745.08" width="290" height="15.83" transform="translate(-315.08 1190.92) rotate(-90)"/><rect class="cls-21" x="331.25" y="745.08" width="290" height="15.83" transform="translate(-276.75 1229.25) rotate(-90)"/><rect class="cls-8" x="407.5" y="592.17" width="554.17" height="15.83"/><rect class="cls-21" x="407.5" y="583.83" width="554.17" height="15.83"/><rect class="cls-21" x="776.25" y="745.08" width="290" height="15.83" transform="translate(168.25 1674.25) rotate(-90)"/><rect class="cls-21" x="737.92" y="745.08" width="290" height="15.83" transform="translate(129.92 1635.92) rotate(-90)"/><rect class="cls-22" x="1121.77" y="126.25" width="413.33" height="773.33"/><g class="cls-23"><rect class="cls-2" x="1207.47" y="191.25" width="240.71" height="202.45"/></g><polygon class="cls-5" points="1476.86 301.66 1179.91 224.56 1193.53 165.94 1475.67 291.7 1476.86 301.66"/><polygon class="cls-6" points="1171.27 283.33 1457.04 415.83 1485.5 347.25 1178.86 274.16 1171.27 283.33"/><line class="cls-24" x1="1448" y1="393.71" x2="1486.33" y2="423.33"/><line class="cls-24" x1="1448" y1="191.25" x2="1486.33" y2="158.33"/><line class="cls-24" x1="1207.17" y1="191.25" x2="1170.5" y2="158.33"/><line class="cls-24" x1="1207.17" y1="393.71" x2="1170.5" y2="423.33"/><path class="cls-19" d="M1170.9,158.33v265H1486v-265Zm277.1,235H1207.17V191.67H1448Z"/><line class="cls-25" x1="1207.17" y1="191.67" x2="1170.5" y2="158.33"/><line class="cls-25" x1="1486.33" y1="158.33" x2="1448" y2="191.67"/><line class="cls-25" x1="1448" y1="393.33" x2="1486.33" y2="423.33"/><line class="cls-25" x1="1207.17" y1="393.33" x2="1170.5" y2="423.33"/><g class="cls-23"><rect class="cls-26" x="1207.01" y="525.88" width="239.96" height="325.21"/><path d="M1446.6,526.25V850.71H1207.39V526.25H1446.6m.75-.75H1206.64v326h240.71v-326Z"/></g><line class="cls-24" x1="1447.17" y1="851.46" x2="1485.5" y2="899.17"/><line class="cls-24" x1="1447.17" y1="525.5" x2="1485.5" y2="472.5"/><line class="cls-24" x1="1206.33" y1="525.5" x2="1169.67" y2="472.5"/><line class="cls-24" x1="1206.33" y1="851.46" x2="1169.67" y2="899.17"/><path class="cls-19" d="M1170.06,472.5V899.17h315.08V472.5Zm277.11,378.36H1206.33V526.17h240.84Z"/><line class="cls-27" x1="1206.33" y1="526.17" x2="1169.67" y2="472.5"/><line class="cls-27" x1="1485.5" y1="472.5" x2="1447.17" y2="526.17"/><line class="cls-27" x1="1447.17" y1="850.86" x2="1485.5" y2="899.17"/><line class="cls-27" x1="1206.33" y1="850.86" x2="1169.67" y2="899.17"/><circle class="cls-28" cx="1155.78" cy="447.92" r="18.95"/></svg>
