<svg id="Layer_1" data-name="Layer 1" xmlns="http://www.w3.org/2000/svg" width="118" height="60" viewBox="0 0 118 60"><defs><style>.cls-1{fill:#fff9c9;}</style></defs><title>tænder</title><path class="cls-1" d="M48.77,13.76c.8-1.67,5-1.79,5.51,0,1.13,3.73.55,16-2,16S47.31,16.84,48.77,13.76Z"/><path class="cls-1" d="M40.14,13.14c.17-.36,1-.38,1.17,0,.24.79.11,3.39-.42,3.41S39.83,13.79,40.14,13.14Z"/><path class="cls-1" d="M41.14,13.14c.17-.36,1-.38,1.17,0,.24.79.11,3.39-.42,3.41S40.83,13.79,41.14,13.14Z"/><path class="cls-1" d="M42.14,13.14c.17-.36,1-.38,1.17,0,.24.79.11,3.39-.42,3.41S41.83,13.79,42.14,13.14Z"/><path class="cls-1" d="M43.14,13.14c.17-.36,1-.38,1.17,0,.24.79.11,3.39-.42,3.41S42.83,13.79,43.14,13.14Z"/><path class="cls-1" d="M44.14,13.14c.17-.36,1-.38,1.17,0,.24.79.11,3.39-.42,3.41S43.83,13.79,44.14,13.14Z"/><path class="cls-1" d="M45.14,13.14c.17-.36,1-.38,1.17,0,.24.79.11,3.39-.42,3.41S44.83,13.79,45.14,13.14Z"/><path class="cls-1" d="M46.14,13.14c.17-.36,1-.38,1.17,0,.24.79.11,3.39-.42,3.41S45.83,13.79,46.14,13.14Z"/><path class="cls-1" d="M47.14,13.14c.17-.36,1-.38,1.17,0,.24.79.11,3.39-.42,3.41S46.83,13.79,47.14,13.14Z"/><path class="cls-1" d="M48.14,13.14c.17-.36,1-.38,1.17,0,.24.79.11,3.39-.42,3.41S47.83,13.79,48.14,13.14Z"/><path class="cls-1" d="M35.45,13.56c.95-1.59,5.1-1.33,5.48.52.78,3.82-.94,16-3.44,15.79S33.7,16.49,35.45,13.56Z"/></svg>
