<svg id="Layer_1" data-name="Layer 1" xmlns="http://www.w3.org/2000/svg" width="590" height="141" viewBox="0 0 590 141"><defs><style>.cls-1{opacity:0.35;}.cls-2{fill:#8bef94;}.cls-3{fill:#faff9f;}.cls-4{fill:#ff8d7f;}.cls-5{fill:#d27c25;}.cls-6{fill:#f09925;}</style></defs><title>tid</title><path class="cls-1" d="M557.55,56.82H89c-2.18-8.46-7.31-14.67-13.48-15.67A5.42,5.42,0,0,0,76,38.73c0-1.88-.76-3.4-1.69-3.4s-1.7,1.52-1.7,3.4A5.51,5.51,0,0,0,73.08,41c-8.73.53-15.71,11.44-15.71,24.83q0,.72,0,1.44a26.29,26.29,0,0,1-9.7,17.14C42.79,87,39.83,90.3,39.83,93.9c0,7,11.11,12.84,26.1,14.46a2.89,2.89,0,0,0-1.22,2.18c0,2.19,3.3,4,7.36,4s7.35-1.77,7.35-4a2.62,2.62,0,0,0-.86-1.85c17-.9,30.26-7.18,30.26-14.79a7.32,7.32,0,0,0-1.25-4h450a8.53,8.53,0,0,0,8.53-8.53v-16A8.53,8.53,0,0,0,557.55,56.82Z"/><rect class="cls-2" x="65.76" y="50.82" width="492.32" height="33.1" rx="8.53"/><rect class="cls-3" x="64.63" y="50.82" width="364.29" height="33.1" rx="8.53"/><rect class="cls-4" x="57.85" y="50.82" width="212.74" height="33.1" rx="8.53"/><ellipse class="cls-5" cx="64.07" cy="104.54" rx="7.35" ry="3.96"/><path class="cls-6" d="M92.22,78.05h0A26.35,26.35,0,0,1,82.11,59.42c0-.8,0-1.59-.1-2.36v0h0c-.92-12.41-7.85-22-16.27-22-9,0-16.37,11.12-16.37,24.85q0,.72,0,1.44a26.29,26.29,0,0,1-9.7,17.14C34.79,81,31.83,84.3,31.83,87.9c0,8.23,15.45,14.91,34.5,14.91s34.49-6.68,34.49-14.91C100.82,84.12,97.57,80.68,92.22,78.05Z"/><ellipse class="cls-6" cx="66.33" cy="32.73" rx="1.7" ry="3.39"/></svg>
