<svg id="Layer_1" data-name="Layer 1" xmlns="http://www.w3.org/2000/svg" width="41" height="93" viewBox="0 0 41 93"><defs><style>.cls-1{fill:#fff;}</style></defs><title>Artboard 36</title><rect x="7.5" y="8.5" width="25" height="73" rx="10.87"/><path class="cls-1" d="M21.63,9A10.38,10.38,0,0,1,32,19.37V70.63A10.38,10.38,0,0,1,21.63,81H18.37A10.38,10.38,0,0,1,8,70.63V19.37A10.38,10.38,0,0,1,18.37,9h3.26m0-1H18.37A11.37,11.37,0,0,0,7,19.37V70.63A11.37,11.37,0,0,0,18.37,82h3.26A11.37,11.37,0,0,0,33,70.63V19.37A11.37,11.37,0,0,0,21.63,8Z"/></svg>
