<svg id="Layer_1" data-name="Layer 1" xmlns="http://www.w3.org/2000/svg" width="1408" height="920" viewBox="0 0 1408 920"><defs><style>.cls-1{opacity:0.2;}.cls-2{fill:#ffa0b2;opacity:0.84;}.cls-3{fill:#b22287;}</style></defs><title>tillykke</title><rect class="cls-1" x="129" y="119.67" width="1051.4" height="730.33" rx="147.83"/><rect class="cls-2" x="184.51" y="87" width="1051.4" height="730.33" rx="147.83"/><path class="cls-3" d="M524.54,148.75v13a1.3,1.3,0,1,1-2.59,0v-12H508v49.39h6.55c.8,0,1.37.44,1.37,1.16s-.57,1.15-1.37,1.15H484.15c-.79,0-1.37-.43-1.37-1.15a1.21,1.21,0,0,1,1.37-1.16h6.55V149.69h-14v12a1.3,1.3,0,1,1-2.59,0v-13a1.29,1.29,0,0,1,1.37-1.37h47.66A1.29,1.29,0,0,1,524.54,148.75Z"/><path class="cls-3" d="M555.72,149.69v49.39h6.77a1.2,1.2,0,0,1,1.36,1.16c0,.72-.57,1.15-1.36,1.15H531.67c-.8,0-1.37-.43-1.37-1.15s.57-1.16,1.37-1.16h6.76V149.69h-6.76c-.8,0-1.37-.44-1.37-1.15s.57-1.16,1.37-1.16h30.82a1.2,1.2,0,0,1,1.36,1.16c0,.71-.57,1.15-1.36,1.15Z"/><path class="cls-3" d="M594.81,149.69v49.39h18.8v-11a1.37,1.37,0,1,1,2.73,0v12a1.25,1.25,0,0,1-1.37,1.37H571c-.79,0-1.37-.43-1.37-1.15a1.21,1.21,0,0,1,1.37-1.16h6.55V149.69H571c-.79,0-1.37-.44-1.37-1.15a1.21,1.21,0,0,1,1.37-1.16h30.38c.8,0,1.37.44,1.37,1.16s-.57,1.15-1.37,1.15Z"/><path class="cls-3" d="M646.58,149.69v49.39h18.79v-11a1.38,1.38,0,1,1,2.74,0v12a1.25,1.25,0,0,1-1.37,1.37h-44c-.8,0-1.37-.43-1.37-1.15s.57-1.16,1.37-1.16h6.55V149.69h-6.55c-.8,0-1.37-.44-1.37-1.15s.57-1.16,1.37-1.16h30.38a1.21,1.21,0,0,1,1.37,1.16c0,.71-.58,1.15-1.37,1.15Z"/><path class="cls-3" d="M719.16,149.69l-14.48,25.2v24.19h6.56c.79,0,1.37.36,1.37,1.16s-.58,1.15-1.37,1.15H680.85c-.79,0-1.37-.43-1.37-1.15s.58-1.16,1.37-1.16h6.55V175.39l-14.54-25.7H667c-.8,0-1.37-.36-1.37-1.15s.57-1.16,1.37-1.16h29.66a1.21,1.21,0,0,1,1.37,1.16c0,.79-.58,1.15-1.37,1.15h-5.61l12.52,21.74,12.46-21.74h-7.27c-.79,0-1.37-.36-1.37-1.15a1.21,1.21,0,0,1,1.37-1.16h15.62c.8,0,1.37.44,1.37,1.16s-.57,1.15-1.37,1.15Z"/><path class="cls-3" d="M755.3,149.69v49.39h6.55a1.21,1.21,0,0,1,1.37,1.16c0,.72-.58,1.15-1.37,1.15H731.46c-.79,0-1.36-.43-1.36-1.15a1.2,1.2,0,0,1,1.36-1.16H738V149.69h-6.56c-.79,0-1.36-.44-1.36-1.15a1.2,1.2,0,0,1,1.36-1.16h30.39a1.21,1.21,0,0,1,1.37,1.16c0,.71-.58,1.15-1.37,1.15Zm25.63,0c-.28,13.89-7.13,28.22-16.27,33.55a14.65,14.65,0,0,1,7.7,4.75l5.19,5.69c2.52,2.74,5,5.26,8.64,5.26,1.66,0,2.23.43,2.23,1.22s-.57,1.23-2.3,1.23c-4.47,0-7.49-2.16-10.73-5.69l-5.33-5.91c-2.52-2.8-5.18-4.53-9.43-4.53-.72,0-1.51-.29-1.51-1.23a1.08,1.08,0,0,1,.86-1.15c9.86-3.17,17.79-18.86,18.07-33.19H771.5c-.79,0-1.37-.44-1.37-1.15a1.21,1.21,0,0,1,1.37-1.16h15.91c.8,0,1.37.44,1.37,1.16s-.57,1.15-1.37,1.15Z"/><path class="cls-3" d="M818.3,149.69v49.39h6.55a1.21,1.21,0,0,1,1.37,1.16c0,.72-.58,1.15-1.37,1.15H794.46c-.79,0-1.36-.43-1.36-1.15a1.2,1.2,0,0,1,1.36-1.16H801V149.69h-6.56c-.79,0-1.36-.44-1.36-1.15a1.2,1.2,0,0,1,1.36-1.16h30.39a1.21,1.21,0,0,1,1.37,1.16c0,.71-.58,1.15-1.37,1.15Zm25.63,0c-.28,13.89-7.13,28.22-16.27,33.55a14.65,14.65,0,0,1,7.7,4.75l5.19,5.69c2.52,2.74,5,5.26,8.64,5.26,1.66,0,2.23.43,2.23,1.22s-.57,1.23-2.3,1.23c-4.47,0-7.49-2.16-10.73-5.69l-5.33-5.91c-2.52-2.8-5.18-4.53-9.43-4.53-.72,0-1.51-.29-1.51-1.23a1.08,1.08,0,0,1,.86-1.15c9.86-3.17,17.79-18.86,18.07-33.19H834.5c-.79,0-1.37-.44-1.37-1.15a1.21,1.21,0,0,1,1.37-1.16h15.91c.8,0,1.37.44,1.37,1.16s-.57,1.15-1.37,1.15Z"/><path class="cls-3" d="M881.3,171.87v27.21h19.51V188.71a1.38,1.38,0,1,1,2.74,0V200a1.25,1.25,0,0,1-1.37,1.37H857.46c-.79,0-1.36-.43-1.36-1.15a1.2,1.2,0,0,1,1.36-1.16H864V149.69h-6.56c-.79,0-1.36-.44-1.36-1.15a1.2,1.2,0,0,1,1.36-1.16h44.36a1.25,1.25,0,0,1,1.37,1.37v12a1.38,1.38,0,1,1-2.74,0V149.69H881.3v19.73h13.9a1.23,1.23,0,0,1,0,2.45Z"/><path class="cls-3" d="M918.16,182.16c-2.37-6.84-5.4-19.58-5.4-26.86,0-5.83,3.46-9.29,7.71-9.29s7.7,3.46,7.7,9.29c0,7.28-3,20-5.4,26.86-.5,1.44-1.15,1.87-2.3,1.87S918.67,183.6,918.16,182.16Zm-4,13.9a6.23,6.23,0,1,1,6.27,6.19A6.27,6.27,0,0,1,914.2,196.06Z"/><path class="cls-3" d="M338.62,224.8h6v13.92h.09c1-3,3.12-9.55,4.56-13.92h6.82l-5.38,12.39,5.57,19.63h-6.67l-3.17-13.49-1.82,4.08v9.41h-6Z"/><path class="cls-3" d="M373.38,248.81c0,4.22,0,6.62.05,8h-5.91a18.13,18.13,0,0,1-.19-2.21,4.86,4.86,0,0,1-4.8,2.6c-2.5,0-5-1.2-5-6.53V231.52h6.19v17.72c0,1.77.48,2.64,1.68,2.64s1.87-.87,1.87-3.31v-17h6.15Z"/><path class="cls-3" d="M376.93,239.11c0-4.51,0-6.63-.05-7.59h5.91a18.58,18.58,0,0,1,.19,2.16,5.19,5.19,0,0,1,4.75-2.54c3.36,0,5.14,2.21,5.14,6.58v19.1h-6.15V239c0-1.73-.53-2.49-1.68-2.49-1.39,0-1.92.76-1.92,3.26v17h-6.19Z"/><path class="cls-3" d="M411.87,223.36v26.41c0,3.6,0,5.71.05,7h-5.86a22.67,22.67,0,0,1-.19-2.3,4.66,4.66,0,0,1-4.61,2.69c-4,0-5.32-3.08-5.32-8.07V238.72c0-4.17,1.48-7.58,5.76-7.58,1.63,0,3.31.48,4,1.82v-9.6Zm-9.79,25.78c0,1.73.43,2.74,1.78,2.74s1.82-1.3,1.82-3.46v-8.5c0-2.25-.24-3.4-1.78-3.4-1.34,0-1.82.91-1.82,2.68Z"/><path class="cls-3" d="M421,245.78v3.65c0,1.63.38,2.83,1.78,2.83s1.72-1.29,1.72-2.88v-.57h6v.33c0,3.41-1.06,8.07-7.73,8.07-6.48,0-7.88-3.7-7.88-8.88v-8.55c0-4.18,1.92-8.64,7.92-8.64,5.33,0,7.78,3.22,7.78,8.59v6.05Zm3.65-4.42v-2.44c0-2-.43-2.88-1.83-2.88-1.15,0-1.82.86-1.82,2.88v2.44Z"/><path class="cls-3" d="M433.47,239.11c0-4.51,0-6.63-.05-7.59h5.91a18.58,18.58,0,0,1,.19,2.16,5.19,5.19,0,0,1,4.75-2.54c3.36,0,5.14,2.21,5.14,6.58v19.1h-6.15V239c0-1.73-.52-2.49-1.68-2.49-1.39,0-1.92.76-1.92,3.26v17h-6.19Z"/><path class="cls-3" d="M459.1,223.36h6.2v10.28a4.82,4.82,0,0,1,4.46-2.5c3.79,0,5.28,2.88,5.28,7.54v9.17c0,5.47-.91,9.36-5.86,9.36a4.22,4.22,0,0,1-4.17-2.55c0,.87-.1,1.59-.15,2.16h-5.81c.1-1.53.05-4.27.05-6.29Zm9.8,16.32c0-1.87-.24-3.16-1.73-3.16s-1.87,1.1-1.87,3.31v8.83c0,2.35.57,3.22,1.82,3.22,1.06,0,1.78-.82,1.78-3.31Z"/><path class="cls-3" d="M478.11,256.82V223.36h6.19v33.46Z"/><path class="cls-3" d="M493.47,245.78v3.65c0,1.63.38,2.83,1.78,2.83S497,251,497,249.38v-.57h6v.33c0,3.41-1.06,8.07-7.73,8.07-6.48,0-7.88-3.7-7.88-8.88v-8.55c0-4.18,1.92-8.64,7.92-8.64,5.33,0,7.78,3.22,7.78,8.59v6.05Zm3.65-4.42v-2.44c0-2-.43-2.88-1.83-2.88-1.15,0-1.82.86-1.82,2.88v2.44Z"/><path class="cls-3" d="M510.85,231.52c.72,5.33,1.68,13.88,2.16,18.73h.14c.38-5,1.63-13,2.35-18.73h6.15l-4.9,25.3h-7.63l-4.9-25.3Z"/><path class="cls-3" d="M529.66,239.25c0-5.52,0-6.81,0-7.73h5.86a16.09,16.09,0,0,1,.19,2.07,4.88,4.88,0,0,1,4.47-2.45,3.93,3.93,0,0,1,4.08,2.54,5.7,5.7,0,0,1,4.89-2.54c3.27,0,5.14,2.11,5.14,6.53v19.15h-6.1v-18.1c0-1.44-.38-2.2-1.49-2.2s-1.63.91-1.63,2.92v17.38h-6.14v-18c0-1.87-.58-2.25-1.49-2.25-1.3,0-1.63.91-1.63,2.83v17.47h-6.1Z"/><path class="cls-3" d="M563.4,245.78v3.65c0,1.63.39,2.83,1.78,2.83s1.73-1.29,1.73-2.88v-.57h6v.33c0,3.41-1.06,8.07-7.73,8.07-6.48,0-7.87-3.7-7.87-8.88v-8.55c0-4.18,1.92-8.64,7.92-8.64,5.33,0,7.78,3.22,7.78,8.59v6.05Zm3.65-4.42v-2.44c0-2-.43-2.88-1.82-2.88-1.15,0-1.83.86-1.83,2.88v2.44Z"/><path class="cls-3" d="M591.58,254.76c0,6.05-.58,10.66-8.35,10.66-5.91,0-7.54-3.41-7.54-6.77v-.15h6.15v.1a1.69,1.69,0,0,0,1.72,1.92c1.68,0,1.92-1.25,1.92-4V253.7a4.3,4.3,0,0,1-4.27,2.45c-4.56,0-5.57-3.55-5.57-7.78v-9.65c0-3.45,1.16-7.58,6-7.58,2.49,0,3.74,1.1,4.22,2.59a17.89,17.89,0,0,1,.24-2.21h5.62c0,1.64-.1,4-.1,7Zm-9.79-6.87c0,2,.48,3,1.73,3,1.48,0,1.87-1.06,1.87-3.5v-7.88c0-1.53-.15-3-1.68-3-1.2,0-1.92.76-1.92,2.68Z"/><path class="cls-3" d="M600.75,245.78v3.65c0,1.63.38,2.83,1.77,2.83s1.73-1.29,1.73-2.88v-.57h6v.33c0,3.41-1,8.07-7.73,8.07-6.48,0-7.87-3.7-7.87-8.88v-8.55c0-4.18,1.92-8.64,7.92-8.64,5.33,0,7.78,3.22,7.78,8.59v6.05Zm3.65-4.42v-2.44c0-2-.44-2.88-1.83-2.88-1.15,0-1.82.86-1.82,2.88v2.44Z"/><path class="cls-3" d="M611.79,231.52h2.54v-5.71h6.1v5.71h2.88V237h-2.88v13.15c0,1.15.14,1.82,1.58,1.82a4.23,4.23,0,0,0,1.11-.09v4.75a10.58,10.58,0,0,1-3.56.53c-3.69,0-5.32-1.35-5.32-5.76V237h-2.45Z"/><path class="cls-3" d="M647.21,254.76c0,6.05-.57,10.66-8.35,10.66-5.91,0-7.54-3.41-7.54-6.77v-.15h6.15v.1a1.69,1.69,0,0,0,1.73,1.92c1.68,0,1.92-1.25,1.92-4V253.7a4.31,4.31,0,0,1-4.28,2.45c-4.56,0-5.57-3.55-5.57-7.78v-9.65c0-3.45,1.16-7.58,6-7.58,2.49,0,3.74,1.1,4.22,2.59a20.08,20.08,0,0,1,.24-2.21h5.62c0,1.64-.1,4-.1,7Zm-9.79-6.87c0,2,.48,3,1.73,3,1.49,0,1.87-1.06,1.87-3.5v-7.88c0-1.53-.14-3-1.68-3-1.2,0-1.92.76-1.92,2.68Z"/><path class="cls-3" d="M650.76,256.82V223.36H657v33.46Z"/><path class="cls-3" d="M675,251.06c0,2.26,0,4.66.15,5.76h-5.71a13.88,13.88,0,0,1-.39-1.87,4.64,4.64,0,0,1-4.32,2.26c-3.84,0-5.38-3.56-5.38-7.44v-.48c0-6.44,4.37-8,9.08-8h.43v-2.93c0-1.73-.24-2.5-1.39-2.5s-1.39.87-1.39,2.36v.57h-6v-.38c0-4.42,2-7.25,7.59-7.25,5,0,7.29,2.4,7.29,6.82Zm-6.09-5.47h-.58c-1.82,0-3,.82-3,3.46v.33c0,1.73.57,2.64,1.77,2.64s1.83-.86,1.83-3.45Z"/><path class="cls-3" d="M694.06,223.36v26.41c0,3.6,0,5.71.05,7h-5.86a22.67,22.67,0,0,1-.19-2.3,4.67,4.67,0,0,1-4.61,2.69c-4,0-5.33-3.08-5.33-8.07V238.72c0-4.17,1.49-7.58,5.76-7.58,1.63,0,3.32.48,4,1.82v-9.6Zm-9.79,25.78c0,1.73.43,2.74,1.77,2.74,1.49,0,1.83-1.3,1.83-3.46v-8.5c0-2.25-.24-3.4-1.78-3.4-1.34,0-1.82.91-1.82,2.68Z"/><path class="cls-3" d="M704.47,256.82V237h-2.3v-5.48h2.3v-1.63c0-3.69,1.3-6.81,6.34-6.81a10.91,10.91,0,0,1,2.4.24v5a5,5,0,0,0-.86-.05c-1.3,0-1.73.57-1.73,2v1.2h2.78V237h-2.78v19.82Z"/><path class="cls-3" d="M730.92,239.44V249c0,5.57-3,8.26-8.06,8.26S715,254.47,715,249V239.2c0-5.61,3.41-8.06,8-8.06C727.75,231.14,730.92,233.73,730.92,239.44Zm-9.79-.52v10.37c0,1.68.48,2.78,1.82,2.78s1.78-1.06,1.78-2.83V238.87c0-1.54-.34-2.59-1.78-2.59S721.13,237.24,721.13,238.92Z"/><path class="cls-3" d="M745.22,238.58c-3,0-5.08.53-5.08,4.85v13.39h-6.2v-16.7c0-4.32,0-6.39,0-8.6h5.85a36.21,36.21,0,0,1,.19,3.8,5.37,5.37,0,0,1,5.28-4.18Z"/><path class="cls-3" d="M769,223.36v26.41c0,3.6,0,5.71,0,7h-5.85a20.11,20.11,0,0,1-.19-2.3,4.68,4.68,0,0,1-4.61,2.69c-4,0-5.33-3.08-5.33-8.07V238.72c0-4.17,1.49-7.58,5.76-7.58,1.63,0,3.31.48,4,1.82v-9.6Zm-9.8,25.78c0,1.73.43,2.74,1.78,2.74s1.82-1.3,1.82-3.46v-8.5c0-2.25-.24-3.4-1.77-3.4-1.35,0-1.83.91-1.83,2.68Z"/><path class="cls-3" d="M772.54,231.52h6.19v25.3h-6.19Zm0-8.16h6.15V229h-6.15Z"/><path class="cls-3" d="M780.89,231.52h2.54v-5.71h6.1v5.71h2.88V237h-2.88v13.15c0,1.15.14,1.82,1.58,1.82a4.15,4.15,0,0,0,1.1-.09v4.75a10.49,10.49,0,0,1-3.55.53c-3.69,0-5.33-1.35-5.33-5.76V237h-2.44Z"/><path class="cls-3" d="M815.69,251.06c0,2.26,0,4.66.14,5.76h-5.71a13.88,13.88,0,0,1-.39-1.87,4.64,4.64,0,0,1-4.32,2.26c-3.84,0-5.37-3.56-5.37-7.44v-.48c0-6.44,4.37-8,9.07-8h.43v-2.93c0-1.73-.24-2.5-1.39-2.5s-1.39.87-1.39,2.36v.57h-6v-.38c0-4.42,2-7.25,7.58-7.25,5,0,7.3,2.4,7.3,6.82Zm-6.1-5.47H809c-1.82,0-3,.82-3,3.46v.33c0,1.73.58,2.64,1.78,2.64s1.82-.86,1.82-3.45Z"/><path class="cls-3" d="M830.57,238.58c-3,0-5.09.53-5.09,4.85v13.39h-6.19v-16.7c0-4.32,0-6.39,0-8.6h5.85a35.77,35.77,0,0,1,.2,3.8,5.36,5.36,0,0,1,5.28-4.18Z"/><path class="cls-3" d="M832.92,223.36h6.19v10.28a4.83,4.83,0,0,1,4.46-2.5c3.8,0,5.29,2.88,5.29,7.54v9.17c0,5.47-.92,9.36-5.86,9.36a4.23,4.23,0,0,1-4.18-2.55c0,.87-.09,1.59-.14,2.16h-5.81c.1-1.53,0-4.27,0-6.29Zm9.79,16.32c0-1.87-.24-3.16-1.73-3.16s-1.87,1.1-1.87,3.31v8.83c0,2.35.58,3.22,1.82,3.22,1.06,0,1.78-.82,1.78-3.31Z"/><path class="cls-3" d="M857.69,245.78v3.65c0,1.63.38,2.83,1.77,2.83s1.73-1.29,1.73-2.88v-.57h6v.33c0,3.41-1.06,8.07-7.73,8.07-6.48,0-7.87-3.7-7.87-8.88v-8.55c0-4.18,1.92-8.64,7.92-8.64,5.33,0,7.78,3.22,7.78,8.59v6.05Zm3.64-4.42v-2.44c0-2-.43-2.88-1.82-2.88-1.15,0-1.82.86-1.82,2.88v2.44Z"/><path class="cls-3" d="M876.31,231.52v24.87c0,4.56-.14,8.93-6.39,8.93a17.9,17.9,0,0,1-2.44-.19v-5.28h1.1c1.15,0,1.59-.34,1.59-1.83v-26.5Zm-6.14-8.16h6.14V229h-6.14Z"/><path class="cls-3" d="M895.37,223.36v26.41c0,3.6,0,5.71,0,7h-5.85a20.11,20.11,0,0,1-.19-2.3,4.67,4.67,0,0,1-4.61,2.69c-4,0-5.33-3.08-5.33-8.07V238.72c0-4.17,1.49-7.58,5.76-7.58,1.63,0,3.31.48,4,1.82v-9.6Zm-9.8,25.78c0,1.73.44,2.74,1.78,2.74s1.82-1.3,1.82-3.46v-8.5c0-2.25-.24-3.4-1.77-3.4-1.35,0-1.83.91-1.83,2.68Z"/><path class="cls-3" d="M904.53,245.78v3.65c0,1.63.39,2.83,1.78,2.83S908,251,908,249.38v-.57h6v.33c0,3.41-1.06,8.07-7.73,8.07-6.48,0-7.87-3.7-7.87-8.88v-8.55c0-4.18,1.92-8.64,7.92-8.64,5.33,0,7.77,3.22,7.77,8.59v6.05Zm3.65-4.42v-2.44c0-2-.43-2.88-1.82-2.88-1.15,0-1.83.86-1.83,2.88v2.44Z"/><path class="cls-3" d="M938.57,239.44V249c0,5.57-3,8.26-8.07,8.26s-7.87-2.74-7.87-8.26V239.2c0-5.61,3.41-8.06,8-8.06C935.4,231.14,938.57,233.73,938.57,239.44Zm-9.8-.52v10.37c0,1.68.48,2.78,1.83,2.78s1.77-1.06,1.77-2.83V238.87c0-1.54-.33-2.59-1.77-2.59S928.77,237.24,928.77,238.92Z"/><path class="cls-3" d="M957,254.76c0,6.05-.57,10.66-8.35,10.66-5.9,0-7.53-3.41-7.53-6.77v-.15h6.14v.1a1.69,1.69,0,0,0,1.73,1.92c1.68,0,1.92-1.25,1.92-4V253.7a4.31,4.31,0,0,1-4.27,2.45c-4.56,0-5.57-3.55-5.57-7.78v-9.65c0-3.45,1.15-7.58,5.95-7.58,2.5,0,3.74,1.1,4.22,2.59a20.08,20.08,0,0,1,.24-2.21h5.62c0,1.64-.1,4-.1,7Zm-9.79-6.87c0,2,.48,3,1.73,3,1.49,0,1.87-1.06,1.87-3.5v-7.88c0-1.53-.14-3-1.68-3-1.2,0-1.92.76-1.92,2.68Z"/><path class="cls-3" d="M972.84,242H973c1-2.88,2.69-7.68,3.65-10.52H983c-1.44,3.36-3,6.63-4.27,9.32.38,1.82,4.22,14.06,4.61,16h-6.63c-.14-1-2.2-9.26-2.3-10.13-.48,1.06-1.25,2.64-1.58,3.32v6.81h-6.1V223.36h6.1Z"/><path class="cls-3" d="M1000.34,239.44V249c0,5.57-3,8.26-8.07,8.26s-7.87-2.74-7.87-8.26V239.2c0-5.61,3.41-8.06,8-8.06C997.17,231.14,1000.34,233.73,1000.34,239.44Zm-9.79-.52v10.37c0,1.68.48,2.78,1.82,2.78s1.78-1.06,1.78-2.83V238.87c0-1.54-.34-2.59-1.78-2.59S990.55,237.24,990.55,238.92Z"/><path class="cls-3" d="M1003.36,239.25c0-5.52,0-6.81-.05-7.73h5.86a16.09,16.09,0,0,1,.19,2.07,4.88,4.88,0,0,1,4.47-2.45,3.93,3.93,0,0,1,4.08,2.54,5.7,5.7,0,0,1,4.89-2.54c3.27,0,5.14,2.11,5.14,6.53v19.15h-6.1v-18.1c0-1.44-.38-2.2-1.49-2.2s-1.63.91-1.63,2.92v17.38h-6.14v-18c0-1.87-.58-2.25-1.49-2.25-1.3,0-1.63.91-1.63,2.83v17.47h-6.1Z"/><path class="cls-3" d="M1031.49,239.25c0-5.52,0-6.81,0-7.73h5.86a16.09,16.09,0,0,1,.19,2.07,4.88,4.88,0,0,1,4.46-2.45,3.91,3.91,0,0,1,4.08,2.54,5.72,5.72,0,0,1,4.9-2.54c3.27,0,5.14,2.11,5.14,6.53v19.15H1050v-18.1c0-1.44-.38-2.2-1.49-2.2s-1.63.91-1.63,2.92v17.38h-6.14v-18c0-1.87-.58-2.25-1.49-2.25-1.3,0-1.63.91-1.63,2.83v17.47h-6.1Z"/><path class="cls-3" d="M1065.23,245.78v3.65c0,1.63.39,2.83,1.78,2.83s1.73-1.29,1.73-2.88v-.57h6v.33c0,3.41-1.06,8.07-7.73,8.07-6.48,0-7.87-3.7-7.87-8.88v-8.55c0-4.18,1.92-8.64,7.92-8.64,5.33,0,7.77,3.22,7.77,8.59v6.05Zm3.65-4.42v-2.44c0-2-.43-2.88-1.82-2.88-1.15,0-1.83.86-1.83,2.88v2.44Z"/><path class="cls-3" d="M1089,238.58c-3,0-5.09.53-5.09,4.85v13.39h-6.19v-16.7c0-4.32,0-6.39-.05-8.6h5.85a35.77,35.77,0,0,1,.2,3.8,5.36,5.36,0,0,1,5.28-4.18Z"/><path class="cls-3" d="M637.06,306.21v1.2c0,1.4.29,2.55,1.58,2.55.91,0,1.4-.58,1.4-1.92s-.34-2.35-3.32-4.27c-3.79-2.36-5.28-4.18-5.28-7.88,0-4.61,2.55-7.15,7.2-7.15,5.67,0,7.2,3.12,7.2,7.39v1.06h-5.66V295.7c0-1.63-.43-2.16-1.39-2.16s-1.3.67-1.3,1.82.48,1.78,2.69,3.12c4.66,2.89,6.05,4.9,6.05,8.69,0,4.95-2.16,7.64-7.64,7.64-6.48,0-7.44-4-7.44-7.64v-1Z"/><path class="cls-3" d="M648.82,296.71c0-4.51,0-6.63-.05-7.59h5.9a16.69,16.69,0,0,1,.2,2.16,5.19,5.19,0,0,1,4.75-2.54c3.36,0,5.14,2.21,5.14,6.58v19.1h-6.15V296.61c0-1.73-.53-2.49-1.68-2.49-1.39,0-1.92.76-1.92,3.26v17h-6.19Z"/><path class="cls-3" d="M683.14,308.66c0,2.26.05,4.66.14,5.76h-5.71a13.79,13.79,0,0,1-.38-1.87,4.64,4.64,0,0,1-4.32,2.26c-3.84,0-5.38-3.56-5.38-7.44v-.48c0-6.44,4.37-8,9.07-8H677v-2.93c0-1.73-.24-2.5-1.39-2.5s-1.39.87-1.39,2.36v.57h-6V296c0-4.42,2-7.25,7.58-7.25,5,0,7.3,2.4,7.3,6.82Zm-6.1-5.47h-.57c-1.83,0-3,.82-3,3.46V307c0,1.73.58,2.64,1.78,2.64s1.82-.86,1.82-3.45Z"/><path class="cls-3" d="M698,296.18c-3,0-5.09.53-5.09,4.85v13.39h-6.19v-16.7c0-4.32,0-6.39,0-8.6h5.86c.09.53.19,2.64.19,3.8a5.37,5.37,0,0,1,5.28-4.18Z"/><path class="cls-3" d="M699.75,289.12h2.54v-5.71h6.1v5.71h2.88v5.48h-2.88v13.15c0,1.15.14,1.82,1.58,1.82a4.15,4.15,0,0,0,1.1-.09v4.75a10.49,10.49,0,0,1-3.55.53c-3.69,0-5.33-1.35-5.33-5.76V294.6h-2.44Z"/><path class="cls-3" d="M719.71,289.12h6.2v25.3h-6.2Zm0-8.16h6.15v5.62h-6.15Z"/><path class="cls-3" d="M744.91,312.36c0,6.05-.57,10.66-8.35,10.66-5.9,0-7.54-3.41-7.54-6.77v-.15h6.15v.1a1.69,1.69,0,0,0,1.73,1.92c1.68,0,1.92-1.25,1.92-4V311.3a4.31,4.31,0,0,1-4.28,2.45c-4.56,0-5.56-3.55-5.56-7.78v-9.65c0-3.45,1.15-7.58,5.95-7.58,2.49,0,3.74,1.1,4.22,2.59a20.08,20.08,0,0,1,.24-2.21H745c0,1.64-.1,4-.1,7Zm-9.79-6.87c0,2,.48,3,1.73,3,1.49,0,1.87-1.06,1.87-3.5v-7.88c0-1.53-.14-3-1.68-3-1.2,0-1.92.76-1.92,2.68Z"/><path class="cls-3" d="M754.08,303.38V307c0,1.63.38,2.83,1.78,2.83s1.72-1.29,1.72-2.88v-.57h6v.33c0,3.41-1.05,8.07-7.72,8.07-6.48,0-7.88-3.7-7.88-8.88v-8.55c0-4.18,1.92-8.64,7.92-8.64,5.33,0,7.78,3.22,7.78,8.59v6.05Zm3.65-4.42v-2.44c0-2-.43-2.88-1.83-2.88-1.15,0-1.82.86-1.82,2.88V299Z"/><path class="cls-3" d="M766.51,296.71c0-4.51,0-6.63,0-7.59h5.91a18.58,18.58,0,0,1,.19,2.16,5.19,5.19,0,0,1,4.75-2.54c3.36,0,5.14,2.21,5.14,6.58v19.1H776.3V296.61c0-1.73-.52-2.49-1.68-2.49-1.39,0-1.92.76-1.92,3.26v17h-6.19Z"/><path class="cls-3" d="M787.73,302.71l-.58-15.12V282.4h6.72v5l-.57,15.27Zm-.24,11.71v-7.53h6.09v7.53Z"/></svg>
