<svg id="Layer_1" data-name="Layer 1" xmlns="http://www.w3.org/2000/svg" width="500" height="100" viewBox="0 0 500 100"><defs><style>.cls-1{opacity:0.19;}.cls-2{fill:#ffa0b2;}.cls-3{opacity:0.16;}.cls-4{fill:#f43d88;}.cls-5{opacity:0.62;}.cls-6{fill:#fff;}.cls-7{fill:#b3b3b3;}</style></defs><title>Toggle_sprite</title><rect class="cls-1" x="113.48" y="34.86" width="77.52" height="31.63" rx="14.64"/><rect class="cls-2" x="111" y="33" width="77.52" height="31.63" rx="14.64"/><circle class="cls-3" cx="143.53" cy="48.81" r="15.19"/><circle class="cls-4" cx="141.67" cy="48.81" r="15.19"/><g class="cls-5"><path class="cls-4" d="M138.43,35.54c-5.34-.35-9.16,5.13-9.72,9.87-.23,1.91,2.78,1.9,3,0,.38-3.21,3.15-7.1,6.72-6.87,1.93.13,1.92-2.87,0-3Z"/><path class="cls-4" d="M138.54,35.82c-4.15.64-7.07,3.89-8.68,7.58-.76,1.75,1.82,3.28,2.59,1.51,1.34-3,3.42-5.66,6.88-6.19,1.91-.3,1.1-3.19-.79-2.9Z"/><path class="cls-6" d="M139,35.4c-5.25.85-8.19,4.73-9.93,9.45l2.95.4c.34-2.82,3.2-5.24,5.57-6.39a1.48,1.48,0,0,0,.74-1.29v-.18a1.5,1.5,0,0,0-.74-1.3l-.14-.06-.36,2.74a16.65,16.65,0,0,1,2.42-.56l-.8-2.89a13.4,13.4,0,0,0-3.95,1.92l1.82,2.35.32-.31c1.08-.81.89-2.89-.75-2.8-2.64.15-4.74,3.17-6.23,5.12-1.09,1.42-3.24,5,0,5.64,2.67.49,4.05-4.1,5.56-5.49,1.77-1.64,5.34-2.44,5.4-5.26a1.55,1.55,0,0,0-1.5-1.5c-1.85-.22-4.4,1.28-5.76,2.44a23,23,0,0,0-4.68,5.75l2.59,1.51a17.48,17.48,0,0,1,2.89-3.85,1.51,1.51,0,0,0-1.82-2.36l-.55.33,1.82,2.36a5.28,5.28,0,0,1,3.41-1.92c1.9-.32,1.09-3.21-.8-2.9a7.78,7.78,0,0,0-4.73,2.7c-1.05,1.24.27,3.29,1.82,2.35l.54-.33-1.82-2.35a20.84,20.84,0,0,0-3.35,4.46,1.5,1.5,0,0,0,2.59,1.51A22.2,22.2,0,0,1,135,40.33c.91-.92,3.07-2.5,4.42-2.34l-1.5-1.5c0,.42-3.27,2.13-3.74,2.49a12.32,12.32,0,0,0-2.81,3.25c-.25.39-1.44,1.75-1.45,2.11.91.71,1.53.65,1.85-.18.3-.43.61-.85.94-1.26.62-.77,2.41-3.36,3.47-3.42l-.76-2.79a7,7,0,0,0-.93.78c-1.15,1.17.38,3.37,1.82,2.36a10.89,10.89,0,0,1,3.23-1.62,1.5,1.5,0,0,0-.8-2.89,17,17,0,0,0-2.42.56c-1.14.34-1.58,2.15-.36,2.74l.14.06-.74-1.29v.18l.74-1.3c-3.45,1.68-6.57,5-7.05,9-.22,1.79,2.41,1.87,2.95.4,1.4-3.8,3.65-6.68,7.83-7.35,1.9-.31,1.09-3.2-.8-2.9Z"/><path class="cls-6" d="M132.51,42a1.5,1.5,0,0,0,0-3,1.5,1.5,0,0,0,0,3Z"/><path class="cls-6" d="M131.55,39.3c-.34.44-.69.89-1,1.34l2.59,1.52a2.87,2.87,0,0,1,.6-.74l-2.12-2.13a7.86,7.86,0,0,1-1.48,1.76l2,2.05a21.54,21.54,0,0,1,1.76-1.94L131.81,39c-.33.39-.74.69-1.08,1.07a8.33,8.33,0,0,0-.88,1.31c-.23.39-.52.71-.78,1.08a3.17,3.17,0,0,0-.54,1.54,1.51,1.51,0,0,0,2.95.4,3.19,3.19,0,0,1,.9-1.38c1.41-1.32-.71-3.44-2.12-2.12a6.19,6.19,0,0,0-1.67,2.7l2.94.4c0,.34.22-.13.31-.24a8.07,8.07,0,0,0,.73-1.1,11.71,11.71,0,0,1,1.36-1.54,1.55,1.55,0,0,0,0-2.12,1.51,1.51,0,0,0-2.12,0,26.84,26.84,0,0,0-2.23,2.54c-.89,1.22.84,2.86,2,2.06a9.38,9.38,0,0,0,2.09-2.22,1.56,1.56,0,0,0,0-2.13,1.53,1.53,0,0,0-2.12,0,5.79,5.79,0,0,0-1.07,1.35,1.5,1.5,0,0,0,2.59,1.52c.18-.25.36-.5.55-.74a1.54,1.54,0,0,0,0-2.12,1.5,1.5,0,0,0-2.12,0Z"/><path class="cls-6" d="M138.09,36.81c0-.39-1.14.39-1.38.53-.58.35-1.13.75-1.68,1.16a18,18,0,0,0-2.79,2.37c-1.26,1.45.85,3.58,2.12,2.12a16.69,16.69,0,0,1,3.87-3.06c1.27-.77,2.9-1.37,2.86-3.12,0-1.93-3-1.94-3,0Z"/></g><rect class="cls-1" x="10.48" y="34.86" width="77.52" height="31.63" rx="14.64"/><rect class="cls-2" x="8" y="33" width="77.52" height="31.63" rx="14.64"/><circle class="cls-3" cx="26.53" cy="48.81" r="15.19"/><circle class="cls-4" cx="24.67" cy="48.81" r="15.19"/><g class="cls-5"><path class="cls-4" d="M21.43,35.54c-5.34-.35-9.16,5.13-9.72,9.87-.23,1.91,2.78,1.9,3,0,.38-3.21,3.15-7.1,6.72-6.87,1.93.13,1.92-2.87,0-3Z"/><path class="cls-4" d="M21.54,35.82c-4.15.64-7.07,3.89-8.68,7.58-.76,1.75,1.82,3.28,2.59,1.51,1.34-3,3.42-5.66,6.88-6.19,1.91-.3,1.1-3.19-.79-2.9Z"/><path class="cls-6" d="M22,35.4c-5.25.85-8.19,4.73-9.93,9.45l2.95.4c.34-2.82,3.2-5.24,5.57-6.39a1.48,1.48,0,0,0,.74-1.29v-.18a1.5,1.5,0,0,0-.74-1.3L20.43,36l-.36,2.74a16.65,16.65,0,0,1,2.42-.56l-.8-2.89a13.4,13.4,0,0,0-4,1.92l1.82,2.35.32-.31c1.08-.81.89-2.89-.75-2.8-2.64.15-4.74,3.17-6.23,5.12-1.09,1.42-3.24,5,0,5.64,2.67.49,4.05-4.1,5.56-5.49,1.77-1.64,5.34-2.44,5.4-5.26a1.55,1.55,0,0,0-1.5-1.5c-1.85-.22-4.4,1.28-5.76,2.44a23,23,0,0,0-4.68,5.75l2.59,1.51a17.48,17.48,0,0,1,2.89-3.85,1.51,1.51,0,0,0-1.82-2.36l-.55.33,1.82,2.36a5.28,5.28,0,0,1,3.41-1.92c1.9-.32,1.09-3.21-.8-2.9a7.78,7.78,0,0,0-4.73,2.7c-1.05,1.24.27,3.29,1.82,2.35l.54-.33-1.82-2.35a20.84,20.84,0,0,0-3.35,4.46,1.5,1.5,0,0,0,2.59,1.51A22.2,22.2,0,0,1,18,40.33c.91-.92,3.07-2.5,4.42-2.34l-1.5-1.5c0,.42-3.27,2.13-3.74,2.49a12.32,12.32,0,0,0-2.81,3.25c-.25.39-1.44,1.75-1.45,2.11.91.71,1.53.65,1.85-.18.3-.43.61-.85.94-1.26.62-.77,2.41-3.36,3.47-3.42l-.76-2.79a7,7,0,0,0-.93.78c-1.15,1.17.38,3.37,1.82,2.36a10.89,10.89,0,0,1,3.23-1.62,1.5,1.5,0,0,0-.8-2.89,17,17,0,0,0-2.42.56c-1.14.34-1.58,2.15-.36,2.74l.14.06-.74-1.29v.18l.74-1.3c-3.45,1.68-6.57,5-7,9-.22,1.79,2.41,1.87,2.95.4,1.4-3.8,3.65-6.68,7.83-7.35,1.9-.31,1.09-3.2-.8-2.9Z"/><path class="cls-6" d="M15.51,42a1.5,1.5,0,0,0,0-3,1.5,1.5,0,0,0,0,3Z"/><path class="cls-6" d="M14.55,39.3c-.34.44-.69.89-1,1.34l2.59,1.52a2.87,2.87,0,0,1,.6-.74L14.6,39.29a7.86,7.86,0,0,1-1.48,1.76l2.05,2.05a21.54,21.54,0,0,1,1.76-1.94L14.81,39c-.33.39-.74.69-1.08,1.07a8.33,8.33,0,0,0-.88,1.31c-.23.39-.52.71-.78,1.08A3.17,3.17,0,0,0,11.53,44a1.51,1.51,0,0,0,3,.4,3.19,3.19,0,0,1,.9-1.38c1.41-1.32-.71-3.44-2.12-2.12a6.19,6.19,0,0,0-1.67,2.7l2.94.4c0,.34.22-.13.31-.24a8.07,8.07,0,0,0,.73-1.1,11.71,11.71,0,0,1,1.36-1.54,1.55,1.55,0,0,0,0-2.12,1.51,1.51,0,0,0-2.12,0,26.84,26.84,0,0,0-2.23,2.54c-.89,1.22.84,2.86,2.05,2.06a9.38,9.38,0,0,0,2.09-2.22,1.56,1.56,0,0,0,0-2.13,1.53,1.53,0,0,0-2.12,0,5.79,5.79,0,0,0-1.07,1.35,1.5,1.5,0,0,0,2.59,1.52c.18-.25.36-.5.55-.74a1.54,1.54,0,0,0,0-2.12,1.5,1.5,0,0,0-2.12,0Z"/><path class="cls-6" d="M21.09,36.81c0-.39-1.14.39-1.38.53-.58.35-1.13.75-1.68,1.16a18,18,0,0,0-2.79,2.37c-1.26,1.45.85,3.58,2.12,2.12a16.69,16.69,0,0,1,3.87-3.06c1.27-.77,2.9-1.37,2.86-3.12,0-1.93-3-1.94-3,0Z"/></g><rect class="cls-1" x="213.48" y="34.86" width="77.52" height="31.63" rx="14.64"/><rect class="cls-2" x="211.46" y="33" width="77.52" height="31.63" rx="14.64"/><circle class="cls-3" cx="250.53" cy="48.81" r="15.19"/><circle class="cls-4" cx="250.22" cy="48.81" r="15.19"/><g class="cls-5"><path class="cls-4" d="M247.43,35.54c-5.34-.35-9.16,5.13-9.72,9.87-.23,1.91,2.78,1.9,3,0,.38-3.21,3.15-7.1,6.72-6.87,1.93.13,1.92-2.87,0-3Z"/><path class="cls-4" d="M247.54,35.82c-4.15.64-7.07,3.89-8.68,7.58-.76,1.75,1.82,3.28,2.59,1.51,1.34-3,3.42-5.66,6.88-6.19,1.91-.3,1.1-3.19-.79-2.9Z"/><path class="cls-6" d="M248,35.4c-5.25.85-8.19,4.73-9.93,9.45l2.95.4c.34-2.82,3.2-5.24,5.57-6.39a1.48,1.48,0,0,0,.74-1.29v-.18a1.5,1.5,0,0,0-.74-1.3l-.14-.06-.36,2.74a16.65,16.65,0,0,1,2.42-.56l-.8-2.89a13.4,13.4,0,0,0-3.95,1.92l1.82,2.35.32-.31c1.08-.81.89-2.89-.75-2.8-2.64.15-4.74,3.17-6.23,5.12-1.09,1.42-3.24,5,0,5.64,2.67.49,4.05-4.1,5.56-5.49,1.77-1.64,5.34-2.44,5.4-5.26a1.55,1.55,0,0,0-1.5-1.5c-1.85-.22-4.4,1.28-5.76,2.44a23,23,0,0,0-4.68,5.75l2.59,1.51a17.48,17.48,0,0,1,2.89-3.85,1.51,1.51,0,0,0-1.82-2.36l-.55.33,1.82,2.36a5.28,5.28,0,0,1,3.41-1.92c1.9-.32,1.09-3.21-.8-2.9a7.78,7.78,0,0,0-4.73,2.7c-1.05,1.24.27,3.29,1.82,2.35l.54-.33-1.82-2.35a20.84,20.84,0,0,0-3.35,4.46,1.5,1.5,0,0,0,2.59,1.51A22.2,22.2,0,0,1,244,40.33c.91-.92,3.07-2.5,4.42-2.34l-1.5-1.5c0,.42-3.27,2.13-3.74,2.49a12.32,12.32,0,0,0-2.81,3.25c-.25.39-1.44,1.75-1.45,2.11.91.71,1.53.65,1.85-.18.3-.43.61-.85.94-1.26.62-.77,2.41-3.36,3.47-3.42l-.76-2.79a7,7,0,0,0-.93.78c-1.15,1.17.38,3.37,1.82,2.36a10.89,10.89,0,0,1,3.23-1.62,1.5,1.5,0,0,0-.8-2.89,17,17,0,0,0-2.42.56c-1.14.34-1.58,2.15-.36,2.74l.14.06-.74-1.29v.18l.74-1.3c-3.45,1.68-6.57,5-7.05,9-.22,1.79,2.41,1.87,2.95.4,1.4-3.8,3.65-6.68,7.83-7.35,1.9-.31,1.09-3.2-.8-2.9Z"/><path class="cls-6" d="M241.51,42a1.5,1.5,0,0,0,0-3,1.5,1.5,0,0,0,0,3Z"/><path class="cls-6" d="M240.55,39.3c-.34.44-.69.89-1,1.34l2.59,1.52a2.87,2.87,0,0,1,.6-.74l-2.12-2.13a7.86,7.86,0,0,1-1.48,1.76l2,2.05a21.54,21.54,0,0,1,1.76-1.94L240.81,39c-.33.39-.74.69-1.08,1.07a8.33,8.33,0,0,0-.88,1.31c-.23.39-.52.71-.78,1.08a3.17,3.17,0,0,0-.54,1.54,1.51,1.51,0,0,0,2.95.4,3.19,3.19,0,0,1,.9-1.38c1.41-1.32-.71-3.44-2.12-2.12a6.19,6.19,0,0,0-1.67,2.7l2.94.4c0,.34.22-.13.31-.24a8.07,8.07,0,0,0,.73-1.1,11.71,11.71,0,0,1,1.36-1.54,1.55,1.55,0,0,0,0-2.12,1.51,1.51,0,0,0-2.12,0,26.84,26.84,0,0,0-2.23,2.54c-.89,1.22.84,2.86,2,2.06a9.38,9.38,0,0,0,2.09-2.22,1.56,1.56,0,0,0,0-2.13,1.53,1.53,0,0,0-2.12,0,5.79,5.79,0,0,0-1.07,1.35,1.5,1.5,0,0,0,2.59,1.52c.18-.25.36-.5.55-.74a1.54,1.54,0,0,0,0-2.12,1.5,1.5,0,0,0-2.12,0Z"/><path class="cls-6" d="M247.09,36.81c0-.39-1.14.39-1.38.53-.58.35-1.13.75-1.68,1.16a18,18,0,0,0-2.79,2.37c-1.26,1.45.85,3.58,2.12,2.12a16.69,16.69,0,0,1,3.87-3.06c1.27-.77,2.9-1.37,2.86-3.12,0-1.93-3-1.94-3,0Z"/></g><rect class="cls-1" x="313.48" y="34.86" width="77.52" height="31.63" rx="14.64"/><rect class="cls-2" x="311" y="33" width="77.52" height="31.63" rx="14.64"/><circle class="cls-3" cx="358.53" cy="48.81" r="15.19"/><circle class="cls-4" cx="359.67" cy="48.81" r="15.19"/><g class="cls-5"><path class="cls-4" d="M371.24,45.86c.29-5.34-5.22-9.11-10-9.61-1.92-.2-1.91,2.8,0,3,3.2.34,7.16,3,7,6.61-.1,1.93,2.9,1.92,3,0Z"/><path class="cls-4" d="M371,46c-.73-4.34-4.19-7.11-8-8.73-1.78-.75-2.56,2.15-.8,2.89,2.93,1.23,5.39,3.38,5.93,6.64.32,1.9,3.21,1.09,2.9-.8Z"/><path class="cls-6" d="M371.39,46.41c-.91-5.24-4.82-8.14-9.56-9.82l-.4,2.95c2.83.3,5.29,3.1,6.47,5.46a1.49,1.49,0,0,0,1.29.75h.18a1.48,1.48,0,0,0,1.3-.74l.06-.14L368,44.5a16.74,16.74,0,0,1,.59,2.42l2.89-.8a13.52,13.52,0,0,0-2-3.93L367.15,44l.33.32c.8,1.05,2.91.9,2.79-.76-.18-2.65-3.21-4.7-5.18-6.17-1.08-.81-2.37-1.94-3.83-1.69a2.18,2.18,0,0,0-1.84,1.95c-.16,2.53,3.86,3.64,5.34,5.07,1.76,1.7,2.66,5.54,5.54,5.56a1.54,1.54,0,0,0,1.5-1.5A4.51,4.51,0,0,0,371,44a17.14,17.14,0,0,0-1.73-2.89,23.17,23.17,0,0,0-5.81-4.61L362,39a17.51,17.51,0,0,1,3.9,2.83,1.51,1.51,0,0,0,2.36-1.82l-.34-.54-2.36,1.82a5.3,5.3,0,0,1,2,3.38c.34,1.89,3.23,1.09,2.89-.8a7.72,7.72,0,0,0-2.75-4.7c-1.23-1-3.32.27-2.35,1.82l.33.54L368,39.75a21.1,21.1,0,0,0-4.5-3.3c-1.7-.92-3.2,1.63-1.52,2.59a22.28,22.28,0,0,1,4.42,3.37c.92.89,2.55,3,2.4,4.38l1.5-1.5c-.43,0-2-3-2.39-3.49a12.56,12.56,0,0,0-3.46-3c-.45-.28-1.64-1.35-2.1-1.4-.72.91-.67,1.51.17,1.82l1.06.76c.79.61,3.62,2.5,3.69,3.58l2.8-.76a8.7,8.7,0,0,0-.79-.92c-1.18-1.13-3.4.39-2.36,1.82a11,11,0,0,1,1.66,3.21,1.5,1.5,0,0,0,2.89-.8,17.63,17.63,0,0,0-.58-2.41c-.36-1.13-2.17-1.6-2.75-.36l-.06.14,1.29-.75h-.18l1.3.74c-1.72-3.43-5.11-6.52-9.06-7-1.78-.19-1.9,2.42-.4,3,3.81,1.34,6.74,3.54,7.47,7.71.33,1.9,3.22,1.1,2.89-.79Z"/><path class="cls-6" d="M366.25,41.48a1.5,1.5,0,0,0,0-3,1.5,1.5,0,0,0,0,3Z"/><path class="cls-6" d="M367.11,38.79,366.06,38l-1.52,2.6a2.8,2.8,0,0,1,.75.58l1.82-2.35a6.41,6.41,0,0,1-1.47-1.22l-2.05,2.05a22.87,22.87,0,0,1,2,1.73l2.12-2.12c-.39-.32-.7-.73-1.08-1.06a8.13,8.13,0,0,0-1.32-.87,6.58,6.58,0,0,0-2.64-1.29c-1.73-.21-1.95,2.47-.39,2.94a3.21,3.21,0,0,1,1.39.88c1.34,1.39,3.46-.73,2.12-2.13A6.29,6.29,0,0,0,363,36.11l-.4,3c-.31,0,.14.2.26.29a9.05,9.05,0,0,0,1.1.72,11,11,0,0,1,1.56,1.33,1.55,1.55,0,0,0,2.12,0,1.5,1.5,0,0,0,0-2.12,26.88,26.88,0,0,0-2.57-2.2c-1.21-.87-2.88.84-2.05,2.05a10.56,10.56,0,0,0,2.55,2.3,1.47,1.47,0,0,0,1.93-.39,1.51,1.51,0,0,0-.12-2A5.8,5.8,0,0,0,366.06,38c-1.71-1-3.06,1.49-1.52,2.6.36.25.71.51,1,.77a1.5,1.5,0,1,0,1.52-2.59Z"/><path class="cls-6" d="M370,45.52c.36,0-.41-1.12-.56-1.36-.36-.57-.77-1.12-1.18-1.66a16.68,16.68,0,0,0-2.41-2.76c-1.46-1.25-3.59.86-2.12,2.12a16.42,16.42,0,0,1,3.12,3.82c.78,1.25,1.41,2.9,3.15,2.84,1.93-.06,1.94-3.06,0-3Z"/></g><rect class="cls-1" x="413.48" y="34.86" width="77.52" height="31.63" rx="14.64"/><rect class="cls-7" x="411" y="33" width="77.52" height="31.63" rx="14.64"/><circle class="cls-3" cx="469.53" cy="48.81" r="15.19"/><circle class="cls-4" cx="471.67" cy="48.81" r="15.19"/><g class="cls-5"><path class="cls-4" d="M483.38,45.7c.08-5.33-5.47-9-10.28-9.28-1.92-.13-1.92,2.87,0,3,3.18.22,7.34,2.68,7.28,6.28a1.5,1.5,0,0,0,3,0Z"/><path class="cls-4" d="M483.13,45.82c-.88-4.3-4.41-7-8.32-8.46-1.81-.68-2.6,2.22-.8,2.89,3,1.12,5.56,3.13,6.23,6.36.38,1.89,3.27,1.09,2.89-.79Z"/><path class="cls-6" d="M483.57,46.24c-1.12-5.19-5.08-8-9.9-9.48l-.4,2.94c2.86.2,5.42,2.83,6.71,5.16a1.47,1.47,0,0,0,1.29.75h.18a1.59,1.59,0,0,0,1.45-1.1l.06-.15h-2.89a19.74,19.74,0,0,1,.68,2.39l2.89-.79a14.68,14.68,0,0,0-2.33-4.16l-2.13,2.12a2.8,2.8,0,0,1,.59.6,1.52,1.52,0,0,0,2.56-1.06c-.29-2.65-3.33-4.58-5.37-6-1.51-1.05-4.84-3-5.64,0-.68,2.59,3.47,3.74,5,4.88,2.17,1.63,3.16,5.69,6.19,5.76a1.54,1.54,0,0,0,1.5-1.5,4.47,4.47,0,0,0-.84-2.82A19,19,0,0,0,481.31,41a22.89,22.89,0,0,0-6-4.4l-1.51,2.59a18,18,0,0,1,4,2.67c1.2,1.07,3.36-.33,2.35-1.82l-.35-.52-2.06,2.05a4.94,4.94,0,0,1,1.83,3c.41,1.88,3.31,1.08,2.89-.8a8.05,8.05,0,0,0-3.2-4.84c-1.2-.92-2.86.86-2.05,2.05l.35.53L480,39.7a21,21,0,0,0-4.62-3.14c-1.72-.85-3.24,1.7-1.51,2.59a23.5,23.5,0,0,1,4.54,3.19c.94.82,2.71,2.92,2.62,4.27l1.5-1.5c-.46,0-1.41-1.88-1.72-2.29a14.86,14.86,0,0,0-1.9-2.22,12.72,12.72,0,0,0-2.17-1.54c-.77-.45-2.28-.92-2.67-1.77l.15,1.15q-.74.51-.09.72c.28.16.56.34.83.52.62.4,1.22.84,1.8,1.3s2.54,1.75,2.62,2.47l2.56-1.06a3,3,0,0,0-.58-.6,1.5,1.5,0,0,0-2.13,2.12,9.94,9.94,0,0,1,1.57,2.83,1.5,1.5,0,0,0,2.89-.79,17.65,17.65,0,0,0-.68-2.39,1.51,1.51,0,0,0-2.89,0l-.06.14,1.44-1.1h-.18l1.3.74c-1.84-3.34-5.34-6.37-9.3-6.65-1.73-.12-2,2.46-.39,2.95,3.85,1.2,6.9,3.23,7.8,7.38.4,1.89,3.29,1.09,2.89-.79Z"/><path class="cls-6" d="M478.17,41.46a1.5,1.5,0,0,0,0-3,1.5,1.5,0,0,0,0,3Z"/><path class="cls-6" d="M479,38.77,478,38l-1.52,2.59a3.11,3.11,0,0,1,.79.55L479,38.81a6.36,6.36,0,0,1-1.53-1.14l-2.06,2a21.52,21.52,0,0,1,2,1.64L479.3,39c-.35-.26-.62-.63-1-.9a9.63,9.63,0,0,0-1.31-.78,6,6,0,0,0-2.56-1.15c-1.7-.14-2,2.52-.4,2.94a3.14,3.14,0,0,1,1.44.79c1.39,1.34,3.52-.78,2.12-2.12a6.23,6.23,0,0,0-2.76-1.56l-.4,3c-.22,0-.1,0,0,.08l.45.33a10.35,10.35,0,0,0,1,.57,15.45,15.45,0,0,1,1.81,1.44c1.36,1,3.12-1.27,1.82-2.36A31.42,31.42,0,0,0,477,37.13c-1.2-.79-3,.84-2,2a10.32,10.32,0,0,0,2.61,2.22c1.41,1,3-1.18,1.82-2.35A6,6,0,0,0,478,38a1.5,1.5,0,0,0-1.52,2.59c.37.24.73.49,1.09.74A1.5,1.5,0,0,0,479,38.77Z"/><path class="cls-6" d="M482.18,45.35c.25,0-.45-1-.6-1.22-.37-.55-.78-1.08-1.2-1.59a16.58,16.58,0,0,0-2.59-2.77c-1.5-1.18-3.63.93-2.12,2.12a16.84,16.84,0,0,1,3.21,3.58c.84,1.22,1.54,3,3.3,2.88s1.93-3.14,0-3Z"/></g></svg>
